%TF.GenerationSoftware,KiCad,Pcbnew,6.0.5-a6ca702e91~116~ubuntu20.04.1*%
%TF.CreationDate,2022-06-30T20:33:51-06:00*%
%TF.ProjectId,trailer-power-controller,74726169-6c65-4722-9d70-6f7765722d63,rev?*%
%TF.SameCoordinates,Original*%
%TF.FileFunction,Paste,Top*%
%TF.FilePolarity,Positive*%
%FSLAX46Y46*%
G04 Gerber Fmt 4.6, Leading zero omitted, Abs format (unit mm)*
G04 Created by KiCad (PCBNEW 6.0.5-a6ca702e91~116~ubuntu20.04.1) date 2022-06-30 20:33:51*
%MOMM*%
%LPD*%
G01*
G04 APERTURE LIST*
G04 Aperture macros list*
%AMRoundRect*
0 Rectangle with rounded corners*
0 $1 Rounding radius*
0 $2 $3 $4 $5 $6 $7 $8 $9 X,Y pos of 4 corners*
0 Add a 4 corners polygon primitive as box body*
4,1,4,$2,$3,$4,$5,$6,$7,$8,$9,$2,$3,0*
0 Add four circle primitives for the rounded corners*
1,1,$1+$1,$2,$3*
1,1,$1+$1,$4,$5*
1,1,$1+$1,$6,$7*
1,1,$1+$1,$8,$9*
0 Add four rect primitives between the rounded corners*
20,1,$1+$1,$2,$3,$4,$5,0*
20,1,$1+$1,$4,$5,$6,$7,0*
20,1,$1+$1,$6,$7,$8,$9,0*
20,1,$1+$1,$8,$9,$2,$3,0*%
G04 Aperture macros list end*
%ADD10R,0.450000X0.600000*%
%ADD11RoundRect,0.135000X-0.135000X-0.185000X0.135000X-0.185000X0.135000X0.185000X-0.135000X0.185000X0*%
%ADD12RoundRect,0.135000X0.185000X-0.135000X0.185000X0.135000X-0.185000X0.135000X-0.185000X-0.135000X0*%
%ADD13RoundRect,0.140000X0.140000X0.170000X-0.140000X0.170000X-0.140000X-0.170000X0.140000X-0.170000X0*%
%ADD14RoundRect,0.150000X-0.587500X-0.150000X0.587500X-0.150000X0.587500X0.150000X-0.587500X0.150000X0*%
%ADD15RoundRect,0.140000X-0.170000X0.140000X-0.170000X-0.140000X0.170000X-0.140000X0.170000X0.140000X0*%
%ADD16RoundRect,0.150000X-0.150000X0.587500X-0.150000X-0.587500X0.150000X-0.587500X0.150000X0.587500X0*%
%ADD17R,1.700000X1.300000*%
%ADD18RoundRect,0.250001X-0.462499X-0.624999X0.462499X-0.624999X0.462499X0.624999X-0.462499X0.624999X0*%
%ADD19RoundRect,0.200000X-0.200000X-0.275000X0.200000X-0.275000X0.200000X0.275000X-0.200000X0.275000X0*%
%ADD20RoundRect,0.218750X0.218750X0.256250X-0.218750X0.256250X-0.218750X-0.256250X0.218750X-0.256250X0*%
%ADD21RoundRect,0.150000X0.587500X0.150000X-0.587500X0.150000X-0.587500X-0.150000X0.587500X-0.150000X0*%
%ADD22R,1.500000X2.000000*%
%ADD23R,2.300000X2.500000*%
%ADD24R,2.500000X2.300000*%
%ADD25RoundRect,0.249999X-0.450001X-1.425001X0.450001X-1.425001X0.450001X1.425001X-0.450001X1.425001X0*%
%ADD26RoundRect,0.135000X0.135000X0.185000X-0.135000X0.185000X-0.135000X-0.185000X0.135000X-0.185000X0*%
%ADD27RoundRect,0.249999X1.425001X-0.450001X1.425001X0.450001X-1.425001X0.450001X-1.425001X-0.450001X0*%
%ADD28R,2.000000X1.500000*%
%ADD29R,0.600000X0.450000*%
%ADD30RoundRect,0.150000X0.150000X-0.825000X0.150000X0.825000X-0.150000X0.825000X-0.150000X-0.825000X0*%
%ADD31RoundRect,0.225000X0.250000X-0.225000X0.250000X0.225000X-0.250000X0.225000X-0.250000X-0.225000X0*%
%ADD32R,2.000000X0.900000*%
%ADD33R,0.900000X2.000000*%
%ADD34R,5.000000X5.000000*%
%ADD35RoundRect,0.250000X0.325000X0.650000X-0.325000X0.650000X-0.325000X-0.650000X0.325000X-0.650000X0*%
%ADD36RoundRect,0.135000X-0.185000X0.135000X-0.185000X-0.135000X0.185000X-0.135000X0.185000X0.135000X0*%
%ADD37RoundRect,0.140000X0.170000X-0.140000X0.170000X0.140000X-0.170000X0.140000X-0.170000X-0.140000X0*%
%ADD38RoundRect,0.218750X-0.218750X-0.256250X0.218750X-0.256250X0.218750X0.256250X-0.218750X0.256250X0*%
%ADD39R,1.080000X0.320000*%
%ADD40R,1.550000X1.500000*%
%ADD41RoundRect,0.250000X0.250000X0.475000X-0.250000X0.475000X-0.250000X-0.475000X0.250000X-0.475000X0*%
%ADD42RoundRect,0.150000X-0.512500X-0.150000X0.512500X-0.150000X0.512500X0.150000X-0.512500X0.150000X0*%
G04 APERTURE END LIST*
D10*
%TO.C,D12*%
X96300000Y-94250000D03*
X96300000Y-96350000D03*
%TD*%
D11*
%TO.C,R16*%
X92390000Y-83600000D03*
X93410000Y-83600000D03*
%TD*%
D12*
%TO.C,R18*%
X110100000Y-102510000D03*
X110100000Y-101490000D03*
%TD*%
D13*
%TO.C,C12*%
X90780000Y-73700000D03*
X89820000Y-73700000D03*
%TD*%
D14*
%TO.C,Q1*%
X113262500Y-96750000D03*
X113262500Y-98650000D03*
X115137500Y-97700000D03*
%TD*%
D15*
%TO.C,C19*%
X72500000Y-71352323D03*
X72500000Y-72312323D03*
%TD*%
D16*
%TO.C,Q3*%
X85750000Y-84262500D03*
X83850000Y-84262500D03*
X84800000Y-86137500D03*
%TD*%
D17*
%TO.C,D8*%
X92300000Y-82150000D03*
X92300000Y-78650000D03*
%TD*%
%TO.C,D7*%
X87900000Y-75950000D03*
X87900000Y-72450000D03*
%TD*%
D11*
%TO.C,R9*%
X110690000Y-97700000D03*
X111710000Y-97700000D03*
%TD*%
D18*
%TO.C,F1*%
X130212500Y-103000000D03*
X133187500Y-103000000D03*
%TD*%
D19*
%TO.C,R12*%
X87975000Y-80400000D03*
X89625000Y-80400000D03*
%TD*%
D12*
%TO.C,R27*%
X125200000Y-101810000D03*
X125200000Y-100790000D03*
%TD*%
D19*
%TO.C,R13*%
X90675000Y-84900000D03*
X92325000Y-84900000D03*
%TD*%
D20*
%TO.C,D5*%
X133687500Y-91400000D03*
X132112500Y-91400000D03*
%TD*%
D21*
%TO.C,Q2*%
X119137500Y-98650000D03*
X119137500Y-96750000D03*
X117262500Y-97700000D03*
%TD*%
D11*
%TO.C,R2*%
X98590000Y-86800000D03*
X99610000Y-86800000D03*
%TD*%
D22*
%TO.C,SW3*%
X99250000Y-79700000D03*
X99250000Y-72700000D03*
X94750000Y-72700000D03*
X94750000Y-79700000D03*
%TD*%
D23*
%TO.C,D10*%
X81300000Y-94050000D03*
X81300000Y-98350000D03*
%TD*%
D21*
%TO.C,Q4*%
X93375000Y-107050000D03*
X93375000Y-105150000D03*
X91500000Y-106100000D03*
%TD*%
D23*
%TO.C,D9*%
X82500000Y-108850000D03*
X82500000Y-104550000D03*
%TD*%
D24*
%TO.C,D2*%
X58882323Y-84500000D03*
X63182323Y-84500000D03*
%TD*%
D25*
%TO.C,R20*%
X66950000Y-76632323D03*
X73050000Y-76632323D03*
%TD*%
D26*
%TO.C,R23*%
X88110000Y-84300000D03*
X87090000Y-84300000D03*
%TD*%
%TO.C,R4*%
X116710000Y-95400000D03*
X115690000Y-95400000D03*
%TD*%
D27*
%TO.C,R24*%
X80800000Y-86350000D03*
X80800000Y-80250000D03*
%TD*%
D13*
%TO.C,C8*%
X55580000Y-62150000D03*
X54620000Y-62150000D03*
%TD*%
D28*
%TO.C,SW2*%
X138800000Y-73250000D03*
X131800000Y-73250000D03*
X138800000Y-77750000D03*
X131800000Y-77750000D03*
%TD*%
D13*
%TO.C,C5*%
X56980000Y-68550000D03*
X56020000Y-68550000D03*
%TD*%
D11*
%TO.C,R15*%
X87890000Y-77500000D03*
X88910000Y-77500000D03*
%TD*%
D12*
%TO.C,R1*%
X126500000Y-101810000D03*
X126500000Y-100790000D03*
%TD*%
D13*
%TO.C,C11*%
X90780000Y-74800000D03*
X89820000Y-74800000D03*
%TD*%
D29*
%TO.C,D11*%
X85550000Y-103000000D03*
X87650000Y-103000000D03*
%TD*%
D30*
%TO.C,U2*%
X123955000Y-98975000D03*
X125225000Y-98975000D03*
X126495000Y-98975000D03*
X127765000Y-98975000D03*
X129035000Y-98975000D03*
X130305000Y-98975000D03*
X131575000Y-98975000D03*
X132845000Y-98975000D03*
X132845000Y-94025000D03*
X131575000Y-94025000D03*
X130305000Y-94025000D03*
X129035000Y-94025000D03*
X127765000Y-94025000D03*
X126495000Y-94025000D03*
X125225000Y-94025000D03*
X123955000Y-94025000D03*
%TD*%
D11*
%TO.C,R21*%
X87090000Y-83200000D03*
X88110000Y-83200000D03*
%TD*%
%TO.C,R17*%
X101490000Y-92800000D03*
X102510000Y-92800000D03*
%TD*%
D26*
%TO.C,R7*%
X130810000Y-91400000D03*
X129790000Y-91400000D03*
%TD*%
D19*
%TO.C,R11*%
X86275000Y-78800000D03*
X87925000Y-78800000D03*
%TD*%
D11*
%TO.C,R5*%
X115690000Y-100000000D03*
X116710000Y-100000000D03*
%TD*%
D28*
%TO.C,SW1*%
X138800000Y-84650000D03*
X131800000Y-84650000D03*
X138800000Y-89150000D03*
X131800000Y-89150000D03*
%TD*%
D13*
%TO.C,C20*%
X67580000Y-69132323D03*
X66620000Y-69132323D03*
%TD*%
D31*
%TO.C,C3*%
X104900610Y-71675000D03*
X104900610Y-70125000D03*
%TD*%
D15*
%TO.C,C17*%
X99500000Y-96020000D03*
X99500000Y-96980000D03*
%TD*%
D29*
%TO.C,D1*%
X126150000Y-103700000D03*
X128250000Y-103700000D03*
%TD*%
D32*
%TO.C,U1*%
X109200000Y-70295000D03*
X109200000Y-71565000D03*
X109200000Y-72835000D03*
X109200000Y-74105000D03*
X109200000Y-75375000D03*
X109200000Y-76645000D03*
X109200000Y-77915000D03*
X109200000Y-79185000D03*
X109200000Y-80455000D03*
X109200000Y-81725000D03*
X109200000Y-82995000D03*
X109200000Y-84265000D03*
X109200000Y-85535000D03*
X109200000Y-86805000D03*
D33*
X111985000Y-87805000D03*
X113255000Y-87805000D03*
X114525000Y-87805000D03*
X115795000Y-87805000D03*
X117065000Y-87805000D03*
X118335000Y-87805000D03*
X119605000Y-87805000D03*
X120875000Y-87805000D03*
X122145000Y-87805000D03*
X123415000Y-87805000D03*
D32*
X126200000Y-86805000D03*
X126200000Y-85535000D03*
X126200000Y-84265000D03*
X126200000Y-82995000D03*
X126200000Y-81725000D03*
X126200000Y-80455000D03*
X126200000Y-79185000D03*
X126200000Y-77915000D03*
X126200000Y-76645000D03*
X126200000Y-75375000D03*
X126200000Y-74105000D03*
X126200000Y-72835000D03*
X126200000Y-71565000D03*
X126200000Y-70295000D03*
D34*
X116700000Y-77795000D03*
%TD*%
D20*
%TO.C,D4*%
X139187500Y-80900000D03*
X137612500Y-80900000D03*
%TD*%
D26*
%TO.C,R8*%
X132510000Y-71500000D03*
X131490000Y-71500000D03*
%TD*%
D23*
%TO.C,D6*%
X48400000Y-63950000D03*
X48400000Y-59650000D03*
%TD*%
D35*
%TO.C,C9*%
X56575000Y-60350000D03*
X53625000Y-60350000D03*
%TD*%
D36*
%TO.C,R25*%
X94200000Y-102790000D03*
X94200000Y-103810000D03*
%TD*%
D26*
%TO.C,R10*%
X91810000Y-72600000D03*
X90790000Y-72600000D03*
%TD*%
D19*
%TO.C,R14*%
X92375000Y-86500000D03*
X94025000Y-86500000D03*
%TD*%
D37*
%TO.C,C16*%
X102400000Y-106480000D03*
X102400000Y-105520000D03*
%TD*%
D38*
%TO.C,D3*%
X95712500Y-86800000D03*
X97287500Y-86800000D03*
%TD*%
D36*
%TO.C,R22*%
X94200000Y-100790000D03*
X94200000Y-101810000D03*
%TD*%
D26*
%TO.C,R6*%
X136410000Y-80900000D03*
X135390000Y-80900000D03*
%TD*%
D12*
%TO.C,R26*%
X68700000Y-70142323D03*
X68700000Y-69122323D03*
%TD*%
D37*
%TO.C,C14*%
X94400000Y-83680000D03*
X94400000Y-82720000D03*
%TD*%
%TO.C,C13*%
X89900000Y-77480000D03*
X89900000Y-76520000D03*
%TD*%
%TO.C,C7*%
X111700000Y-96680000D03*
X111700000Y-95720000D03*
%TD*%
%TO.C,C2*%
X122600000Y-97080000D03*
X122600000Y-96120000D03*
%TD*%
D15*
%TO.C,C15*%
X102400000Y-103520000D03*
X102400000Y-104480000D03*
%TD*%
D12*
%TO.C,R19*%
X102400000Y-102510000D03*
X102400000Y-101490000D03*
%TD*%
D37*
%TO.C,C1*%
X106200610Y-71380000D03*
X106200610Y-70420000D03*
%TD*%
D39*
%TO.C,J2*%
X135925000Y-97200000D03*
X135925000Y-96550000D03*
X135925000Y-95900000D03*
X135925000Y-95250000D03*
X135925000Y-94600000D03*
D40*
X138600000Y-96900000D03*
X138600000Y-94900000D03*
X138600000Y-98950000D03*
X138600000Y-92850000D03*
%TD*%
D41*
%TO.C,C6*%
X57450000Y-70150000D03*
X55550000Y-70150000D03*
%TD*%
D42*
%TO.C,U5*%
X68662500Y-71482323D03*
X68662500Y-72432323D03*
X68662500Y-73382323D03*
X70937500Y-73382323D03*
X70937500Y-71482323D03*
%TD*%
D12*
%TO.C,R3*%
X132500000Y-83110000D03*
X132500000Y-82090000D03*
%TD*%
M02*
