M48
; DRILL file {KiCad 6.0.5-a6ca702e91~116~ubuntu20.04.1} date Mon 27 Jun 2022 11:16:24 PM MDT
; FORMAT={-:-/ absolute / metric / decimal}
; #@! TF.CreationDate,2022-06-27T23:16:24-06:00
; #@! TF.GenerationSoftware,Kicad,Pcbnew,6.0.5-a6ca702e91~116~ubuntu20.04.1
; #@! TF.FileFunction,Plated,1,2,PTH
FMAT,2
METRIC
; #@! TA.AperFunction,Plated,PTH,ViaDrill
T1C0.400
; #@! TA.AperFunction,Plated,PTH,ViaDrill
T2C0.600
; #@! TA.AperFunction,Plated,PTH,ComponentDrill
T3C0.750
; #@! TA.AperFunction,Plated,PTH,ComponentDrill
T4C0.900
; #@! TA.AperFunction,Plated,PTH,ComponentDrill
T5C1.000
; #@! TA.AperFunction,Plated,PTH,ComponentDrill
T6C1.100
; #@! TA.AperFunction,Plated,PTH,ComponentDrill
T7C1.200
; #@! TA.AperFunction,Plated,PTH,ComponentDrill
T8C1.270
; #@! TA.AperFunction,Plated,PTH,ComponentDrill
T9C2.500
; #@! TA.AperFunction,Plated,PTH,ComponentDrill
T10C3.250
%
G90
G05
T1
X47.1Y-67.8
X47.1Y-77.2
X49.3Y-101.2
X50.2Y-107.6
X51.8Y-72.9
X53.9Y-81.7
X57.5Y-103.1
X58.5Y-108.6
X60.5Y-64.4
X63.5Y-68.5
X66.6Y-82.3
X67.9Y-105.0
X70.0Y-69.1
X70.0Y-76.1
X70.05Y-65.05
X70.6Y-89.0
X70.8Y-102.0
X74.2Y-59.1
X76.4Y-105.3
X80.8Y-59.1
X83.4Y-90.3
X85.3Y-78.8
X86.0Y-74.0
X87.1Y-59.1
X88.0Y-89.2
X89.0Y-84.3
X89.6Y-85.0
X90.2Y-102.0
X90.7Y-87.2
X90.864Y-71.9
X92.3Y-99.9
X93.0Y-71.7
X93.3Y-59.1
X93.3Y-76.4
X96.7Y-75.2
X97.0Y-81.8
X97.9Y-92.0
X101.3Y-71.5
X101.36Y-84.083
X101.5Y-106.4
X101.53Y-97.93
X101.53Y-103.47
X101.6Y-91.7
X102.5Y-68.5
X102.5Y-71.5
X102.5Y-91.8
X103.099Y-83.364
X103.775Y-70.125
X105.3Y-85.1
X106.0Y-75.3
X107.2Y-91.2
X107.375Y-70.125
X107.6Y-84.3
X108.1Y-97.0
X109.163Y-101.799
X110.1Y-103.4
X110.6Y-96.6
X110.9Y-72.9
X111.2Y-108.5
X111.305Y-70.295
X112.1Y-80.1
X112.8Y-85.4
X112.8Y-95.7
X113.3Y-73.5
X115.305Y-70.295
X115.6Y-76.6
X115.7Y-79.3
X116.7Y-77.795
X116.7Y-108.7
X117.6Y-92.8
X117.6Y-95.4
X118.2Y-85.4
X118.3Y-79.3
X118.4Y-76.6
X119.205Y-70.295
X120.5Y-72.9
X120.8Y-78.9
X120.8Y-96.7
X120.9Y-86.0
X121.1Y-99.8
X122.2Y-105.0
X122.4Y-73.0
X122.8Y-105.8
X122.9Y-80.5
X123.405Y-70.295
X123.6Y-101.0
X123.7Y-95.5
X124.6Y-75.4
X124.7Y-108.7
X125.2Y-102.7
X126.6Y-102.7
X127.9Y-74.1
X128.7Y-70.2
X128.9Y-91.3
X128.9Y-101.0
X129.7Y-85.5
X130.3Y-71.5
X130.3Y-79.2
X131.4Y-70.0
X131.4Y-76.4
X131.5Y-82.0
X132.5Y-108.2
X134.5Y-70.0
X138.1Y-70.0
X138.8Y-75.3
X138.8Y-79.4
X138.8Y-101.4
X138.9Y-86.8
X139.0Y-82.7
T2
X72.45Y-79.25
X75.468Y-76.632
X134.275Y-93.425
X136.5Y-100.3
T3
X101.53Y-95.44
X102.8Y-95.44
X104.07Y-95.44
T4
X135.9Y-93.4
X135.9Y-98.4
T5
X57.9Y-76.4
X59.235Y-59.4
X61.775Y-59.4
X62.9Y-76.4
X67.8Y-60.532
X67.8Y-65.532
X79.9Y-70.9
X79.9Y-75.9
X86.33Y-107.5
X88.87Y-107.5
X89.6Y-94.032
X89.6Y-99.032
X98.59Y-102.975
X98.59Y-105.515
X98.59Y-108.055
X106.4Y-103.0
X106.4Y-105.54
X106.4Y-108.08
T6
X53.9Y-66.25
X56.44Y-66.25
X58.98Y-66.25
X70.46Y-82.987
X73.0Y-82.987
X75.54Y-82.987
T7
X138.6Y-92.4
X138.6Y-99.4
T9
X86.0Y-64.3
X91.0Y-64.3
T10
X58.15Y-89.6
X65.85Y-89.6
T8
X51.63Y-94.925G85X47.67Y-94.925
G05
X59.53Y-94.925G85X55.57Y-94.925
G05
X68.93Y-94.925G85X64.97Y-94.925
G05
X76.83Y-94.925G85X72.87Y-94.925
G05
T0
M30
