%TF.GenerationSoftware,KiCad,Pcbnew,6.0.5-a6ca702e91~116~ubuntu20.04.1*%
%TF.CreationDate,2022-06-27T23:16:15-06:00*%
%TF.ProjectId,trailer-power-controller,74726169-6c65-4722-9d70-6f7765722d63,rev?*%
%TF.SameCoordinates,Original*%
%TF.FileFunction,Legend,Bot*%
%TF.FilePolarity,Positive*%
%FSLAX46Y46*%
G04 Gerber Fmt 4.6, Leading zero omitted, Abs format (unit mm)*
G04 Created by KiCad (PCBNEW 6.0.5-a6ca702e91~116~ubuntu20.04.1) date 2022-06-27 23:16:15*
%MOMM*%
%LPD*%
G01*
G04 APERTURE LIST*
G04 Aperture macros list*
%AMRoundRect*
0 Rectangle with rounded corners*
0 $1 Rounding radius*
0 $2 $3 $4 $5 $6 $7 $8 $9 X,Y pos of 4 corners*
0 Add a 4 corners polygon primitive as box body*
4,1,4,$2,$3,$4,$5,$6,$7,$8,$9,$2,$3,0*
0 Add four circle primitives for the rounded corners*
1,1,$1+$1,$2,$3*
1,1,$1+$1,$4,$5*
1,1,$1+$1,$6,$7*
1,1,$1+$1,$8,$9*
0 Add four rect primitives between the rounded corners*
20,1,$1+$1,$2,$3,$4,$5,0*
20,1,$1+$1,$4,$5,$6,$7,0*
20,1,$1+$1,$6,$7,$8,$9,0*
20,1,$1+$1,$8,$9,$2,$3,0*%
G04 Aperture macros list end*
%ADD10C,0.150000*%
%ADD11C,1.000000*%
%ADD12C,3.400000*%
%ADD13O,1.700000X1.700000*%
%ADD14R,1.700000X1.700000*%
%ADD15O,1.050000X1.500000*%
%ADD16R,1.050000X1.500000*%
%ADD17O,1.905000X2.000000*%
%ADD18R,1.905000X2.000000*%
%ADD19R,2.000000X2.000000*%
%ADD20C,2.000000*%
%ADD21O,6.030000X2.070000*%
%ADD22RoundRect,0.265625X-1.859375X-1.859375X1.859375X-1.859375X1.859375X1.859375X-1.859375X1.859375X0*%
%ADD23C,4.250000*%
%ADD24C,3.200000*%
%ADD25C,1.408000*%
%ADD26C,1.800000*%
G04 APERTURE END LIST*
D10*
X64861904Y-92728571D02*
X64719047Y-92776190D01*
X64671428Y-92823809D01*
X64623809Y-92919047D01*
X64623809Y-93061904D01*
X64671428Y-93157142D01*
X64719047Y-93204761D01*
X64814285Y-93252380D01*
X65195238Y-93252380D01*
X65195238Y-92252380D01*
X64861904Y-92252380D01*
X64766666Y-92300000D01*
X64719047Y-92347619D01*
X64671428Y-92442857D01*
X64671428Y-92538095D01*
X64719047Y-92633333D01*
X64766666Y-92680952D01*
X64861904Y-92728571D01*
X65195238Y-92728571D01*
X63623809Y-93252380D02*
X63957142Y-92776190D01*
X64195238Y-93252380D02*
X64195238Y-92252380D01*
X63814285Y-92252380D01*
X63719047Y-92300000D01*
X63671428Y-92347619D01*
X63623809Y-92442857D01*
X63623809Y-92585714D01*
X63671428Y-92680952D01*
X63719047Y-92728571D01*
X63814285Y-92776190D01*
X64195238Y-92776190D01*
X63195238Y-92728571D02*
X62861904Y-92728571D01*
X62719047Y-93252380D02*
X63195238Y-93252380D01*
X63195238Y-92252380D01*
X62719047Y-92252380D01*
X62338095Y-92966666D02*
X61861904Y-92966666D01*
X62433333Y-93252380D02*
X62100000Y-92252380D01*
X61766666Y-93252380D01*
X61433333Y-93252380D02*
X61433333Y-92252380D01*
X60861904Y-93252380D02*
X61290476Y-92680952D01*
X60861904Y-92252380D02*
X61433333Y-92823809D01*
X60433333Y-92728571D02*
X60100000Y-92728571D01*
X59957142Y-93252380D02*
X60433333Y-93252380D01*
X60433333Y-92252380D01*
X59957142Y-92252380D01*
X58957142Y-93252380D02*
X59290476Y-92776190D01*
X59528571Y-93252380D02*
X59528571Y-92252380D01*
X59147619Y-92252380D01*
X59052380Y-92300000D01*
X59004761Y-92347619D01*
X58957142Y-92442857D01*
X58957142Y-92585714D01*
X59004761Y-92680952D01*
X59052380Y-92728571D01*
X59147619Y-92776190D01*
X59528571Y-92776190D01*
X66423809Y-86852380D02*
X66423809Y-85852380D01*
X65947619Y-86852380D02*
X65947619Y-85852380D01*
X65376190Y-86852380D01*
X65376190Y-85852380D01*
X59200000Y-85852380D02*
X59009523Y-85852380D01*
X58914285Y-85900000D01*
X58819047Y-85995238D01*
X58771428Y-86185714D01*
X58771428Y-86519047D01*
X58819047Y-86709523D01*
X58914285Y-86804761D01*
X59009523Y-86852380D01*
X59200000Y-86852380D01*
X59295238Y-86804761D01*
X59390476Y-86709523D01*
X59438095Y-86519047D01*
X59438095Y-86185714D01*
X59390476Y-85995238D01*
X59295238Y-85900000D01*
X59200000Y-85852380D01*
X58342857Y-85852380D02*
X58342857Y-86661904D01*
X58295238Y-86757142D01*
X58247619Y-86804761D01*
X58152380Y-86852380D01*
X57961904Y-86852380D01*
X57866666Y-86804761D01*
X57819047Y-86757142D01*
X57771428Y-86661904D01*
X57771428Y-85852380D01*
X57438095Y-85852380D02*
X56866666Y-85852380D01*
X57152380Y-86852380D02*
X57152380Y-85852380D01*
X60038095Y-61052380D02*
X59419047Y-61052380D01*
X59752380Y-61433333D01*
X59609523Y-61433333D01*
X59514285Y-61480952D01*
X59466666Y-61528571D01*
X59419047Y-61623809D01*
X59419047Y-61861904D01*
X59466666Y-61957142D01*
X59514285Y-62004761D01*
X59609523Y-62052380D01*
X59895238Y-62052380D01*
X59990476Y-62004761D01*
X60038095Y-61957142D01*
X59133333Y-61052380D02*
X58800000Y-62052380D01*
X58466666Y-61052380D01*
X58228571Y-61052380D02*
X57609523Y-61052380D01*
X57942857Y-61433333D01*
X57800000Y-61433333D01*
X57704761Y-61480952D01*
X57657142Y-61528571D01*
X57609523Y-61623809D01*
X57609523Y-61861904D01*
X57657142Y-61957142D01*
X57704761Y-62004761D01*
X57800000Y-62052380D01*
X58085714Y-62052380D01*
X58180952Y-62004761D01*
X58228571Y-61957142D01*
X62961904Y-61100000D02*
X63057142Y-61052380D01*
X63200000Y-61052380D01*
X63342857Y-61100000D01*
X63438095Y-61195238D01*
X63485714Y-61290476D01*
X63533333Y-61480952D01*
X63533333Y-61623809D01*
X63485714Y-61814285D01*
X63438095Y-61909523D01*
X63342857Y-62004761D01*
X63200000Y-62052380D01*
X63104761Y-62052380D01*
X62961904Y-62004761D01*
X62914285Y-61957142D01*
X62914285Y-61623809D01*
X63104761Y-61623809D01*
X62485714Y-62052380D02*
X62485714Y-61052380D01*
X61914285Y-62052380D01*
X61914285Y-61052380D01*
X61438095Y-62052380D02*
X61438095Y-61052380D01*
X61200000Y-61052380D01*
X61057142Y-61100000D01*
X60961904Y-61195238D01*
X60914285Y-61290476D01*
X60866666Y-61480952D01*
X60866666Y-61623809D01*
X60914285Y-61814285D01*
X60961904Y-61909523D01*
X61057142Y-62004761D01*
X61200000Y-62052380D01*
X61438095Y-62052380D01*
%LPC*%
D11*
%TO.C,BZ1*%
X88500000Y-60550000D03*
X88500000Y-68050000D03*
D12*
X91000000Y-64300000D03*
X86000000Y-64300000D03*
%TD*%
D13*
%TO.C,J9*%
X59235000Y-59400000D03*
D14*
X61775000Y-59400000D03*
%TD*%
D15*
%TO.C,U4*%
X101530000Y-95440000D03*
X102800000Y-95440000D03*
D16*
X104070000Y-95440000D03*
%TD*%
D17*
%TO.C,U3*%
X58980000Y-66250000D03*
X56440000Y-66250000D03*
D18*
X53900000Y-66250000D03*
%TD*%
D19*
%TO.C,C18*%
X79900000Y-75900000D03*
D20*
X79900000Y-70900000D03*
%TD*%
D21*
%TO.C,J1*%
X57550000Y-94925000D03*
X49650000Y-94925000D03*
%TD*%
%TO.C,J7*%
X74850000Y-94925000D03*
X66950000Y-94925000D03*
%TD*%
D13*
%TO.C,J5*%
X98590000Y-108055000D03*
X98590000Y-105515000D03*
D14*
X98590000Y-102975000D03*
%TD*%
D20*
%TO.C,C10*%
X67800000Y-65532323D03*
D19*
X67800000Y-60532323D03*
%TD*%
D14*
%TO.C,J6*%
X88870000Y-107500000D03*
D13*
X86330000Y-107500000D03*
%TD*%
%TO.C,J4*%
X106400000Y-108080000D03*
X106400000Y-105540000D03*
D14*
X106400000Y-103000000D03*
%TD*%
D22*
%TO.C,J3*%
X58150000Y-89600000D03*
D23*
X65850000Y-89600000D03*
%TD*%
D24*
%TO.C,H3*%
X136500000Y-61300000D03*
%TD*%
D19*
%TO.C,C21*%
X89600000Y-94032323D03*
D20*
X89600000Y-99032323D03*
%TD*%
D18*
%TO.C,Q5*%
X75540000Y-82987323D03*
D17*
X73000000Y-82987323D03*
X70460000Y-82987323D03*
%TD*%
D25*
%TO.C,J2*%
X135900000Y-98400000D03*
X135900000Y-93400000D03*
D26*
X138600000Y-99400000D03*
X138600000Y-92400000D03*
%TD*%
D24*
%TO.C,H4*%
X77700000Y-61500000D03*
%TD*%
D19*
%TO.C,C4*%
X62900000Y-76400000D03*
D20*
X57900000Y-76400000D03*
%TD*%
D24*
%TO.C,H1*%
X49400000Y-85000000D03*
%TD*%
%TO.C,H2*%
X136500000Y-106800000D03*
%TD*%
M02*
