%TF.GenerationSoftware,KiCad,Pcbnew,6.0.5-a6ca702e91~116~ubuntu20.04.1*%
%TF.CreationDate,2022-06-30T20:33:51-06:00*%
%TF.ProjectId,trailer-power-controller,74726169-6c65-4722-9d70-6f7765722d63,rev?*%
%TF.SameCoordinates,Original*%
%TF.FileFunction,Copper,L2,Bot*%
%TF.FilePolarity,Positive*%
%FSLAX46Y46*%
G04 Gerber Fmt 4.6, Leading zero omitted, Abs format (unit mm)*
G04 Created by KiCad (PCBNEW 6.0.5-a6ca702e91~116~ubuntu20.04.1) date 2022-06-30 20:33:51*
%MOMM*%
%LPD*%
G01*
G04 APERTURE LIST*
G04 Aperture macros list*
%AMRoundRect*
0 Rectangle with rounded corners*
0 $1 Rounding radius*
0 $2 $3 $4 $5 $6 $7 $8 $9 X,Y pos of 4 corners*
0 Add a 4 corners polygon primitive as box body*
4,1,4,$2,$3,$4,$5,$6,$7,$8,$9,$2,$3,0*
0 Add four circle primitives for the rounded corners*
1,1,$1+$1,$2,$3*
1,1,$1+$1,$4,$5*
1,1,$1+$1,$6,$7*
1,1,$1+$1,$8,$9*
0 Add four rect primitives between the rounded corners*
20,1,$1+$1,$2,$3,$4,$5,0*
20,1,$1+$1,$4,$5,$6,$7,0*
20,1,$1+$1,$6,$7,$8,$9,0*
20,1,$1+$1,$8,$9,$2,$3,0*%
G04 Aperture macros list end*
%TA.AperFunction,ComponentPad*%
%ADD10R,1.050000X1.500000*%
%TD*%
%TA.AperFunction,ComponentPad*%
%ADD11O,1.050000X1.500000*%
%TD*%
%TA.AperFunction,ComponentPad*%
%ADD12R,1.905000X2.000000*%
%TD*%
%TA.AperFunction,ComponentPad*%
%ADD13O,1.905000X2.000000*%
%TD*%
%TA.AperFunction,ComponentPad*%
%ADD14R,2.000000X2.000000*%
%TD*%
%TA.AperFunction,ComponentPad*%
%ADD15C,2.000000*%
%TD*%
%TA.AperFunction,ComponentPad*%
%ADD16R,1.700000X1.700000*%
%TD*%
%TA.AperFunction,ComponentPad*%
%ADD17O,1.700000X1.700000*%
%TD*%
%TA.AperFunction,ComponentPad*%
%ADD18C,3.400000*%
%TD*%
%TA.AperFunction,ComponentPad*%
%ADD19O,6.030000X2.070000*%
%TD*%
%TA.AperFunction,ComponentPad*%
%ADD20RoundRect,0.265625X-1.859375X-1.859375X1.859375X-1.859375X1.859375X1.859375X-1.859375X1.859375X0*%
%TD*%
%TA.AperFunction,ComponentPad*%
%ADD21C,4.250000*%
%TD*%
%TA.AperFunction,ComponentPad*%
%ADD22C,1.408000*%
%TD*%
%TA.AperFunction,ComponentPad*%
%ADD23C,1.800000*%
%TD*%
%TA.AperFunction,ViaPad*%
%ADD24C,0.800000*%
%TD*%
%TA.AperFunction,ViaPad*%
%ADD25C,0.600000*%
%TD*%
%TA.AperFunction,ViaPad*%
%ADD26C,1.000000*%
%TD*%
%TA.AperFunction,Conductor*%
%ADD27C,0.200000*%
%TD*%
%TA.AperFunction,Conductor*%
%ADD28C,3.000000*%
%TD*%
%TA.AperFunction,Conductor*%
%ADD29C,1.000000*%
%TD*%
%TA.AperFunction,Conductor*%
%ADD30C,0.250000*%
%TD*%
%TA.AperFunction,Conductor*%
%ADD31C,4.000000*%
%TD*%
%TA.AperFunction,Conductor*%
%ADD32C,2.000000*%
%TD*%
G04 APERTURE END LIST*
D10*
%TO.P,U4,1,GND*%
%TO.N,GND*%
X104070000Y-95440000D03*
D11*
%TO.P,U4,2,DQ*%
%TO.N,/TEMP_INTERAL*%
X102800000Y-95440000D03*
%TO.P,U4,3,VDD*%
%TO.N,+3V3*%
X101530000Y-95440000D03*
%TD*%
D12*
%TO.P,U3,1,GND*%
%TO.N,GND*%
X53900000Y-66250000D03*
D13*
%TO.P,U3,2,VO*%
%TO.N,+3V3*%
X56440000Y-66250000D03*
%TO.P,U3,3,VI*%
%TO.N,/VEHICLE+*%
X58980000Y-66250000D03*
%TD*%
D14*
%TO.P,C18,1*%
%TO.N,Net-(C18-Pad1)*%
X79900000Y-75900000D03*
D15*
%TO.P,C18,2*%
%TO.N,GND*%
X79900000Y-70900000D03*
%TD*%
D16*
%TO.P,J9,1,Pin_1*%
%TO.N,GND*%
X61775000Y-59400000D03*
D17*
%TO.P,J9,2,Pin_2*%
%TO.N,+3V3*%
X59235000Y-59400000D03*
%TD*%
D18*
%TO.P,BZ1,1,-*%
%TO.N,Net-(BZ1-Pad1)*%
X91000000Y-64300000D03*
%TO.P,BZ1,2,+*%
%TO.N,GND*%
X86000000Y-64300000D03*
%TD*%
D19*
%TO.P,J1,1*%
%TO.N,Net-(J1-Pad1)*%
X57550000Y-94925000D03*
%TO.P,J1,2*%
%TO.N,GND*%
X49650000Y-94925000D03*
%TD*%
%TO.P,J7,1*%
%TO.N,/BATTERY+*%
X74850000Y-94925000D03*
%TO.P,J7,2*%
%TO.N,GND*%
X66950000Y-94925000D03*
%TD*%
D16*
%TO.P,J5,1,Pin_1*%
%TO.N,+3V3*%
X98590000Y-102975000D03*
D17*
%TO.P,J5,2,Pin_2*%
%TO.N,/TEMP_AUX*%
X98590000Y-105515000D03*
%TO.P,J5,3,Pin_3*%
%TO.N,GND*%
X98590000Y-108055000D03*
%TD*%
D14*
%TO.P,C10,1*%
%TO.N,+3V3*%
X67800000Y-60532323D03*
D15*
%TO.P,C10,2*%
%TO.N,GND*%
X67800000Y-65532323D03*
%TD*%
D16*
%TO.P,J6,1,Pin_1*%
%TO.N,/RELAY_OUT*%
X88870000Y-107500000D03*
D17*
%TO.P,J6,2,Pin_2*%
%TO.N,/VEHICLE+*%
X86330000Y-107500000D03*
%TD*%
D16*
%TO.P,J4,1,Pin_1*%
%TO.N,+3V3*%
X106400000Y-103000000D03*
D17*
%TO.P,J4,2,Pin_2*%
%TO.N,/TEMP_EXTERNAL*%
X106400000Y-105540000D03*
%TO.P,J4,3,Pin_3*%
%TO.N,GND*%
X106400000Y-108080000D03*
%TD*%
D20*
%TO.P,J3,1,Pin_1*%
%TO.N,Net-(J1-Pad1)*%
X58150000Y-89600000D03*
D21*
%TO.P,J3,2,Pin_2*%
%TO.N,/VEHICLE+*%
X65850000Y-89600000D03*
%TD*%
D14*
%TO.P,C21,1*%
%TO.N,/BATTERY+*%
X89600000Y-94032323D03*
D15*
%TO.P,C21,2*%
%TO.N,GND*%
X89600000Y-99032323D03*
%TD*%
D12*
%TO.P,Q5,1,G*%
%TO.N,Net-(Q3-Pad3)*%
X75540000Y-82987323D03*
D13*
%TO.P,Q5,2,D*%
%TO.N,/BATTERY+*%
X73000000Y-82987323D03*
%TO.P,Q5,3,S*%
%TO.N,Net-(C18-Pad1)*%
X70460000Y-82987323D03*
%TD*%
D22*
%TO.P,J2,P$6*%
%TO.N,N/C*%
X135900000Y-98400000D03*
%TO.P,J2,P$7*%
X135900000Y-93400000D03*
D23*
%TO.P,J2,P$8*%
X138600000Y-99400000D03*
%TO.P,J2,P$9*%
X138600000Y-92400000D03*
%TD*%
D14*
%TO.P,C4,1*%
%TO.N,/VEHICLE+*%
X62900000Y-76400000D03*
D15*
%TO.P,C4,2*%
%TO.N,GND*%
X57900000Y-76400000D03*
%TD*%
D24*
%TO.N,+3V3*%
X70000000Y-65000000D03*
%TO.N,Net-(BZ1-Pad1)*%
X90864122Y-71899500D03*
D25*
%TO.N,GND*%
X80800000Y-59100000D03*
X115600000Y-76600000D03*
X47100000Y-67800000D03*
X112800000Y-95700000D03*
X132500000Y-108200000D03*
X116700000Y-77795000D03*
X112800000Y-85400000D03*
X47100000Y-77200000D03*
X53900000Y-81700000D03*
X115305000Y-70295000D03*
X58500000Y-108600000D03*
X115700000Y-79300000D03*
X128700000Y-70200000D03*
X138900000Y-86800000D03*
X90700000Y-87200000D03*
X66600000Y-82300000D03*
X121100000Y-99800000D03*
X112100000Y-80100000D03*
X107200000Y-91200000D03*
X120800000Y-78900000D03*
X93300000Y-59100000D03*
X108100000Y-97000000D03*
X83400000Y-90300000D03*
X118300000Y-79300000D03*
X131400000Y-70000000D03*
X138800000Y-79400000D03*
X105300000Y-85100000D03*
X138800000Y-101400000D03*
X128900000Y-101000000D03*
X96700000Y-75200000D03*
D26*
X134275000Y-93425000D03*
D25*
X51800000Y-72900000D03*
X97900000Y-92000000D03*
D26*
X136500000Y-100300000D03*
D25*
X120500000Y-72900000D03*
X113300000Y-73500000D03*
X138800000Y-75300000D03*
X139000000Y-82700000D03*
X124700000Y-108700000D03*
X57500000Y-103100000D03*
X116700000Y-108700000D03*
X70000000Y-76100000D03*
X97000000Y-81800000D03*
X118200000Y-85400000D03*
X138100000Y-70000000D03*
X107375000Y-70125000D03*
X118400000Y-76600000D03*
X49300000Y-101200000D03*
X111305000Y-70295000D03*
X74200000Y-59100000D03*
X70600000Y-89000000D03*
X123405000Y-70295000D03*
X134500000Y-70000000D03*
X111200000Y-108500000D03*
X67900000Y-105000000D03*
X87100000Y-59100000D03*
X119205000Y-70295000D03*
X76400000Y-105300000D03*
X63500000Y-68500000D03*
X50200000Y-107600000D03*
D24*
X60500000Y-64400000D03*
D25*
X106000000Y-75300000D03*
X103775000Y-70125000D03*
D24*
%TO.N,+3V3*%
X102500000Y-68500000D03*
X102500000Y-71500000D03*
D25*
X101530000Y-103470000D03*
X101530000Y-97930000D03*
X101600000Y-91700000D03*
X110100000Y-103400000D03*
X101500000Y-106400000D03*
X70000000Y-69100000D03*
%TO.N,/VEHICLE+*%
X86000000Y-74000000D03*
D24*
X90200000Y-102000000D03*
D25*
X70800000Y-102000000D03*
D24*
X92300000Y-99900000D03*
D25*
X85300000Y-78800000D03*
%TO.N,/EN*%
X110600000Y-96600000D03*
X110900000Y-72900000D03*
D26*
%TO.N,Net-(C18-Pad1)*%
X75467677Y-76632323D03*
X72450000Y-79250000D03*
D25*
%TO.N,/LOAD_SENSE*%
X93000000Y-71700000D03*
X93300000Y-76400000D03*
%TO.N,/BATTERY+*%
X89600000Y-85000000D03*
%TO.N,/TEMP_EXTERNAL*%
X109163245Y-101799500D03*
X107600000Y-84300000D03*
%TO.N,/TEMP_AUX*%
X122900000Y-80500000D03*
X122800000Y-105800000D03*
%TO.N,/USB_RTS*%
X123700000Y-95500000D03*
X123600000Y-101000000D03*
%TO.N,/IO0*%
X120800000Y-96700000D03*
X120900000Y-86000000D03*
%TO.N,/USB_DTR*%
X117600000Y-95400000D03*
X117600000Y-92800000D03*
%TO.N,Net-(R1-Pad1)*%
X127900000Y-74100000D03*
X126600000Y-102700000D03*
%TO.N,Net-(R3-Pad2)*%
X131400000Y-76400000D03*
X131500000Y-82000000D03*
%TO.N,Net-(R7-Pad2)*%
X128900000Y-91300000D03*
X129700000Y-85500000D03*
%TO.N,Net-(R8-Pad2)*%
X130300000Y-71500000D03*
X130300000Y-79200000D03*
D24*
%TO.N,/BUZZER*%
X101300000Y-71500000D03*
D25*
X101360313Y-84083023D03*
%TO.N,/TEMP_INTERAL*%
X102500000Y-91800000D03*
X103099500Y-83364068D03*
%TO.N,/CHARGE_EN*%
X88000000Y-89200000D03*
X89000000Y-84300000D03*
%TO.N,/RELAY_EN*%
X122400000Y-73000000D03*
X122200000Y-105000000D03*
%TO.N,Net-(R27-Pad1)*%
X124600000Y-75400000D03*
X125200000Y-102700000D03*
%TD*%
D27*
%TO.N,Net-(BZ1-Pad1)*%
X91000000Y-64300000D02*
X91000000Y-71763622D01*
X91000000Y-71763622D02*
X90864122Y-71899500D01*
D28*
%TO.N,GND*%
X79700499Y-71099501D02*
X79900000Y-70900000D01*
X57900000Y-74985787D02*
X61786286Y-71099501D01*
X57900000Y-76400000D02*
X57900000Y-74985787D01*
D29*
X53900000Y-66250000D02*
X55750000Y-64400000D01*
D28*
X61786286Y-71099501D02*
X79700499Y-71099501D01*
D29*
X55750000Y-64400000D02*
X60500000Y-64400000D01*
D27*
%TO.N,+3V3*%
X101530000Y-106370000D02*
X101500000Y-106400000D01*
X70000000Y-65100000D02*
X70050000Y-65050000D01*
D30*
X102400000Y-90900000D02*
X101600000Y-91700000D01*
D27*
X109700000Y-103000000D02*
X106400000Y-103000000D01*
D30*
X102400000Y-71600000D02*
X102400000Y-90900000D01*
D27*
X110100000Y-103400000D02*
X109700000Y-103000000D01*
D30*
X102500000Y-71500000D02*
X102400000Y-71600000D01*
D27*
X101530000Y-95440000D02*
X101530000Y-106370000D01*
D29*
X102500000Y-68500000D02*
X102500000Y-71500000D01*
D27*
X70000000Y-69100000D02*
X70000000Y-65100000D01*
D29*
%TO.N,/VEHICLE+*%
X92300000Y-99900000D02*
X90200000Y-102000000D01*
D27*
X86000000Y-74000000D02*
X86000000Y-78100000D01*
D29*
X66400000Y-89600000D02*
X70700000Y-93900000D01*
D31*
X62900000Y-86650000D02*
X62900000Y-84300000D01*
D29*
X65850000Y-89600000D02*
X66400000Y-89600000D01*
D31*
X65850000Y-89600000D02*
X62900000Y-86650000D01*
D28*
X62900000Y-84300000D02*
X62900000Y-76400000D01*
D31*
X62900000Y-86650000D02*
X62900000Y-76400000D01*
D28*
X65850000Y-89600000D02*
X65850000Y-87250000D01*
D27*
X86000000Y-78100000D02*
X85300000Y-78800000D01*
D28*
X65850000Y-87250000D02*
X62900000Y-84300000D01*
D29*
X70700000Y-93900000D02*
X70700000Y-101900000D01*
X70700000Y-101900000D02*
X70800000Y-102000000D01*
D27*
%TO.N,/EN*%
X110600000Y-96600000D02*
X110600000Y-73200000D01*
X110600000Y-73200000D02*
X110900000Y-72900000D01*
D31*
%TO.N,Net-(C18-Pad1)*%
X79900000Y-75900000D02*
X75000000Y-75900000D01*
D32*
X70600000Y-82847323D02*
X70460000Y-82987323D01*
D31*
X75000000Y-75900000D02*
X70600000Y-80300000D01*
D28*
X70600000Y-80300000D02*
X70600000Y-81569626D01*
D32*
X70600000Y-80300000D02*
X70600000Y-82847323D01*
D27*
%TO.N,/LOAD_SENSE*%
X93000000Y-76100000D02*
X93300000Y-76400000D01*
X93000000Y-71700000D02*
X93000000Y-76100000D01*
D31*
%TO.N,/BATTERY+*%
X74850000Y-86550000D02*
X74486834Y-86186834D01*
D28*
X74850000Y-94925000D02*
X88707323Y-94925000D01*
D31*
X74850000Y-94925000D02*
X74850000Y-86550000D01*
D32*
X73000000Y-82987323D02*
X73000000Y-84700000D01*
X73000000Y-84700000D02*
X73900000Y-85600000D01*
D27*
X89600000Y-94032323D02*
X89600000Y-85000000D01*
D28*
X88707323Y-94925000D02*
X89600000Y-94032323D01*
X74850000Y-86550000D02*
X73900000Y-85600000D01*
%TO.N,Net-(J1-Pad1)*%
X57550000Y-94925000D02*
X57550000Y-90200000D01*
X57550000Y-90200000D02*
X58150000Y-89600000D01*
D27*
%TO.N,/TEMP_EXTERNAL*%
X107600000Y-84300000D02*
X109100000Y-85800000D01*
X109100000Y-101736255D02*
X109163245Y-101799500D01*
X109100000Y-85800000D02*
X109100000Y-101736255D01*
%TO.N,/TEMP_AUX*%
X122800000Y-105800000D02*
X122800000Y-80600000D01*
X122800000Y-80600000D02*
X122900000Y-80500000D01*
%TO.N,/USB_RTS*%
X123600000Y-95600000D02*
X123700000Y-95500000D01*
X123600000Y-101000000D02*
X123600000Y-95600000D01*
%TO.N,/IO0*%
X120800000Y-96700000D02*
X120800000Y-86100000D01*
X120800000Y-86100000D02*
X120900000Y-86000000D01*
%TO.N,/USB_DTR*%
X117600000Y-95400000D02*
X117600000Y-92800000D01*
%TO.N,Net-(R1-Pad1)*%
X126600000Y-102700000D02*
X126600000Y-75400000D01*
X126600000Y-75400000D02*
X127900000Y-74100000D01*
%TO.N,Net-(R3-Pad2)*%
X131500000Y-82000000D02*
X131500000Y-76500000D01*
X131500000Y-76500000D02*
X131400000Y-76400000D01*
%TO.N,Net-(R7-Pad2)*%
X129700000Y-85500000D02*
X129700000Y-90500000D01*
X129700000Y-90500000D02*
X128900000Y-91300000D01*
%TO.N,Net-(R8-Pad2)*%
X130300000Y-71500000D02*
X130300000Y-79200000D01*
%TO.N,/BUZZER*%
X101300000Y-84022710D02*
X101360313Y-84083023D01*
X101300000Y-71500000D02*
X101300000Y-84022710D01*
%TO.N,/TEMP_INTERAL*%
X102500000Y-91800000D02*
X103099500Y-91200500D01*
X103099500Y-91200500D02*
X103099500Y-83364068D01*
%TO.N,/CHARGE_EN*%
X88000000Y-89200000D02*
X88000000Y-85300000D01*
X88000000Y-85300000D02*
X89000000Y-84300000D01*
%TO.N,/RELAY_EN*%
X122200000Y-105000000D02*
X122200000Y-73200000D01*
X122200000Y-73200000D02*
X122400000Y-73000000D01*
%TO.N,Net-(R27-Pad1)*%
X125200000Y-102700000D02*
X125200000Y-76100000D01*
X124600000Y-75500000D02*
X124600000Y-75400000D01*
X125200000Y-76100000D02*
X124600000Y-75500000D01*
%TD*%
%TA.AperFunction,Conductor*%
%TO.N,GND*%
G36*
X58382867Y-58128502D02*
G01*
X58429360Y-58182158D01*
X58439464Y-58252432D01*
X58409970Y-58317012D01*
X58390399Y-58335260D01*
X58329965Y-58380635D01*
X58290128Y-58422322D01*
X58237658Y-58477229D01*
X58175629Y-58542138D01*
X58049743Y-58726680D01*
X57955688Y-58929305D01*
X57895989Y-59144570D01*
X57872251Y-59366695D01*
X57872548Y-59371848D01*
X57872548Y-59371851D01*
X57882330Y-59541500D01*
X57885110Y-59589715D01*
X57886247Y-59594761D01*
X57886248Y-59594767D01*
X57900606Y-59658475D01*
X57934222Y-59807639D01*
X58018266Y-60014616D01*
X58020965Y-60019020D01*
X58113719Y-60170381D01*
X58134987Y-60205088D01*
X58281250Y-60373938D01*
X58453126Y-60516632D01*
X58646000Y-60629338D01*
X58854692Y-60709030D01*
X58859760Y-60710061D01*
X58859763Y-60710062D01*
X58967017Y-60731883D01*
X59073597Y-60753567D01*
X59078772Y-60753757D01*
X59078774Y-60753757D01*
X59291673Y-60761564D01*
X59291677Y-60761564D01*
X59296837Y-60761753D01*
X59301957Y-60761097D01*
X59301959Y-60761097D01*
X59513288Y-60734025D01*
X59513289Y-60734025D01*
X59518416Y-60733368D01*
X59523366Y-60731883D01*
X59727429Y-60670661D01*
X59727434Y-60670659D01*
X59732384Y-60669174D01*
X59932994Y-60570896D01*
X60114860Y-60441173D01*
X60182331Y-60373938D01*
X60223479Y-60332933D01*
X60285851Y-60299017D01*
X60356658Y-60304205D01*
X60413419Y-60346851D01*
X60430401Y-60377954D01*
X60471676Y-60488054D01*
X60480214Y-60503649D01*
X60556715Y-60605724D01*
X60569276Y-60618285D01*
X60671351Y-60694786D01*
X60686946Y-60703324D01*
X60807394Y-60748478D01*
X60822649Y-60752105D01*
X60873514Y-60757631D01*
X60880328Y-60758000D01*
X61502885Y-60758000D01*
X61518124Y-60753525D01*
X61519329Y-60752135D01*
X61521000Y-60744452D01*
X61521000Y-60739884D01*
X62029000Y-60739884D01*
X62033475Y-60755123D01*
X62034865Y-60756328D01*
X62042548Y-60757999D01*
X62669669Y-60757999D01*
X62676490Y-60757629D01*
X62727352Y-60752105D01*
X62742604Y-60748479D01*
X62863054Y-60703324D01*
X62878649Y-60694786D01*
X62980724Y-60618285D01*
X62993285Y-60605724D01*
X63069786Y-60503649D01*
X63078324Y-60488054D01*
X63123478Y-60367606D01*
X63127105Y-60352351D01*
X63132631Y-60301486D01*
X63133000Y-60294672D01*
X63133000Y-59672115D01*
X63128525Y-59656876D01*
X63127135Y-59655671D01*
X63119452Y-59654000D01*
X62047115Y-59654000D01*
X62031876Y-59658475D01*
X62030671Y-59659865D01*
X62029000Y-59667548D01*
X62029000Y-60739884D01*
X61521000Y-60739884D01*
X61521000Y-59272000D01*
X61541002Y-59203879D01*
X61594658Y-59157386D01*
X61647000Y-59146000D01*
X63114884Y-59146000D01*
X63130123Y-59141525D01*
X63131328Y-59140135D01*
X63132999Y-59132452D01*
X63132999Y-58505331D01*
X63132629Y-58498510D01*
X63127105Y-58447648D01*
X63123479Y-58432396D01*
X63078321Y-58311939D01*
X63069052Y-58295008D01*
X63053883Y-58225651D01*
X63078620Y-58159103D01*
X63135408Y-58116493D01*
X63179572Y-58108500D01*
X94874000Y-58108500D01*
X94942121Y-58128502D01*
X94988614Y-58182158D01*
X95000000Y-58234500D01*
X95000000Y-69000000D01*
X101365500Y-69000000D01*
X101433621Y-69020002D01*
X101480114Y-69073658D01*
X101491500Y-69126000D01*
X101491500Y-70465500D01*
X101471498Y-70533621D01*
X101417842Y-70580114D01*
X101365500Y-70591500D01*
X101204513Y-70591500D01*
X101198061Y-70592872D01*
X101198056Y-70592872D01*
X101111113Y-70611353D01*
X101017712Y-70631206D01*
X101011682Y-70633891D01*
X101011681Y-70633891D01*
X100849278Y-70706197D01*
X100849276Y-70706198D01*
X100843248Y-70708882D01*
X100688747Y-70821134D01*
X100684326Y-70826044D01*
X100684325Y-70826045D01*
X100616717Y-70901132D01*
X100560960Y-70963056D01*
X100465473Y-71128444D01*
X100406458Y-71310072D01*
X100405768Y-71316633D01*
X100405768Y-71316635D01*
X100400942Y-71362556D01*
X100386496Y-71500000D01*
X100387186Y-71506565D01*
X100405588Y-71681646D01*
X100406458Y-71689928D01*
X100465473Y-71871556D01*
X100468776Y-71877278D01*
X100468777Y-71877279D01*
X100483245Y-71902338D01*
X100560960Y-72036944D01*
X100565378Y-72041851D01*
X100565379Y-72041852D01*
X100659136Y-72145980D01*
X100689854Y-72209987D01*
X100691500Y-72230290D01*
X100691500Y-83591149D01*
X100671411Y-83659404D01*
X100635367Y-83715333D01*
X100635363Y-83715342D01*
X100631548Y-83721261D01*
X100629139Y-83727881D01*
X100629138Y-83727882D01*
X100574649Y-83877589D01*
X100569510Y-83891708D01*
X100546776Y-84071663D01*
X100564476Y-84252183D01*
X100621731Y-84424296D01*
X100625378Y-84430318D01*
X100625379Y-84430320D01*
X100707402Y-84565756D01*
X100715693Y-84579447D01*
X100841695Y-84709925D01*
X100993472Y-84809245D01*
X101000076Y-84811701D01*
X101000078Y-84811702D01*
X101156871Y-84870013D01*
X101156873Y-84870013D01*
X101163481Y-84872471D01*
X101247308Y-84883656D01*
X101336293Y-84895530D01*
X101336297Y-84895530D01*
X101343274Y-84896461D01*
X101350285Y-84895823D01*
X101350289Y-84895823D01*
X101492772Y-84882855D01*
X101523913Y-84880021D01*
X101530613Y-84877844D01*
X101530618Y-84877843D01*
X101601564Y-84854791D01*
X101672532Y-84852764D01*
X101733330Y-84889426D01*
X101764655Y-84953139D01*
X101766500Y-84974624D01*
X101766500Y-90585405D01*
X101746498Y-90653526D01*
X101729595Y-90674501D01*
X101538907Y-90865188D01*
X101476595Y-90899213D01*
X101462983Y-90901402D01*
X101432288Y-90904628D01*
X101432286Y-90904628D01*
X101425288Y-90905364D01*
X101253579Y-90963818D01*
X101206234Y-90992945D01*
X101105095Y-91055166D01*
X101105092Y-91055168D01*
X101099088Y-91058862D01*
X101094053Y-91063793D01*
X101094050Y-91063795D01*
X101003607Y-91152364D01*
X100969493Y-91185771D01*
X100871235Y-91338238D01*
X100868826Y-91344858D01*
X100868824Y-91344861D01*
X100811606Y-91502066D01*
X100809197Y-91508685D01*
X100786463Y-91688640D01*
X100804163Y-91869160D01*
X100861418Y-92041273D01*
X100865065Y-92047295D01*
X100865066Y-92047297D01*
X100944085Y-92177773D01*
X100955380Y-92196424D01*
X100960269Y-92201487D01*
X100960270Y-92201488D01*
X101011799Y-92254847D01*
X101081382Y-92326902D01*
X101233159Y-92426222D01*
X101239763Y-92428678D01*
X101239765Y-92428679D01*
X101396558Y-92486990D01*
X101396560Y-92486990D01*
X101403168Y-92489448D01*
X101486995Y-92500633D01*
X101575980Y-92512507D01*
X101575984Y-92512507D01*
X101582961Y-92513438D01*
X101589972Y-92512800D01*
X101589976Y-92512800D01*
X101732459Y-92499832D01*
X101763600Y-92496998D01*
X101770302Y-92494820D01*
X101770304Y-92494820D01*
X101825060Y-92477029D01*
X101923290Y-92445112D01*
X101994255Y-92443084D01*
X102031217Y-92459513D01*
X102043597Y-92467614D01*
X102089477Y-92497637D01*
X102133159Y-92526222D01*
X102139763Y-92528678D01*
X102139765Y-92528679D01*
X102296558Y-92586990D01*
X102296560Y-92586990D01*
X102303168Y-92589448D01*
X102386995Y-92600633D01*
X102475980Y-92612507D01*
X102475984Y-92612507D01*
X102482961Y-92613438D01*
X102489972Y-92612800D01*
X102489976Y-92612800D01*
X102632459Y-92599832D01*
X102663600Y-92596998D01*
X102670302Y-92594820D01*
X102670304Y-92594820D01*
X102829409Y-92543124D01*
X102829412Y-92543123D01*
X102836108Y-92540947D01*
X102972715Y-92459513D01*
X102985860Y-92451677D01*
X102985862Y-92451676D01*
X102991912Y-92448069D01*
X103123266Y-92322982D01*
X103223643Y-92171902D01*
X103269407Y-92051428D01*
X103285555Y-92008920D01*
X103285556Y-92008918D01*
X103288055Y-92002338D01*
X103298115Y-91930760D01*
X103303420Y-91893009D01*
X103332708Y-91828335D01*
X103339099Y-91821450D01*
X103495734Y-91664815D01*
X103508125Y-91653948D01*
X103526937Y-91639513D01*
X103533487Y-91634487D01*
X103557974Y-91602575D01*
X103557980Y-91602569D01*
X103625996Y-91513929D01*
X103625997Y-91513927D01*
X103631024Y-91507376D01*
X103692338Y-91359351D01*
X103697549Y-91319770D01*
X103708000Y-91240385D01*
X103708000Y-91240380D01*
X103713250Y-91200500D01*
X103709078Y-91168807D01*
X103708000Y-91152364D01*
X103708000Y-83947316D01*
X103729052Y-83877589D01*
X103790055Y-83785771D01*
X103823143Y-83735970D01*
X103887555Y-83566406D01*
X103895815Y-83507633D01*
X103912248Y-83390707D01*
X103912248Y-83390704D01*
X103912799Y-83386785D01*
X103913116Y-83364068D01*
X103892897Y-83183813D01*
X103890580Y-83177159D01*
X103835564Y-83019174D01*
X103835562Y-83019171D01*
X103833245Y-83012516D01*
X103737126Y-82858692D01*
X103692187Y-82813438D01*
X103614278Y-82734983D01*
X103614274Y-82734980D01*
X103609315Y-82729986D01*
X103456166Y-82632795D01*
X103425384Y-82621834D01*
X103291925Y-82574311D01*
X103291920Y-82574310D01*
X103285290Y-82571949D01*
X103278302Y-82571116D01*
X103278299Y-82571115D01*
X103144581Y-82555170D01*
X103079308Y-82527242D01*
X103039495Y-82468459D01*
X103033500Y-82430056D01*
X103033500Y-72425526D01*
X103053502Y-72357405D01*
X103080543Y-72327334D01*
X103209025Y-72224032D01*
X103336154Y-72072526D01*
X103339121Y-72067128D01*
X103339125Y-72067123D01*
X103417905Y-71923820D01*
X103431433Y-71899213D01*
X103440207Y-71871556D01*
X103489373Y-71716564D01*
X103489373Y-71716563D01*
X103491235Y-71710694D01*
X103508500Y-71556773D01*
X103508500Y-69296272D01*
X103528502Y-69228151D01*
X103582158Y-69181658D01*
X103652432Y-69171554D01*
X103678532Y-69178216D01*
X103869703Y-69249519D01*
X103869706Y-69249520D01*
X103873921Y-69251092D01*
X103878311Y-69252047D01*
X103878318Y-69252049D01*
X104033229Y-69285747D01*
X104084770Y-69296959D01*
X104259535Y-69309459D01*
X104271446Y-69310884D01*
X104282648Y-69312769D01*
X104282655Y-69312770D01*
X104287448Y-69313576D01*
X104293724Y-69313653D01*
X104295140Y-69313670D01*
X104295143Y-69313670D01*
X104300000Y-69313729D01*
X104327624Y-69309773D01*
X104345486Y-69308500D01*
X131046750Y-69308500D01*
X131067655Y-69310246D01*
X131082656Y-69312770D01*
X131082659Y-69312770D01*
X131087448Y-69313576D01*
X131093687Y-69313652D01*
X131095140Y-69313670D01*
X131095143Y-69313670D01*
X131100000Y-69313729D01*
X131114790Y-69311611D01*
X131123643Y-69310662D01*
X131310742Y-69297280D01*
X131315230Y-69296959D01*
X131366771Y-69285747D01*
X131521682Y-69252049D01*
X131521689Y-69252047D01*
X131526079Y-69251092D01*
X131530294Y-69249520D01*
X131530297Y-69249519D01*
X131627167Y-69213388D01*
X131728254Y-69175685D01*
X131917640Y-69072272D01*
X131980611Y-69025132D01*
X132047133Y-69000321D01*
X132056121Y-69000000D01*
X139465500Y-69000000D01*
X139533621Y-69020002D01*
X139580114Y-69073658D01*
X139591500Y-69126000D01*
X139591500Y-91128102D01*
X139571498Y-91196223D01*
X139517842Y-91242716D01*
X139447568Y-91252820D01*
X139390779Y-91228431D01*
X139390485Y-91228874D01*
X139388061Y-91227263D01*
X139387406Y-91226982D01*
X139386179Y-91226013D01*
X139386177Y-91226012D01*
X139382123Y-91222810D01*
X139377607Y-91220317D01*
X139377604Y-91220315D01*
X139183879Y-91113373D01*
X139183875Y-91113371D01*
X139179355Y-91110876D01*
X139174486Y-91109152D01*
X139174482Y-91109150D01*
X138965903Y-91035288D01*
X138965899Y-91035287D01*
X138961028Y-91033562D01*
X138955935Y-91032655D01*
X138955932Y-91032654D01*
X138738095Y-90993851D01*
X138738089Y-90993850D01*
X138733006Y-90992945D01*
X138660096Y-90992054D01*
X138506581Y-90990179D01*
X138506579Y-90990179D01*
X138501411Y-90990116D01*
X138272464Y-91025150D01*
X138052314Y-91097106D01*
X138047726Y-91099494D01*
X138047722Y-91099496D01*
X137870613Y-91191693D01*
X137846872Y-91204052D01*
X137842739Y-91207155D01*
X137842736Y-91207157D01*
X137668153Y-91338238D01*
X137661655Y-91343117D01*
X137639445Y-91366358D01*
X137516163Y-91495366D01*
X137501639Y-91510564D01*
X137498725Y-91514836D01*
X137498724Y-91514837D01*
X137472173Y-91553760D01*
X137371119Y-91701899D01*
X137273602Y-91911981D01*
X137211707Y-92135169D01*
X137187095Y-92365469D01*
X137187392Y-92370622D01*
X137187392Y-92370625D01*
X137196505Y-92528679D01*
X137200427Y-92596697D01*
X137201564Y-92601743D01*
X137201565Y-92601749D01*
X137233741Y-92744523D01*
X137251346Y-92822642D01*
X137253288Y-92827424D01*
X137253289Y-92827428D01*
X137336540Y-93032450D01*
X137338484Y-93037237D01*
X137390615Y-93122307D01*
X137432534Y-93190712D01*
X137459501Y-93234719D01*
X137611147Y-93409784D01*
X137789349Y-93557730D01*
X137989322Y-93674584D01*
X137994147Y-93676426D01*
X137994148Y-93676427D01*
X138010725Y-93682757D01*
X138205694Y-93757209D01*
X138210760Y-93758240D01*
X138210761Y-93758240D01*
X138229306Y-93762013D01*
X138432656Y-93803385D01*
X138563324Y-93808176D01*
X138658949Y-93811683D01*
X138658953Y-93811683D01*
X138664113Y-93811872D01*
X138669233Y-93811216D01*
X138669235Y-93811216D01*
X138759847Y-93799608D01*
X138893847Y-93782442D01*
X138898795Y-93780957D01*
X138898802Y-93780956D01*
X139110747Y-93717369D01*
X139115690Y-93715886D01*
X139170986Y-93688797D01*
X139319049Y-93616262D01*
X139319052Y-93616260D01*
X139323684Y-93613991D01*
X139392332Y-93565025D01*
X139459405Y-93541752D01*
X139528414Y-93558435D01*
X139577448Y-93609779D01*
X139591500Y-93667604D01*
X139591500Y-98128102D01*
X139571498Y-98196223D01*
X139517842Y-98242716D01*
X139447568Y-98252820D01*
X139390779Y-98228431D01*
X139390485Y-98228874D01*
X139388061Y-98227263D01*
X139387406Y-98226982D01*
X139386179Y-98226013D01*
X139386177Y-98226012D01*
X139382123Y-98222810D01*
X139377607Y-98220317D01*
X139377604Y-98220315D01*
X139183879Y-98113373D01*
X139183875Y-98113371D01*
X139179355Y-98110876D01*
X139174486Y-98109152D01*
X139174482Y-98109150D01*
X138965903Y-98035288D01*
X138965899Y-98035287D01*
X138961028Y-98033562D01*
X138955935Y-98032655D01*
X138955932Y-98032654D01*
X138738095Y-97993851D01*
X138738089Y-97993850D01*
X138733006Y-97992945D01*
X138660096Y-97992054D01*
X138506581Y-97990179D01*
X138506579Y-97990179D01*
X138501411Y-97990116D01*
X138272464Y-98025150D01*
X138052314Y-98097106D01*
X138047726Y-98099494D01*
X138047722Y-98099496D01*
X137886675Y-98183332D01*
X137846872Y-98204052D01*
X137842739Y-98207155D01*
X137842736Y-98207157D01*
X137665790Y-98340012D01*
X137661655Y-98343117D01*
X137658083Y-98346855D01*
X137521181Y-98490115D01*
X137501639Y-98510564D01*
X137371119Y-98701899D01*
X137368944Y-98706585D01*
X137368937Y-98706597D01*
X137281724Y-98894481D01*
X137273976Y-98903311D01*
X137274335Y-98905956D01*
X137271182Y-98920707D01*
X137260537Y-98959092D01*
X137211707Y-99135169D01*
X137187095Y-99365469D01*
X137187392Y-99370622D01*
X137187392Y-99370625D01*
X137195102Y-99504335D01*
X137200427Y-99596697D01*
X137201564Y-99601743D01*
X137201565Y-99601749D01*
X137204924Y-99616653D01*
X137251346Y-99822642D01*
X137253288Y-99827424D01*
X137253289Y-99827428D01*
X137336540Y-100032450D01*
X137338484Y-100037237D01*
X137459501Y-100234719D01*
X137611147Y-100409784D01*
X137789349Y-100557730D01*
X137989322Y-100674584D01*
X138205694Y-100757209D01*
X138210760Y-100758240D01*
X138210761Y-100758240D01*
X138210948Y-100758278D01*
X138432656Y-100803385D01*
X138563324Y-100808176D01*
X138658949Y-100811683D01*
X138658953Y-100811683D01*
X138664113Y-100811872D01*
X138669233Y-100811216D01*
X138669235Y-100811216D01*
X138742270Y-100801860D01*
X138893847Y-100782442D01*
X138898795Y-100780957D01*
X138898802Y-100780956D01*
X139110747Y-100717369D01*
X139115690Y-100715886D01*
X139122606Y-100712498D01*
X139319049Y-100616262D01*
X139319052Y-100616260D01*
X139323684Y-100613991D01*
X139392332Y-100565025D01*
X139459405Y-100541752D01*
X139528414Y-100558435D01*
X139577448Y-100609779D01*
X139591500Y-100667604D01*
X139591500Y-109350633D01*
X139590000Y-109370018D01*
X139586309Y-109393724D01*
X139587473Y-109402626D01*
X139587489Y-109402750D01*
X139587760Y-109433192D01*
X139585430Y-109453870D01*
X139580766Y-109495264D01*
X139574487Y-109522771D01*
X139547515Y-109599853D01*
X139535273Y-109625274D01*
X139491822Y-109694426D01*
X139474230Y-109716485D01*
X139416485Y-109774230D01*
X139394426Y-109791822D01*
X139325274Y-109835273D01*
X139299853Y-109847515D01*
X139222772Y-109874487D01*
X139195264Y-109880766D01*
X139139774Y-109887018D01*
X139124132Y-109886923D01*
X139124121Y-109887800D01*
X139115149Y-109887690D01*
X139106276Y-109886309D01*
X139097374Y-109887473D01*
X139097372Y-109887473D01*
X139086385Y-109888910D01*
X139074714Y-109890436D01*
X139058379Y-109891500D01*
X46849367Y-109891500D01*
X46829982Y-109890000D01*
X46815148Y-109887690D01*
X46815145Y-109887690D01*
X46806276Y-109886309D01*
X46797374Y-109887473D01*
X46797250Y-109887489D01*
X46766808Y-109887760D01*
X46746130Y-109885430D01*
X46704736Y-109880766D01*
X46677229Y-109874487D01*
X46600147Y-109847515D01*
X46574726Y-109835273D01*
X46505574Y-109791822D01*
X46483515Y-109774230D01*
X46425770Y-109716485D01*
X46408178Y-109694426D01*
X46364727Y-109625274D01*
X46352485Y-109599853D01*
X46325513Y-109522772D01*
X46319234Y-109495266D01*
X46313170Y-109441451D01*
X46312888Y-109416640D01*
X46313576Y-109412552D01*
X46313729Y-109400000D01*
X46309773Y-109372376D01*
X46308500Y-109354514D01*
X46308500Y-107466695D01*
X84967251Y-107466695D01*
X84967548Y-107471848D01*
X84967548Y-107471851D01*
X84975771Y-107614470D01*
X84980110Y-107689715D01*
X84981247Y-107694761D01*
X84981248Y-107694767D01*
X85001088Y-107782799D01*
X85029222Y-107907639D01*
X85113266Y-108114616D01*
X85115965Y-108119020D01*
X85192198Y-108243421D01*
X85229987Y-108305088D01*
X85376250Y-108473938D01*
X85499994Y-108576672D01*
X85537428Y-108607750D01*
X85548126Y-108616632D01*
X85741000Y-108729338D01*
X85745825Y-108731180D01*
X85745826Y-108731181D01*
X85762743Y-108737641D01*
X85949692Y-108809030D01*
X85954760Y-108810061D01*
X85954763Y-108810062D01*
X86043109Y-108828036D01*
X86168597Y-108853567D01*
X86173772Y-108853757D01*
X86173774Y-108853757D01*
X86386673Y-108861564D01*
X86386677Y-108861564D01*
X86391837Y-108861753D01*
X86396957Y-108861097D01*
X86396959Y-108861097D01*
X86608288Y-108834025D01*
X86608289Y-108834025D01*
X86613416Y-108833368D01*
X86618366Y-108831883D01*
X86822429Y-108770661D01*
X86822434Y-108770659D01*
X86827384Y-108769174D01*
X87027994Y-108670896D01*
X87209860Y-108541173D01*
X87318091Y-108433319D01*
X87380462Y-108399404D01*
X87451268Y-108404592D01*
X87508030Y-108447238D01*
X87525012Y-108478341D01*
X87569385Y-108596705D01*
X87656739Y-108713261D01*
X87773295Y-108800615D01*
X87909684Y-108851745D01*
X87971866Y-108858500D01*
X89768134Y-108858500D01*
X89830316Y-108851745D01*
X89966705Y-108800615D01*
X90083261Y-108713261D01*
X90170615Y-108596705D01*
X90221745Y-108460316D01*
X90228500Y-108398134D01*
X90228500Y-108322966D01*
X97258257Y-108322966D01*
X97288565Y-108457446D01*
X97291645Y-108467275D01*
X97371770Y-108664603D01*
X97376413Y-108673794D01*
X97487694Y-108855388D01*
X97493777Y-108863699D01*
X97633213Y-109024667D01*
X97640580Y-109031883D01*
X97804434Y-109167916D01*
X97812881Y-109173831D01*
X97996756Y-109281279D01*
X98006042Y-109285729D01*
X98205001Y-109361703D01*
X98214899Y-109364579D01*
X98318250Y-109385606D01*
X98332299Y-109384410D01*
X98336000Y-109374065D01*
X98336000Y-109373517D01*
X98844000Y-109373517D01*
X98848064Y-109387359D01*
X98861478Y-109389393D01*
X98868184Y-109388534D01*
X98878262Y-109386392D01*
X99082255Y-109325191D01*
X99091842Y-109321433D01*
X99283095Y-109227739D01*
X99291945Y-109222464D01*
X99465328Y-109098792D01*
X99473200Y-109092139D01*
X99624052Y-108941812D01*
X99630730Y-108933965D01*
X99755003Y-108761020D01*
X99760313Y-108752183D01*
X99854670Y-108561267D01*
X99858469Y-108551672D01*
X99920360Y-108347966D01*
X105068257Y-108347966D01*
X105098565Y-108482446D01*
X105101645Y-108492275D01*
X105181770Y-108689603D01*
X105186413Y-108698794D01*
X105297694Y-108880388D01*
X105303777Y-108888699D01*
X105443213Y-109049667D01*
X105450580Y-109056883D01*
X105614434Y-109192916D01*
X105622881Y-109198831D01*
X105806756Y-109306279D01*
X105816042Y-109310729D01*
X106015001Y-109386703D01*
X106024899Y-109389579D01*
X106128250Y-109410606D01*
X106142299Y-109409410D01*
X106146000Y-109399065D01*
X106146000Y-109398517D01*
X106654000Y-109398517D01*
X106658064Y-109412359D01*
X106671478Y-109414393D01*
X106678184Y-109413534D01*
X106688262Y-109411392D01*
X106892255Y-109350191D01*
X106901842Y-109346433D01*
X107093095Y-109252739D01*
X107101945Y-109247464D01*
X107275328Y-109123792D01*
X107283200Y-109117139D01*
X107434052Y-108966812D01*
X107440730Y-108958965D01*
X107565003Y-108786020D01*
X107570313Y-108777183D01*
X107664670Y-108586267D01*
X107668469Y-108576672D01*
X107730377Y-108372910D01*
X107732555Y-108362837D01*
X107733986Y-108351962D01*
X107731775Y-108337778D01*
X107718617Y-108334000D01*
X106672115Y-108334000D01*
X106656876Y-108338475D01*
X106655671Y-108339865D01*
X106654000Y-108347548D01*
X106654000Y-109398517D01*
X106146000Y-109398517D01*
X106146000Y-108352115D01*
X106141525Y-108336876D01*
X106140135Y-108335671D01*
X106132452Y-108334000D01*
X105083225Y-108334000D01*
X105069694Y-108337973D01*
X105068257Y-108347966D01*
X99920360Y-108347966D01*
X99920377Y-108347910D01*
X99922555Y-108337837D01*
X99923986Y-108326962D01*
X99921775Y-108312778D01*
X99908617Y-108309000D01*
X98862115Y-108309000D01*
X98846876Y-108313475D01*
X98845671Y-108314865D01*
X98844000Y-108322548D01*
X98844000Y-109373517D01*
X98336000Y-109373517D01*
X98336000Y-108327115D01*
X98331525Y-108311876D01*
X98330135Y-108310671D01*
X98322452Y-108309000D01*
X97273225Y-108309000D01*
X97259694Y-108312973D01*
X97258257Y-108322966D01*
X90228500Y-108322966D01*
X90228500Y-106601866D01*
X90221745Y-106539684D01*
X90170615Y-106403295D01*
X90083261Y-106286739D01*
X89966705Y-106199385D01*
X89830316Y-106148255D01*
X89768134Y-106141500D01*
X87971866Y-106141500D01*
X87909684Y-106148255D01*
X87773295Y-106199385D01*
X87656739Y-106286739D01*
X87569385Y-106403295D01*
X87566233Y-106411703D01*
X87524919Y-106521907D01*
X87482277Y-106578671D01*
X87415716Y-106603371D01*
X87346367Y-106588163D01*
X87313743Y-106562476D01*
X87263151Y-106506875D01*
X87263142Y-106506866D01*
X87259670Y-106503051D01*
X87255619Y-106499852D01*
X87255615Y-106499848D01*
X87088414Y-106367800D01*
X87088410Y-106367798D01*
X87084359Y-106364598D01*
X86888789Y-106256638D01*
X86883920Y-106254914D01*
X86883916Y-106254912D01*
X86683087Y-106183795D01*
X86683083Y-106183794D01*
X86678212Y-106182069D01*
X86673119Y-106181162D01*
X86673116Y-106181161D01*
X86463373Y-106143800D01*
X86463367Y-106143799D01*
X86458284Y-106142894D01*
X86384452Y-106141992D01*
X86240081Y-106140228D01*
X86240079Y-106140228D01*
X86234911Y-106140165D01*
X86014091Y-106173955D01*
X85801756Y-106243357D01*
X85771443Y-106259137D01*
X85690088Y-106301488D01*
X85603607Y-106346507D01*
X85599474Y-106349610D01*
X85599471Y-106349612D01*
X85463533Y-106451677D01*
X85424965Y-106480635D01*
X85396874Y-106510031D01*
X85278175Y-106634242D01*
X85270629Y-106642138D01*
X85267715Y-106646410D01*
X85267714Y-106646411D01*
X85203004Y-106741273D01*
X85144743Y-106826680D01*
X85050688Y-107029305D01*
X84990989Y-107244570D01*
X84967251Y-107466695D01*
X46308500Y-107466695D01*
X46308500Y-105481695D01*
X97227251Y-105481695D01*
X97227548Y-105486848D01*
X97227548Y-105486851D01*
X97234827Y-105613091D01*
X97240110Y-105704715D01*
X97241247Y-105709761D01*
X97241248Y-105709767D01*
X97261584Y-105800000D01*
X97289222Y-105922639D01*
X97327461Y-106016811D01*
X97364937Y-106109103D01*
X97373266Y-106129616D01*
X97380549Y-106141500D01*
X97475486Y-106296424D01*
X97489987Y-106320088D01*
X97636250Y-106488938D01*
X97808126Y-106631632D01*
X97838724Y-106649512D01*
X97881955Y-106674774D01*
X97930679Y-106726412D01*
X97943750Y-106796195D01*
X97917019Y-106861967D01*
X97876562Y-106895327D01*
X97868457Y-106899546D01*
X97859738Y-106905036D01*
X97689433Y-107032905D01*
X97681726Y-107039748D01*
X97534590Y-107193717D01*
X97528104Y-107201727D01*
X97408098Y-107377649D01*
X97403000Y-107386623D01*
X97313338Y-107579783D01*
X97309775Y-107589470D01*
X97254389Y-107789183D01*
X97255912Y-107797607D01*
X97268292Y-107801000D01*
X99908344Y-107801000D01*
X99921875Y-107797027D01*
X99923180Y-107787947D01*
X99881214Y-107620875D01*
X99877894Y-107611124D01*
X99792972Y-107415814D01*
X99788105Y-107406739D01*
X99672426Y-107227926D01*
X99666136Y-107219757D01*
X99522806Y-107062240D01*
X99515273Y-107055215D01*
X99348139Y-106923222D01*
X99339556Y-106917520D01*
X99302602Y-106897120D01*
X99252631Y-106846687D01*
X99237859Y-106777245D01*
X99262975Y-106710839D01*
X99290327Y-106684232D01*
X99343350Y-106646411D01*
X99469860Y-106556173D01*
X99485140Y-106540947D01*
X99599348Y-106427137D01*
X99628096Y-106398489D01*
X99652275Y-106364841D01*
X99755435Y-106221277D01*
X99758453Y-106217077D01*
X99787147Y-106159020D01*
X99855136Y-106021453D01*
X99855137Y-106021451D01*
X99857430Y-106016811D01*
X99910990Y-105840524D01*
X99920865Y-105808023D01*
X99920865Y-105808021D01*
X99922370Y-105803069D01*
X99951529Y-105581590D01*
X99953156Y-105515000D01*
X99934852Y-105292361D01*
X99880431Y-105075702D01*
X99791354Y-104870840D01*
X99722512Y-104764426D01*
X99672822Y-104687617D01*
X99672820Y-104687614D01*
X99670014Y-104683277D01*
X99665577Y-104678401D01*
X99522798Y-104521488D01*
X99491746Y-104457642D01*
X99500141Y-104387143D01*
X99545317Y-104332375D01*
X99571761Y-104318706D01*
X99678297Y-104278767D01*
X99686705Y-104275615D01*
X99803261Y-104188261D01*
X99890615Y-104071705D01*
X99941745Y-103935316D01*
X99948500Y-103873134D01*
X99948500Y-102076866D01*
X99941745Y-102014684D01*
X99890615Y-101878295D01*
X99803261Y-101761739D01*
X99686705Y-101674385D01*
X99550316Y-101623255D01*
X99488134Y-101616500D01*
X97691866Y-101616500D01*
X97629684Y-101623255D01*
X97493295Y-101674385D01*
X97376739Y-101761739D01*
X97289385Y-101878295D01*
X97238255Y-102014684D01*
X97231500Y-102076866D01*
X97231500Y-103873134D01*
X97238255Y-103935316D01*
X97289385Y-104071705D01*
X97376739Y-104188261D01*
X97493295Y-104275615D01*
X97501704Y-104278767D01*
X97501705Y-104278768D01*
X97610451Y-104319535D01*
X97667216Y-104362176D01*
X97691916Y-104428738D01*
X97676709Y-104498087D01*
X97657316Y-104524568D01*
X97530629Y-104657138D01*
X97404743Y-104841680D01*
X97390959Y-104871375D01*
X97328320Y-105006321D01*
X97310688Y-105044305D01*
X97250989Y-105259570D01*
X97227251Y-105481695D01*
X46308500Y-105481695D01*
X46308500Y-96047639D01*
X46328502Y-95979518D01*
X46382158Y-95933025D01*
X46452432Y-95922921D01*
X46517012Y-95952415D01*
X46526048Y-95961066D01*
X46630686Y-96071717D01*
X46638199Y-96078482D01*
X46827405Y-96223141D01*
X46835884Y-96228605D01*
X47045791Y-96341156D01*
X47055037Y-96345195D01*
X47280234Y-96422737D01*
X47290015Y-96425248D01*
X47525789Y-96465974D01*
X47533661Y-96466829D01*
X47558031Y-96467936D01*
X47560864Y-96468000D01*
X49377885Y-96468000D01*
X49393124Y-96463525D01*
X49394329Y-96462135D01*
X49396000Y-96454452D01*
X49396000Y-96449885D01*
X49904000Y-96449885D01*
X49908475Y-96465124D01*
X49909865Y-96466329D01*
X49917548Y-96468000D01*
X51689875Y-96468000D01*
X51694907Y-96467798D01*
X51872458Y-96453513D01*
X51882410Y-96451901D01*
X52113717Y-96395086D01*
X52123287Y-96391903D01*
X52342534Y-96298838D01*
X52351476Y-96294163D01*
X52553022Y-96167243D01*
X52561095Y-96161203D01*
X52739759Y-96003689D01*
X52746762Y-95996437D01*
X52897943Y-95812386D01*
X52903697Y-95804108D01*
X53023513Y-95598245D01*
X53027868Y-95589154D01*
X53113222Y-95366799D01*
X53116073Y-95357110D01*
X53149577Y-95196736D01*
X53148454Y-95182675D01*
X53138346Y-95179000D01*
X49922115Y-95179000D01*
X49906876Y-95183475D01*
X49905671Y-95184865D01*
X49904000Y-95192548D01*
X49904000Y-96449885D01*
X49396000Y-96449885D01*
X49396000Y-94979043D01*
X54022422Y-94979043D01*
X54023003Y-94984063D01*
X54023003Y-94984067D01*
X54028117Y-95028264D01*
X54050970Y-95225776D01*
X54052349Y-95230650D01*
X54052350Y-95230654D01*
X54117172Y-95459728D01*
X54118599Y-95464771D01*
X54120733Y-95469346D01*
X54120735Y-95469353D01*
X54179497Y-95595366D01*
X54223569Y-95689879D01*
X54226410Y-95694059D01*
X54226412Y-95694063D01*
X54279312Y-95771902D01*
X54363179Y-95895309D01*
X54533837Y-96075775D01*
X54731153Y-96226635D01*
X54735611Y-96229025D01*
X54735612Y-96229026D01*
X54809723Y-96268764D01*
X54950051Y-96344007D01*
X55184898Y-96424871D01*
X55189881Y-96425732D01*
X55189886Y-96425733D01*
X55366701Y-96456274D01*
X55429654Y-96467148D01*
X55433611Y-96467328D01*
X55433614Y-96467328D01*
X55458009Y-96468436D01*
X55458028Y-96468436D01*
X55459428Y-96468500D01*
X56219858Y-96468500D01*
X56287979Y-96488502D01*
X56297431Y-96495210D01*
X56378164Y-96558285D01*
X56424118Y-96594188D01*
X56427922Y-96596384D01*
X56427929Y-96596389D01*
X56612295Y-96702832D01*
X56667381Y-96734636D01*
X56927824Y-96839862D01*
X56932097Y-96840927D01*
X56932099Y-96840928D01*
X57196107Y-96906753D01*
X57196112Y-96906754D01*
X57200376Y-96907817D01*
X57204744Y-96908276D01*
X57204749Y-96908277D01*
X57475364Y-96936719D01*
X57475367Y-96936719D01*
X57479733Y-96937178D01*
X57484121Y-96937025D01*
X57484127Y-96937025D01*
X57756061Y-96927529D01*
X57756067Y-96927528D01*
X57760458Y-96927375D01*
X57764781Y-96926613D01*
X57764788Y-96926612D01*
X57940494Y-96895630D01*
X58037087Y-96878598D01*
X58304235Y-96791797D01*
X58308188Y-96789869D01*
X58308193Y-96789867D01*
X58421432Y-96734636D01*
X58556702Y-96668660D01*
X58560341Y-96666205D01*
X58560347Y-96666202D01*
X58738963Y-96545724D01*
X58789576Y-96511585D01*
X58801485Y-96500862D01*
X58865491Y-96470146D01*
X58885793Y-96468500D01*
X59592404Y-96468500D01*
X59594912Y-96468298D01*
X59594917Y-96468298D01*
X59772537Y-96454007D01*
X59772541Y-96454006D01*
X59777579Y-96453601D01*
X59782487Y-96452396D01*
X59782490Y-96452395D01*
X60013875Y-96395561D01*
X60018789Y-96394354D01*
X60023441Y-96392379D01*
X60023445Y-96392378D01*
X60242766Y-96299282D01*
X60247424Y-96297305D01*
X60338902Y-96239698D01*
X60453322Y-96167644D01*
X60453325Y-96167642D01*
X60457601Y-96164949D01*
X60643913Y-96000693D01*
X60801567Y-95808762D01*
X60926507Y-95594094D01*
X60962626Y-95500000D01*
X61013703Y-95366941D01*
X61013704Y-95366938D01*
X61015518Y-95362212D01*
X61050217Y-95196114D01*
X63448041Y-95196114D01*
X63450880Y-95220646D01*
X63452842Y-95230557D01*
X63517691Y-95459728D01*
X63521205Y-95469179D01*
X63621867Y-95685050D01*
X63626846Y-95693814D01*
X63760723Y-95890808D01*
X63767047Y-95898672D01*
X63930692Y-96071723D01*
X63938199Y-96078482D01*
X64127405Y-96223141D01*
X64135884Y-96228605D01*
X64345791Y-96341156D01*
X64355037Y-96345195D01*
X64580234Y-96422737D01*
X64590015Y-96425248D01*
X64825789Y-96465974D01*
X64833661Y-96466829D01*
X64858031Y-96467936D01*
X64860864Y-96468000D01*
X66677885Y-96468000D01*
X66693124Y-96463525D01*
X66694329Y-96462135D01*
X66696000Y-96454452D01*
X66696000Y-95197115D01*
X66691525Y-95181876D01*
X66690135Y-95180671D01*
X66682452Y-95179000D01*
X63464176Y-95179000D01*
X63450090Y-95183136D01*
X63448041Y-95196114D01*
X61050217Y-95196114D01*
X61066310Y-95119081D01*
X61070251Y-95032312D01*
X61072441Y-94984067D01*
X61077578Y-94870957D01*
X61052390Y-94653264D01*
X63450423Y-94653264D01*
X63451546Y-94667325D01*
X63461654Y-94671000D01*
X66677885Y-94671000D01*
X66693124Y-94666525D01*
X66694329Y-94665135D01*
X66696000Y-94657452D01*
X66696000Y-93400115D01*
X66691525Y-93384876D01*
X66690135Y-93383671D01*
X66682452Y-93382000D01*
X64910125Y-93382000D01*
X64905093Y-93382202D01*
X64727542Y-93396487D01*
X64717590Y-93398099D01*
X64486283Y-93454914D01*
X64476713Y-93458097D01*
X64257466Y-93551162D01*
X64248524Y-93555837D01*
X64046978Y-93682757D01*
X64038905Y-93688797D01*
X63860241Y-93846311D01*
X63853238Y-93853563D01*
X63702057Y-94037614D01*
X63696303Y-94045892D01*
X63576487Y-94251755D01*
X63572132Y-94260846D01*
X63486778Y-94483201D01*
X63483927Y-94492890D01*
X63450423Y-94653264D01*
X61052390Y-94653264D01*
X61049030Y-94624224D01*
X61041927Y-94599120D01*
X60982779Y-94390098D01*
X60982778Y-94390096D01*
X60981401Y-94385229D01*
X60979267Y-94380654D01*
X60979265Y-94380647D01*
X60884380Y-94177168D01*
X60876431Y-94160121D01*
X60736821Y-93954691D01*
X60566163Y-93774225D01*
X60368847Y-93623365D01*
X60351865Y-93614259D01*
X60154412Y-93508386D01*
X60149949Y-93505993D01*
X59915102Y-93425129D01*
X59910119Y-93424268D01*
X59910114Y-93424267D01*
X59674262Y-93383528D01*
X59674256Y-93383527D01*
X59670346Y-93382852D01*
X59670124Y-93382842D01*
X59605334Y-93355923D01*
X59564905Y-93297561D01*
X59558500Y-93257899D01*
X59558500Y-92359500D01*
X59578502Y-92291379D01*
X59632158Y-92244886D01*
X59684500Y-92233500D01*
X60094318Y-92233500D01*
X60098914Y-92233235D01*
X60104110Y-92232035D01*
X60104113Y-92232035D01*
X60261275Y-92195751D01*
X60268136Y-92194167D01*
X60424498Y-92118579D01*
X60560227Y-92010227D01*
X60668579Y-91874498D01*
X60744167Y-91718136D01*
X60758986Y-91653948D01*
X60782035Y-91554113D01*
X60782035Y-91554110D01*
X60783235Y-91548914D01*
X60783500Y-91544318D01*
X60783500Y-88376940D01*
X60803502Y-88308819D01*
X60857158Y-88262326D01*
X60927432Y-88252222D01*
X60992012Y-88281716D01*
X61006583Y-88296623D01*
X61067767Y-88370582D01*
X61070654Y-88373293D01*
X61152675Y-88450316D01*
X61155517Y-88453071D01*
X63486488Y-90784042D01*
X63506014Y-90809282D01*
X63658245Y-91068236D01*
X63658250Y-91068244D01*
X63660168Y-91071506D01*
X63662469Y-91074521D01*
X63850510Y-91320915D01*
X63850515Y-91320921D01*
X63852810Y-91323928D01*
X63894749Y-91366980D01*
X64067418Y-91544229D01*
X64074382Y-91551378D01*
X64177564Y-91634487D01*
X64318722Y-91748184D01*
X64318727Y-91748188D01*
X64321675Y-91750562D01*
X64591106Y-91918595D01*
X64878772Y-92053041D01*
X64882382Y-92054224D01*
X64882386Y-92054226D01*
X65176910Y-92150776D01*
X65180507Y-92151955D01*
X65491940Y-92213903D01*
X65495712Y-92214190D01*
X65495720Y-92214191D01*
X65804782Y-92237701D01*
X65804787Y-92237701D01*
X65808559Y-92237988D01*
X66125779Y-92223860D01*
X66129517Y-92223238D01*
X66129525Y-92223237D01*
X66290613Y-92196424D01*
X66439004Y-92171725D01*
X66743697Y-92082338D01*
X67035444Y-91956993D01*
X67087250Y-91926902D01*
X67138423Y-91897179D01*
X67207375Y-91880260D01*
X67274527Y-91903306D01*
X67290803Y-91917038D01*
X68415407Y-93041641D01*
X68540671Y-93166905D01*
X68574696Y-93229217D01*
X68569632Y-93300032D01*
X68527085Y-93356868D01*
X68460565Y-93381679D01*
X68451576Y-93382000D01*
X67222115Y-93382000D01*
X67206876Y-93386475D01*
X67205671Y-93387865D01*
X67204000Y-93395548D01*
X67204000Y-96449885D01*
X67208475Y-96465124D01*
X67209865Y-96466329D01*
X67217548Y-96468000D01*
X68989875Y-96468000D01*
X68994907Y-96467798D01*
X69172458Y-96453513D01*
X69182410Y-96451901D01*
X69413717Y-96395086D01*
X69423287Y-96391903D01*
X69516268Y-96352435D01*
X69586789Y-96344231D01*
X69650551Y-96375455D01*
X69687310Y-96436195D01*
X69691500Y-96468419D01*
X69691500Y-101838157D01*
X69690763Y-101851764D01*
X69688662Y-101871109D01*
X69686676Y-101889388D01*
X69687213Y-101895523D01*
X69691050Y-101939388D01*
X69691379Y-101944214D01*
X69691500Y-101946686D01*
X69691500Y-101949769D01*
X69691801Y-101952837D01*
X69695690Y-101992506D01*
X69695812Y-101993819D01*
X69696990Y-102007285D01*
X69703913Y-102086413D01*
X69705400Y-102091532D01*
X69705920Y-102096833D01*
X69732791Y-102185834D01*
X69733126Y-102186967D01*
X69755943Y-102265500D01*
X69759091Y-102276336D01*
X69761544Y-102281068D01*
X69763084Y-102286169D01*
X69765978Y-102291612D01*
X69806731Y-102368260D01*
X69807343Y-102369426D01*
X69847271Y-102446453D01*
X69850108Y-102451926D01*
X69853431Y-102456089D01*
X69855934Y-102460796D01*
X69914755Y-102532918D01*
X69915446Y-102533774D01*
X69946738Y-102572973D01*
X69949242Y-102575477D01*
X69949884Y-102576195D01*
X69953585Y-102580528D01*
X69980935Y-102614062D01*
X69985683Y-102617990D01*
X69985684Y-102617991D01*
X70016259Y-102643285D01*
X70025038Y-102651273D01*
X70122075Y-102748309D01*
X70124442Y-102750253D01*
X70124445Y-102750256D01*
X70149596Y-102770915D01*
X70236261Y-102842102D01*
X70410563Y-102935562D01*
X70519219Y-102968782D01*
X70593800Y-102991584D01*
X70593802Y-102991584D01*
X70599698Y-102993387D01*
X70657551Y-102999264D01*
X70790334Y-103012752D01*
X70790339Y-103012752D01*
X70796462Y-103013374D01*
X70920525Y-103001646D01*
X70987229Y-102995341D01*
X70987231Y-102995341D01*
X70993362Y-102994761D01*
X71174007Y-102940909D01*
X71176993Y-102940019D01*
X71176995Y-102940018D01*
X71182896Y-102938259D01*
X71357846Y-102846018D01*
X71367516Y-102838188D01*
X71506757Y-102725432D01*
X71506758Y-102725431D01*
X71511547Y-102721553D01*
X71544796Y-102681646D01*
X71634205Y-102574335D01*
X71634208Y-102574330D01*
X71638146Y-102569604D01*
X71657919Y-102533339D01*
X71705291Y-102446453D01*
X71732821Y-102395959D01*
X71791964Y-102207232D01*
X71792630Y-102201105D01*
X71812659Y-102016736D01*
X71812659Y-102016732D01*
X71813324Y-102010611D01*
X71796087Y-101813587D01*
X71740909Y-101623663D01*
X71722635Y-101588409D01*
X71708500Y-101530424D01*
X71708500Y-100264993D01*
X88732160Y-100264993D01*
X88737887Y-100272643D01*
X88909042Y-100377528D01*
X88917837Y-100382010D01*
X89127988Y-100469057D01*
X89137373Y-100472106D01*
X89358554Y-100525208D01*
X89368301Y-100526751D01*
X89595070Y-100544598D01*
X89604930Y-100544598D01*
X89831699Y-100526751D01*
X89841443Y-100525208D01*
X89942758Y-100500884D01*
X90013666Y-100504431D01*
X90071401Y-100545751D01*
X90097631Y-100611724D01*
X90084029Y-100681406D01*
X90061268Y-100712498D01*
X89451691Y-101322075D01*
X89357897Y-101436261D01*
X89264438Y-101610563D01*
X89243279Y-101679771D01*
X89210147Y-101788140D01*
X89206613Y-101799698D01*
X89186626Y-101996462D01*
X89196269Y-102098469D01*
X89203718Y-102177267D01*
X89205239Y-102193362D01*
X89209374Y-102207232D01*
X89253457Y-102355106D01*
X89261741Y-102382896D01*
X89353982Y-102557846D01*
X89357858Y-102562632D01*
X89357859Y-102562634D01*
X89459897Y-102688640D01*
X89478447Y-102711547D01*
X89630396Y-102838146D01*
X89804041Y-102932822D01*
X89898405Y-102962394D01*
X89986886Y-102990122D01*
X89986889Y-102990123D01*
X89992768Y-102991965D01*
X89998891Y-102992630D01*
X89998895Y-102992631D01*
X90183263Y-103012659D01*
X90183267Y-103012659D01*
X90189388Y-103013324D01*
X90386413Y-102996087D01*
X90392330Y-102994368D01*
X90392335Y-102994367D01*
X90533738Y-102953285D01*
X90576336Y-102940909D01*
X90751926Y-102849892D01*
X90786037Y-102822662D01*
X90870223Y-102755458D01*
X90870230Y-102755451D01*
X90872973Y-102753262D01*
X93048309Y-100577926D01*
X93074738Y-100545751D01*
X93138188Y-100468504D01*
X93142102Y-100463739D01*
X93235562Y-100289437D01*
X93293387Y-100100302D01*
X93313373Y-99903538D01*
X93303083Y-99794678D01*
X93295341Y-99712770D01*
X93295340Y-99712766D01*
X93294761Y-99706638D01*
X93268079Y-99617132D01*
X93240019Y-99523007D01*
X93240018Y-99523005D01*
X93238259Y-99517104D01*
X93146018Y-99342154D01*
X93090639Y-99273766D01*
X93025432Y-99193243D01*
X93025431Y-99193242D01*
X93021553Y-99188453D01*
X93007680Y-99176895D01*
X92874335Y-99065795D01*
X92874330Y-99065792D01*
X92869604Y-99061854D01*
X92848061Y-99050108D01*
X92701364Y-98970126D01*
X92701365Y-98970126D01*
X92695959Y-98967179D01*
X92507231Y-98908036D01*
X92501108Y-98907371D01*
X92501104Y-98907370D01*
X92316736Y-98887341D01*
X92316732Y-98887341D01*
X92310611Y-98886676D01*
X92113587Y-98903913D01*
X92107670Y-98905632D01*
X92107665Y-98905633D01*
X91979433Y-98942889D01*
X91923663Y-98959092D01*
X91748074Y-99050108D01*
X91743255Y-99053955D01*
X91635092Y-99140301D01*
X91627027Y-99146739D01*
X91280175Y-99493591D01*
X91217863Y-99527617D01*
X91147048Y-99522552D01*
X91090212Y-99480005D01*
X91065401Y-99413485D01*
X91068561Y-99375081D01*
X91092885Y-99273766D01*
X91094428Y-99264022D01*
X91112275Y-99037253D01*
X91112275Y-99027393D01*
X91094428Y-98800624D01*
X91092885Y-98790877D01*
X91039783Y-98569696D01*
X91036734Y-98560311D01*
X90949687Y-98350160D01*
X90945205Y-98341365D01*
X90842568Y-98173878D01*
X90832110Y-98164416D01*
X90823334Y-98168199D01*
X88738920Y-100252613D01*
X88732160Y-100264993D01*
X71708500Y-100264993D01*
X71708500Y-99037253D01*
X88087725Y-99037253D01*
X88105572Y-99264022D01*
X88107115Y-99273769D01*
X88160217Y-99494950D01*
X88163266Y-99504335D01*
X88250313Y-99714486D01*
X88254795Y-99723281D01*
X88357432Y-99890768D01*
X88367890Y-99900230D01*
X88376666Y-99896447D01*
X89227978Y-99045135D01*
X89235592Y-99031191D01*
X89235461Y-99029358D01*
X89231210Y-99022743D01*
X88379710Y-98171243D01*
X88367330Y-98164483D01*
X88359680Y-98170210D01*
X88254795Y-98341365D01*
X88250313Y-98350160D01*
X88163266Y-98560311D01*
X88160217Y-98569696D01*
X88107115Y-98790877D01*
X88105572Y-98800624D01*
X88087725Y-99027393D01*
X88087725Y-99037253D01*
X71708500Y-99037253D01*
X71708500Y-97800213D01*
X88732093Y-97800213D01*
X88735876Y-97808989D01*
X89587188Y-98660301D01*
X89601132Y-98667915D01*
X89602965Y-98667784D01*
X89609580Y-98663533D01*
X90461080Y-97812033D01*
X90467840Y-97799653D01*
X90462113Y-97792003D01*
X90290958Y-97687118D01*
X90282163Y-97682636D01*
X90072012Y-97595589D01*
X90062627Y-97592540D01*
X89841446Y-97539438D01*
X89831699Y-97537895D01*
X89604930Y-97520048D01*
X89595070Y-97520048D01*
X89368301Y-97537895D01*
X89358554Y-97539438D01*
X89137373Y-97592540D01*
X89127988Y-97595589D01*
X88917837Y-97682636D01*
X88909042Y-97687118D01*
X88741555Y-97789755D01*
X88732093Y-97800213D01*
X71708500Y-97800213D01*
X71708500Y-96234890D01*
X71728502Y-96166769D01*
X71782158Y-96120276D01*
X71852432Y-96110172D01*
X71911029Y-96134794D01*
X72027130Y-96223560D01*
X72027137Y-96223564D01*
X72031153Y-96226635D01*
X72035611Y-96229025D01*
X72035612Y-96229026D01*
X72109723Y-96268764D01*
X72250051Y-96344007D01*
X72484898Y-96424871D01*
X72489881Y-96425732D01*
X72489886Y-96425733D01*
X72666701Y-96456274D01*
X72729654Y-96467148D01*
X72733611Y-96467328D01*
X72733614Y-96467328D01*
X72758009Y-96468436D01*
X72758028Y-96468436D01*
X72759428Y-96468500D01*
X72811981Y-96468500D01*
X72880102Y-96488502D01*
X72909066Y-96514185D01*
X73017767Y-96645582D01*
X73247860Y-96861654D01*
X73251062Y-96863981D01*
X73251064Y-96863982D01*
X73271181Y-96878598D01*
X73503221Y-97047184D01*
X73506690Y-97049091D01*
X73506693Y-97049093D01*
X73672157Y-97140058D01*
X73779821Y-97199247D01*
X73783490Y-97200700D01*
X73783495Y-97200702D01*
X74069628Y-97313990D01*
X74073298Y-97315443D01*
X74379025Y-97393940D01*
X74692179Y-97433500D01*
X75007821Y-97433500D01*
X75320975Y-97393940D01*
X75626702Y-97315443D01*
X75630372Y-97313990D01*
X75916505Y-97200702D01*
X75916510Y-97200700D01*
X75920179Y-97199247D01*
X76027843Y-97140058D01*
X76193307Y-97049093D01*
X76193310Y-97049091D01*
X76196779Y-97047184D01*
X76240609Y-97015340D01*
X76320131Y-96957564D01*
X76394192Y-96933500D01*
X88651428Y-96933500D01*
X88658022Y-96933673D01*
X88738064Y-96937868D01*
X88738070Y-96937868D01*
X88742461Y-96938098D01*
X88746838Y-96937715D01*
X88746842Y-96937715D01*
X88863837Y-96927479D01*
X88866030Y-96927307D01*
X88983150Y-96919118D01*
X88983156Y-96919117D01*
X88987535Y-96918811D01*
X88997216Y-96916753D01*
X89012423Y-96914481D01*
X89017898Y-96914002D01*
X89017911Y-96914000D01*
X89022289Y-96913617D01*
X89026568Y-96912629D01*
X89026575Y-96912628D01*
X89141018Y-96886207D01*
X89143163Y-96885732D01*
X89257986Y-96861325D01*
X89257993Y-96861323D01*
X89262293Y-96860409D01*
X89271604Y-96857020D01*
X89286342Y-96852655D01*
X89295986Y-96850428D01*
X89409723Y-96806769D01*
X89411754Y-96806010D01*
X89522105Y-96765846D01*
X89522114Y-96765842D01*
X89526249Y-96764337D01*
X89534987Y-96759691D01*
X89548975Y-96753317D01*
X89554109Y-96751346D01*
X89554121Y-96751341D01*
X89558225Y-96749765D01*
X89664844Y-96690664D01*
X89666711Y-96689652D01*
X89770381Y-96634530D01*
X89770390Y-96634524D01*
X89774265Y-96632464D01*
X89777822Y-96629879D01*
X89777828Y-96629876D01*
X89782276Y-96626645D01*
X89795250Y-96618379D01*
X89803902Y-96613583D01*
X89901167Y-96540289D01*
X89902921Y-96538991D01*
X89937064Y-96514185D01*
X90001515Y-96467358D01*
X90008643Y-96460475D01*
X90020335Y-96450490D01*
X90024716Y-96447188D01*
X90024717Y-96447187D01*
X90028235Y-96444536D01*
X90114311Y-96358460D01*
X90115879Y-96356918D01*
X90127541Y-96345656D01*
X90203575Y-96272231D01*
X90209676Y-96264422D01*
X90219871Y-96252900D01*
X90756767Y-95716004D01*
X100496500Y-95716004D01*
X100511277Y-95866713D01*
X100569858Y-96060742D01*
X100665010Y-96239698D01*
X100668904Y-96244472D01*
X100668905Y-96244474D01*
X100688716Y-96268764D01*
X100793110Y-96396763D01*
X100797857Y-96400690D01*
X100797859Y-96400692D01*
X100828129Y-96425733D01*
X100862307Y-96454007D01*
X100875815Y-96465182D01*
X100915553Y-96524016D01*
X100921500Y-96562267D01*
X100921500Y-97345164D01*
X100901498Y-97413285D01*
X100900188Y-97415090D01*
X100899493Y-97415771D01*
X100897894Y-97418253D01*
X100897892Y-97418255D01*
X100847146Y-97496998D01*
X100801235Y-97568238D01*
X100798826Y-97574858D01*
X100798824Y-97574861D01*
X100791280Y-97595589D01*
X100739197Y-97738685D01*
X100716463Y-97918640D01*
X100734163Y-98099160D01*
X100791418Y-98271273D01*
X100795065Y-98277295D01*
X100795066Y-98277297D01*
X100881730Y-98420398D01*
X100881733Y-98420401D01*
X100885380Y-98426424D01*
X100890275Y-98431492D01*
X100894571Y-98437071D01*
X100892243Y-98438864D01*
X100919071Y-98490115D01*
X100921500Y-98514734D01*
X100921500Y-102885164D01*
X100901498Y-102953285D01*
X100900188Y-102955090D01*
X100899493Y-102955771D01*
X100897894Y-102958253D01*
X100897892Y-102958255D01*
X100824652Y-103071902D01*
X100801235Y-103108238D01*
X100798826Y-103114858D01*
X100798824Y-103114861D01*
X100759471Y-103222982D01*
X100739197Y-103278685D01*
X100716463Y-103458640D01*
X100734163Y-103639160D01*
X100791418Y-103811273D01*
X100795065Y-103817295D01*
X100795066Y-103817297D01*
X100881730Y-103960398D01*
X100881733Y-103960401D01*
X100885380Y-103966424D01*
X100890275Y-103971492D01*
X100894571Y-103977071D01*
X100892243Y-103978864D01*
X100919071Y-104030115D01*
X100921500Y-104054734D01*
X100921500Y-105781876D01*
X100901498Y-105849997D01*
X100883656Y-105871901D01*
X100874527Y-105880840D01*
X100874522Y-105880847D01*
X100869493Y-105885771D01*
X100771235Y-106038238D01*
X100768826Y-106044858D01*
X100768824Y-106044861D01*
X100724983Y-106165314D01*
X100709197Y-106208685D01*
X100686463Y-106388640D01*
X100704163Y-106569160D01*
X100761418Y-106741273D01*
X100765065Y-106747295D01*
X100765066Y-106747297D01*
X100849653Y-106886967D01*
X100855380Y-106896424D01*
X100860269Y-106901487D01*
X100860270Y-106901488D01*
X100882537Y-106924546D01*
X100981382Y-107026902D01*
X101133159Y-107126222D01*
X101139763Y-107128678D01*
X101139765Y-107128679D01*
X101296558Y-107186990D01*
X101296560Y-107186990D01*
X101303168Y-107189448D01*
X101386995Y-107200633D01*
X101475980Y-107212507D01*
X101475984Y-107212507D01*
X101482961Y-107213438D01*
X101489972Y-107212800D01*
X101489976Y-107212800D01*
X101632459Y-107199832D01*
X101663600Y-107196998D01*
X101670302Y-107194820D01*
X101670304Y-107194820D01*
X101829409Y-107143124D01*
X101829412Y-107143123D01*
X101836108Y-107140947D01*
X101975412Y-107057905D01*
X101985860Y-107051677D01*
X101985862Y-107051676D01*
X101991912Y-107048069D01*
X102123266Y-106922982D01*
X102223643Y-106771902D01*
X102278183Y-106628327D01*
X102285555Y-106608920D01*
X102285556Y-106608918D01*
X102288055Y-106602338D01*
X102291542Y-106577529D01*
X102312748Y-106426639D01*
X102312748Y-106426636D01*
X102313299Y-106422717D01*
X102313616Y-106400000D01*
X102293397Y-106219745D01*
X102291080Y-106213091D01*
X102236064Y-106055106D01*
X102236062Y-106055103D01*
X102233745Y-106048448D01*
X102209045Y-106008920D01*
X102157646Y-105926663D01*
X102138500Y-105859894D01*
X102138500Y-105506695D01*
X105037251Y-105506695D01*
X105037548Y-105511848D01*
X105037548Y-105511851D01*
X105048960Y-105709767D01*
X105050110Y-105729715D01*
X105051247Y-105734761D01*
X105051248Y-105734767D01*
X105067758Y-105808023D01*
X105099222Y-105947639D01*
X105156310Y-106088230D01*
X105178481Y-106142831D01*
X105183266Y-106154616D01*
X105299987Y-106345088D01*
X105446250Y-106513938D01*
X105618126Y-106656632D01*
X105665358Y-106684232D01*
X105691955Y-106699774D01*
X105740679Y-106751412D01*
X105753750Y-106821195D01*
X105727019Y-106886967D01*
X105686562Y-106920327D01*
X105678457Y-106924546D01*
X105669738Y-106930036D01*
X105499433Y-107057905D01*
X105491726Y-107064748D01*
X105344590Y-107218717D01*
X105338104Y-107226727D01*
X105218098Y-107402649D01*
X105213000Y-107411623D01*
X105123338Y-107604783D01*
X105119775Y-107614470D01*
X105064389Y-107814183D01*
X105065912Y-107822607D01*
X105078292Y-107826000D01*
X107718344Y-107826000D01*
X107731875Y-107822027D01*
X107733180Y-107812947D01*
X107691214Y-107645875D01*
X107687894Y-107636124D01*
X107602972Y-107440814D01*
X107598105Y-107431739D01*
X107482426Y-107252926D01*
X107476136Y-107244757D01*
X107332806Y-107087240D01*
X107325273Y-107080215D01*
X107158139Y-106948222D01*
X107149556Y-106942520D01*
X107131773Y-106932703D01*
X134390743Y-106932703D01*
X134391302Y-106936947D01*
X134391302Y-106936951D01*
X134403461Y-107029305D01*
X134428268Y-107217734D01*
X134429401Y-107221874D01*
X134429401Y-107221876D01*
X134435326Y-107243534D01*
X134504129Y-107495036D01*
X134505813Y-107498984D01*
X134564309Y-107636124D01*
X134616923Y-107759476D01*
X134764561Y-108006161D01*
X134944313Y-108230528D01*
X135045933Y-108326962D01*
X135124513Y-108401531D01*
X135152851Y-108428423D01*
X135337722Y-108561267D01*
X135359161Y-108576672D01*
X135386317Y-108596186D01*
X135390112Y-108598195D01*
X135390113Y-108598196D01*
X135411869Y-108609715D01*
X135640392Y-108730712D01*
X135910373Y-108829511D01*
X136191264Y-108890755D01*
X136219841Y-108893004D01*
X136414282Y-108908307D01*
X136414291Y-108908307D01*
X136416739Y-108908500D01*
X136572271Y-108908500D01*
X136574407Y-108908354D01*
X136574418Y-108908354D01*
X136782548Y-108894165D01*
X136782554Y-108894164D01*
X136786825Y-108893873D01*
X136791020Y-108893004D01*
X136791022Y-108893004D01*
X136980539Y-108853757D01*
X137068342Y-108835574D01*
X137339343Y-108739607D01*
X137572547Y-108619242D01*
X137591005Y-108609715D01*
X137591006Y-108609715D01*
X137594812Y-108607750D01*
X137598313Y-108605289D01*
X137598317Y-108605287D01*
X137759116Y-108492275D01*
X137830023Y-108442441D01*
X137969557Y-108312778D01*
X138037479Y-108249661D01*
X138037481Y-108249658D01*
X138040622Y-108246740D01*
X138222713Y-108024268D01*
X138372927Y-107779142D01*
X138435708Y-107636124D01*
X138486757Y-107519830D01*
X138488483Y-107515898D01*
X138567244Y-107239406D01*
X138607751Y-106954784D01*
X138607786Y-106948222D01*
X138609235Y-106671583D01*
X138609235Y-106671576D01*
X138609257Y-106667297D01*
X138606508Y-106646411D01*
X138585175Y-106484373D01*
X138571732Y-106382266D01*
X138566216Y-106362101D01*
X138529186Y-106226744D01*
X138495871Y-106104964D01*
X138456157Y-106011857D01*
X138384763Y-105844476D01*
X138384761Y-105844472D01*
X138383077Y-105840524D01*
X138255227Y-105626902D01*
X138237643Y-105597521D01*
X138237640Y-105597517D01*
X138235439Y-105593839D01*
X138055687Y-105369472D01*
X137906307Y-105227716D01*
X137850258Y-105174527D01*
X137850255Y-105174525D01*
X137847149Y-105171577D01*
X137613683Y-105003814D01*
X137591843Y-104992250D01*
X137568654Y-104979972D01*
X137359608Y-104869288D01*
X137213104Y-104815675D01*
X137093658Y-104771964D01*
X137093656Y-104771963D01*
X137089627Y-104770489D01*
X136808736Y-104709245D01*
X136777685Y-104706801D01*
X136585718Y-104691693D01*
X136585709Y-104691693D01*
X136583261Y-104691500D01*
X136427729Y-104691500D01*
X136425593Y-104691646D01*
X136425582Y-104691646D01*
X136217452Y-104705835D01*
X136217446Y-104705836D01*
X136213175Y-104706127D01*
X136208980Y-104706996D01*
X136208978Y-104706996D01*
X136072416Y-104735277D01*
X135931658Y-104764426D01*
X135660657Y-104860393D01*
X135405188Y-104992250D01*
X135401687Y-104994711D01*
X135401683Y-104994713D01*
X135331121Y-105044305D01*
X135169977Y-105157559D01*
X135157493Y-105169160D01*
X134972278Y-105341273D01*
X134959378Y-105353260D01*
X134777287Y-105575732D01*
X134627073Y-105820858D01*
X134625347Y-105824791D01*
X134625346Y-105824792D01*
X134604667Y-105871901D01*
X134511517Y-106084102D01*
X134510342Y-106088229D01*
X134510341Y-106088230D01*
X134490176Y-106159020D01*
X134432756Y-106360594D01*
X134404495Y-106559171D01*
X134398419Y-106601866D01*
X134392249Y-106645216D01*
X134392227Y-106649505D01*
X134392226Y-106649512D01*
X134390768Y-106927841D01*
X134390743Y-106932703D01*
X107131773Y-106932703D01*
X107112602Y-106922120D01*
X107062631Y-106871687D01*
X107047859Y-106802245D01*
X107072975Y-106735839D01*
X107100327Y-106709232D01*
X107165073Y-106663049D01*
X107279860Y-106581173D01*
X107298623Y-106562476D01*
X107418305Y-106443211D01*
X107438096Y-106423489D01*
X107452128Y-106403962D01*
X107565435Y-106246277D01*
X107568453Y-106242077D01*
X107583102Y-106212438D01*
X107665136Y-106046453D01*
X107665137Y-106046451D01*
X107667430Y-106041811D01*
X107732370Y-105828069D01*
X107761529Y-105606590D01*
X107763156Y-105540000D01*
X107744852Y-105317361D01*
X107690431Y-105100702D01*
X107601354Y-104895840D01*
X107520261Y-104770489D01*
X107482822Y-104712617D01*
X107482820Y-104712614D01*
X107480014Y-104708277D01*
X107461215Y-104687617D01*
X107332798Y-104546488D01*
X107301746Y-104482642D01*
X107310141Y-104412143D01*
X107355317Y-104357375D01*
X107381761Y-104343706D01*
X107488297Y-104303767D01*
X107496705Y-104300615D01*
X107613261Y-104213261D01*
X107700615Y-104096705D01*
X107751745Y-103960316D01*
X107758500Y-103898134D01*
X107758500Y-103734500D01*
X107778502Y-103666379D01*
X107832158Y-103619886D01*
X107884500Y-103608500D01*
X109226376Y-103608500D01*
X109294497Y-103628502D01*
X109340990Y-103682158D01*
X109345934Y-103694727D01*
X109361418Y-103741273D01*
X109365065Y-103747295D01*
X109365066Y-103747297D01*
X109439206Y-103869717D01*
X109455380Y-103896424D01*
X109581382Y-104026902D01*
X109649848Y-104071705D01*
X109699034Y-104103891D01*
X109733159Y-104126222D01*
X109739763Y-104128678D01*
X109739765Y-104128679D01*
X109896558Y-104186990D01*
X109896560Y-104186990D01*
X109903168Y-104189448D01*
X109986995Y-104200633D01*
X110075980Y-104212507D01*
X110075984Y-104212507D01*
X110082961Y-104213438D01*
X110089972Y-104212800D01*
X110089976Y-104212800D01*
X110232459Y-104199832D01*
X110263600Y-104196998D01*
X110270302Y-104194820D01*
X110270304Y-104194820D01*
X110429409Y-104143124D01*
X110429412Y-104143123D01*
X110436108Y-104140947D01*
X110566367Y-104063297D01*
X110585860Y-104051677D01*
X110585862Y-104051676D01*
X110591912Y-104048069D01*
X110723266Y-103922982D01*
X110823643Y-103771902D01*
X110865423Y-103661917D01*
X110885555Y-103608920D01*
X110885556Y-103608918D01*
X110888055Y-103602338D01*
X110907265Y-103465653D01*
X110912748Y-103426639D01*
X110912748Y-103426636D01*
X110913299Y-103422717D01*
X110913616Y-103400000D01*
X110893397Y-103219745D01*
X110891080Y-103213091D01*
X110836064Y-103055106D01*
X110836062Y-103055103D01*
X110833745Y-103048448D01*
X110785103Y-102970603D01*
X110741359Y-102900598D01*
X110737626Y-102894624D01*
X110705379Y-102862151D01*
X110614778Y-102770915D01*
X110614774Y-102770912D01*
X110609815Y-102765918D01*
X110589873Y-102753262D01*
X110535501Y-102718757D01*
X110456666Y-102668727D01*
X110427463Y-102658328D01*
X110292425Y-102610243D01*
X110292420Y-102610242D01*
X110285790Y-102607881D01*
X110278804Y-102607048D01*
X110278800Y-102607047D01*
X110224302Y-102600549D01*
X110202563Y-102597957D01*
X110137291Y-102570030D01*
X110136558Y-102569364D01*
X110133987Y-102566013D01*
X110102075Y-102541526D01*
X110102072Y-102541523D01*
X110092117Y-102533884D01*
X110013429Y-102473504D01*
X110013427Y-102473503D01*
X110006876Y-102468476D01*
X109899470Y-102423987D01*
X109844189Y-102379439D01*
X109821768Y-102312075D01*
X109842739Y-102237852D01*
X109886888Y-102171402D01*
X109946420Y-102014684D01*
X109948800Y-102008420D01*
X109948801Y-102008418D01*
X109951300Y-102001838D01*
X109952917Y-101990334D01*
X109975993Y-101826139D01*
X109975993Y-101826136D01*
X109976544Y-101822217D01*
X109976861Y-101799500D01*
X109956642Y-101619245D01*
X109953619Y-101610563D01*
X109899309Y-101454606D01*
X109899307Y-101454603D01*
X109896990Y-101447948D01*
X109837839Y-101353285D01*
X109804604Y-101300098D01*
X109800871Y-101294124D01*
X109795909Y-101289127D01*
X109745094Y-101237956D01*
X109711287Y-101175525D01*
X109708500Y-101149172D01*
X109708500Y-97140058D01*
X109728502Y-97071937D01*
X109782158Y-97025444D01*
X109852432Y-97015340D01*
X109917012Y-97044834D01*
X109942275Y-97074785D01*
X109955380Y-97096424D01*
X110081382Y-97226902D01*
X110126261Y-97256270D01*
X110214467Y-97313990D01*
X110233159Y-97326222D01*
X110239763Y-97328678D01*
X110239765Y-97328679D01*
X110396558Y-97386990D01*
X110396560Y-97386990D01*
X110403168Y-97389448D01*
X110486995Y-97400633D01*
X110575980Y-97412507D01*
X110575984Y-97412507D01*
X110582961Y-97413438D01*
X110589972Y-97412800D01*
X110589976Y-97412800D01*
X110732459Y-97399832D01*
X110763600Y-97396998D01*
X110770302Y-97394820D01*
X110770304Y-97394820D01*
X110929409Y-97343124D01*
X110929412Y-97343123D01*
X110936108Y-97340947D01*
X111091912Y-97248069D01*
X111223266Y-97122982D01*
X111323643Y-96971902D01*
X111388055Y-96802338D01*
X111389345Y-96793158D01*
X111404034Y-96688640D01*
X119986463Y-96688640D01*
X120004163Y-96869160D01*
X120061418Y-97041273D01*
X120065065Y-97047295D01*
X120065066Y-97047297D01*
X120121244Y-97140058D01*
X120155380Y-97196424D01*
X120160269Y-97201487D01*
X120160270Y-97201488D01*
X120211799Y-97254847D01*
X120281382Y-97326902D01*
X120313729Y-97348069D01*
X120389477Y-97397637D01*
X120433159Y-97426222D01*
X120439763Y-97428678D01*
X120439765Y-97428679D01*
X120596558Y-97486990D01*
X120596560Y-97486990D01*
X120603168Y-97489448D01*
X120686995Y-97500633D01*
X120775980Y-97512507D01*
X120775984Y-97512507D01*
X120782961Y-97513438D01*
X120789972Y-97512800D01*
X120789976Y-97512800D01*
X120932459Y-97499832D01*
X120963600Y-97496998D01*
X120970302Y-97494820D01*
X120970304Y-97494820D01*
X121129409Y-97443124D01*
X121129412Y-97443123D01*
X121136108Y-97440947D01*
X121275729Y-97357716D01*
X121285860Y-97351677D01*
X121285862Y-97351676D01*
X121291912Y-97348069D01*
X121303179Y-97337340D01*
X121378608Y-97265510D01*
X121441732Y-97233017D01*
X121512403Y-97239810D01*
X121568183Y-97283733D01*
X121591500Y-97356755D01*
X121591500Y-104415164D01*
X121571498Y-104483285D01*
X121570188Y-104485090D01*
X121569493Y-104485771D01*
X121567894Y-104488253D01*
X121567892Y-104488255D01*
X121544490Y-104524568D01*
X121471235Y-104638238D01*
X121468826Y-104644858D01*
X121468824Y-104644861D01*
X121423432Y-104769575D01*
X121409197Y-104808685D01*
X121386463Y-104988640D01*
X121404163Y-105169160D01*
X121461418Y-105341273D01*
X121465065Y-105347295D01*
X121465066Y-105347297D01*
X121480520Y-105372814D01*
X121555380Y-105496424D01*
X121560269Y-105501487D01*
X121560270Y-105501488D01*
X121570080Y-105511646D01*
X121681382Y-105626902D01*
X121833159Y-105726222D01*
X121912121Y-105755588D01*
X121968993Y-105798078D01*
X121993596Y-105861388D01*
X122004163Y-105969160D01*
X122061418Y-106141273D01*
X122065065Y-106147295D01*
X122065066Y-106147297D01*
X122149515Y-106286739D01*
X122155380Y-106296424D01*
X122160269Y-106301487D01*
X122160270Y-106301488D01*
X122203745Y-106346507D01*
X122281382Y-106426902D01*
X122287278Y-106430760D01*
X122408417Y-106510031D01*
X122433159Y-106526222D01*
X122439763Y-106528678D01*
X122439765Y-106528679D01*
X122596558Y-106586990D01*
X122596560Y-106586990D01*
X122603168Y-106589448D01*
X122686995Y-106600633D01*
X122775980Y-106612507D01*
X122775984Y-106612507D01*
X122782961Y-106613438D01*
X122789972Y-106612800D01*
X122789976Y-106612800D01*
X122932459Y-106599832D01*
X122963600Y-106596998D01*
X122970302Y-106594820D01*
X122970304Y-106594820D01*
X123129409Y-106543124D01*
X123129412Y-106543123D01*
X123136108Y-106540947D01*
X123291912Y-106448069D01*
X123423266Y-106322982D01*
X123523643Y-106171902D01*
X123572811Y-106042469D01*
X123585555Y-106008920D01*
X123585556Y-106008918D01*
X123588055Y-106002338D01*
X123589035Y-105995366D01*
X123612748Y-105826639D01*
X123612748Y-105826636D01*
X123613299Y-105822717D01*
X123613616Y-105800000D01*
X123593397Y-105619745D01*
X123591080Y-105613091D01*
X123536064Y-105455106D01*
X123536062Y-105455103D01*
X123533745Y-105448448D01*
X123437626Y-105294624D01*
X123435215Y-105292196D01*
X123409117Y-105227716D01*
X123408500Y-105215263D01*
X123408500Y-101934088D01*
X123428502Y-101865967D01*
X123482158Y-101819474D01*
X123551164Y-101809195D01*
X123567731Y-101811406D01*
X123575982Y-101812507D01*
X123575984Y-101812507D01*
X123582961Y-101813438D01*
X123589972Y-101812800D01*
X123589976Y-101812800D01*
X123733933Y-101799698D01*
X123763600Y-101796998D01*
X123770302Y-101794820D01*
X123770304Y-101794820D01*
X123929409Y-101743124D01*
X123929412Y-101743123D01*
X123936108Y-101740947D01*
X124091912Y-101648069D01*
X124223266Y-101522982D01*
X124323643Y-101371902D01*
X124347712Y-101308541D01*
X124390601Y-101251963D01*
X124457270Y-101227554D01*
X124526552Y-101243064D01*
X124576450Y-101293568D01*
X124591500Y-101353285D01*
X124591500Y-102115164D01*
X124571498Y-102183285D01*
X124570188Y-102185090D01*
X124569493Y-102185771D01*
X124567894Y-102188253D01*
X124567892Y-102188255D01*
X124560797Y-102199265D01*
X124471235Y-102338238D01*
X124468826Y-102344858D01*
X124468824Y-102344861D01*
X124423832Y-102468476D01*
X124409197Y-102508685D01*
X124386463Y-102688640D01*
X124404163Y-102869160D01*
X124461418Y-103041273D01*
X124465065Y-103047295D01*
X124465066Y-103047297D01*
X124512189Y-103125106D01*
X124555380Y-103196424D01*
X124560269Y-103201487D01*
X124560270Y-103201488D01*
X124592368Y-103234726D01*
X124681382Y-103326902D01*
X124687278Y-103330760D01*
X124793088Y-103400000D01*
X124833159Y-103426222D01*
X124839763Y-103428678D01*
X124839765Y-103428679D01*
X124996558Y-103486990D01*
X124996560Y-103486990D01*
X125003168Y-103489448D01*
X125086995Y-103500633D01*
X125175980Y-103512507D01*
X125175984Y-103512507D01*
X125182961Y-103513438D01*
X125189972Y-103512800D01*
X125189976Y-103512800D01*
X125332459Y-103499832D01*
X125363600Y-103496998D01*
X125370302Y-103494820D01*
X125370304Y-103494820D01*
X125529409Y-103443124D01*
X125529412Y-103443123D01*
X125536108Y-103440947D01*
X125691912Y-103348069D01*
X125814839Y-103231007D01*
X125877964Y-103198515D01*
X125948635Y-103205308D01*
X125992367Y-103234726D01*
X126076483Y-103321830D01*
X126076488Y-103321834D01*
X126081382Y-103326902D01*
X126087278Y-103330760D01*
X126193088Y-103400000D01*
X126233159Y-103426222D01*
X126239763Y-103428678D01*
X126239765Y-103428679D01*
X126396558Y-103486990D01*
X126396560Y-103486990D01*
X126403168Y-103489448D01*
X126486995Y-103500633D01*
X126575980Y-103512507D01*
X126575984Y-103512507D01*
X126582961Y-103513438D01*
X126589972Y-103512800D01*
X126589976Y-103512800D01*
X126732459Y-103499832D01*
X126763600Y-103496998D01*
X126770302Y-103494820D01*
X126770304Y-103494820D01*
X126929409Y-103443124D01*
X126929412Y-103443123D01*
X126936108Y-103440947D01*
X127091912Y-103348069D01*
X127223266Y-103222982D01*
X127323643Y-103071902D01*
X127366814Y-102958255D01*
X127385555Y-102908920D01*
X127385556Y-102908918D01*
X127388055Y-102902338D01*
X127389139Y-102894624D01*
X127412748Y-102726639D01*
X127412748Y-102726636D01*
X127413299Y-102722717D01*
X127413616Y-102700000D01*
X127393397Y-102519745D01*
X127391080Y-102513091D01*
X127336064Y-102355106D01*
X127336062Y-102355103D01*
X127333745Y-102348448D01*
X127237626Y-102194624D01*
X127235215Y-102192196D01*
X127209117Y-102127716D01*
X127208500Y-102115263D01*
X127208500Y-98400000D01*
X134682868Y-98400000D01*
X134701359Y-98611353D01*
X134702783Y-98616666D01*
X134702783Y-98616668D01*
X134726880Y-98706597D01*
X134756270Y-98816284D01*
X134758592Y-98821264D01*
X134758593Y-98821266D01*
X134843607Y-99003579D01*
X134843610Y-99003584D01*
X134845933Y-99008566D01*
X134875021Y-99050108D01*
X134944429Y-99149232D01*
X134967623Y-99182357D01*
X135117643Y-99332377D01*
X135122151Y-99335534D01*
X135122154Y-99335536D01*
X135194383Y-99386111D01*
X135291434Y-99454067D01*
X135296416Y-99456390D01*
X135296421Y-99456393D01*
X135478734Y-99541407D01*
X135483716Y-99543730D01*
X135489024Y-99545152D01*
X135489026Y-99545153D01*
X135683332Y-99597217D01*
X135683334Y-99597217D01*
X135688647Y-99598641D01*
X135900000Y-99617132D01*
X136111353Y-99598641D01*
X136116666Y-99597217D01*
X136116668Y-99597217D01*
X136310974Y-99545153D01*
X136310976Y-99545152D01*
X136316284Y-99543730D01*
X136321266Y-99541407D01*
X136503579Y-99456393D01*
X136503584Y-99456390D01*
X136508566Y-99454067D01*
X136605617Y-99386111D01*
X136677846Y-99335536D01*
X136677849Y-99335534D01*
X136682357Y-99332377D01*
X136832377Y-99182357D01*
X136855572Y-99149232D01*
X136924979Y-99050108D01*
X136954067Y-99008566D01*
X136956390Y-99003584D01*
X136956393Y-99003579D01*
X137035569Y-98833785D01*
X137043167Y-98825156D01*
X137042833Y-98822727D01*
X137045730Y-98808819D01*
X137097217Y-98616668D01*
X137097217Y-98616666D01*
X137098641Y-98611353D01*
X137117132Y-98400000D01*
X137098641Y-98188647D01*
X137081685Y-98125366D01*
X137045153Y-97989026D01*
X137045152Y-97989024D01*
X137043730Y-97983716D01*
X137018682Y-97930000D01*
X136956393Y-97796421D01*
X136956390Y-97796416D01*
X136954067Y-97791434D01*
X136832377Y-97617643D01*
X136682357Y-97467623D01*
X136677849Y-97464466D01*
X136677846Y-97464464D01*
X136581494Y-97396998D01*
X136508566Y-97345933D01*
X136503584Y-97343610D01*
X136503579Y-97343607D01*
X136321266Y-97258593D01*
X136321264Y-97258592D01*
X136316284Y-97256270D01*
X136310976Y-97254848D01*
X136310974Y-97254847D01*
X136116668Y-97202783D01*
X136116666Y-97202783D01*
X136111353Y-97201359D01*
X135900000Y-97182868D01*
X135688647Y-97201359D01*
X135683334Y-97202783D01*
X135683332Y-97202783D01*
X135489026Y-97254847D01*
X135489024Y-97254848D01*
X135483716Y-97256270D01*
X135478736Y-97258592D01*
X135478734Y-97258593D01*
X135296421Y-97343607D01*
X135296416Y-97343610D01*
X135291434Y-97345933D01*
X135218506Y-97396998D01*
X135122154Y-97464464D01*
X135122151Y-97464466D01*
X135117643Y-97467623D01*
X134967623Y-97617643D01*
X134845933Y-97791434D01*
X134843610Y-97796416D01*
X134843607Y-97796421D01*
X134781318Y-97930000D01*
X134756270Y-97983716D01*
X134754848Y-97989024D01*
X134754847Y-97989026D01*
X134718315Y-98125366D01*
X134701359Y-98188647D01*
X134682868Y-98400000D01*
X127208500Y-98400000D01*
X127208500Y-93400000D01*
X134682868Y-93400000D01*
X134701359Y-93611353D01*
X134702783Y-93616666D01*
X134702783Y-93616668D01*
X134751802Y-93799608D01*
X134756270Y-93816284D01*
X134758592Y-93821264D01*
X134758593Y-93821266D01*
X134843607Y-94003579D01*
X134843610Y-94003584D01*
X134845933Y-94008566D01*
X134871869Y-94045606D01*
X134963990Y-94177168D01*
X134967623Y-94182357D01*
X135117643Y-94332377D01*
X135122151Y-94335534D01*
X135122154Y-94335536D01*
X135165503Y-94365889D01*
X135291434Y-94454067D01*
X135296416Y-94456390D01*
X135296421Y-94456393D01*
X135478734Y-94541407D01*
X135483716Y-94543730D01*
X135489024Y-94545152D01*
X135489026Y-94545153D01*
X135683332Y-94597217D01*
X135683334Y-94597217D01*
X135688647Y-94598641D01*
X135900000Y-94617132D01*
X136111353Y-94598641D01*
X136116666Y-94597217D01*
X136116668Y-94597217D01*
X136310974Y-94545153D01*
X136310976Y-94545152D01*
X136316284Y-94543730D01*
X136321266Y-94541407D01*
X136503579Y-94456393D01*
X136503584Y-94456390D01*
X136508566Y-94454067D01*
X136634497Y-94365889D01*
X136677846Y-94335536D01*
X136677849Y-94335534D01*
X136682357Y-94332377D01*
X136832377Y-94182357D01*
X136836011Y-94177168D01*
X136928131Y-94045606D01*
X136954067Y-94008566D01*
X136956390Y-94003584D01*
X136956393Y-94003579D01*
X137041407Y-93821266D01*
X137041408Y-93821264D01*
X137043730Y-93816284D01*
X137048199Y-93799608D01*
X137097217Y-93616668D01*
X137097217Y-93616666D01*
X137098641Y-93611353D01*
X137117132Y-93400000D01*
X137098641Y-93188647D01*
X137097217Y-93183332D01*
X137045153Y-92989026D01*
X137045152Y-92989024D01*
X137043730Y-92983716D01*
X137040059Y-92975844D01*
X136956393Y-92796421D01*
X136956390Y-92796416D01*
X136954067Y-92791434D01*
X136832377Y-92617643D01*
X136682357Y-92467623D01*
X136677849Y-92464466D01*
X136677846Y-92464464D01*
X136605617Y-92413889D01*
X136508566Y-92345933D01*
X136503584Y-92343610D01*
X136503579Y-92343607D01*
X136321266Y-92258593D01*
X136321264Y-92258592D01*
X136316284Y-92256270D01*
X136310976Y-92254848D01*
X136310974Y-92254847D01*
X136116668Y-92202783D01*
X136116666Y-92202783D01*
X136111353Y-92201359D01*
X135900000Y-92182868D01*
X135688647Y-92201359D01*
X135683334Y-92202783D01*
X135683332Y-92202783D01*
X135489026Y-92254847D01*
X135489024Y-92254848D01*
X135483716Y-92256270D01*
X135478736Y-92258592D01*
X135478734Y-92258593D01*
X135296421Y-92343607D01*
X135296416Y-92343610D01*
X135291434Y-92345933D01*
X135194383Y-92413889D01*
X135122154Y-92464464D01*
X135122151Y-92464466D01*
X135117643Y-92467623D01*
X134967623Y-92617643D01*
X134845933Y-92791434D01*
X134843610Y-92796416D01*
X134843607Y-92796421D01*
X134759941Y-92975844D01*
X134756270Y-92983716D01*
X134754848Y-92989024D01*
X134754847Y-92989026D01*
X134702783Y-93183332D01*
X134701359Y-93188647D01*
X134682868Y-93400000D01*
X127208500Y-93400000D01*
X127208500Y-91288640D01*
X128086463Y-91288640D01*
X128104163Y-91469160D01*
X128161418Y-91641273D01*
X128165065Y-91647295D01*
X128165066Y-91647297D01*
X128185869Y-91681646D01*
X128255380Y-91796424D01*
X128381382Y-91926902D01*
X128387278Y-91930760D01*
X128508741Y-92010243D01*
X128533159Y-92026222D01*
X128539763Y-92028678D01*
X128539765Y-92028679D01*
X128696558Y-92086990D01*
X128696560Y-92086990D01*
X128703168Y-92089448D01*
X128786995Y-92100633D01*
X128875980Y-92112507D01*
X128875984Y-92112507D01*
X128882961Y-92113438D01*
X128889972Y-92112800D01*
X128889976Y-92112800D01*
X129032459Y-92099832D01*
X129063600Y-92096998D01*
X129070302Y-92094820D01*
X129070304Y-92094820D01*
X129229409Y-92043124D01*
X129229412Y-92043123D01*
X129236108Y-92040947D01*
X129391912Y-91948069D01*
X129523266Y-91822982D01*
X129623643Y-91671902D01*
X129688055Y-91502338D01*
X129691779Y-91475844D01*
X129703420Y-91393009D01*
X129732708Y-91328335D01*
X129739099Y-91321450D01*
X130096234Y-90964315D01*
X130108625Y-90953448D01*
X130127437Y-90939013D01*
X130133987Y-90933987D01*
X130158474Y-90902075D01*
X130158478Y-90902071D01*
X130231524Y-90806876D01*
X130292838Y-90658851D01*
X130295759Y-90636662D01*
X130308500Y-90539885D01*
X130308500Y-90539880D01*
X130313750Y-90500000D01*
X130309578Y-90468307D01*
X130308500Y-90451864D01*
X130308500Y-86083248D01*
X130329552Y-86013521D01*
X130357293Y-85971768D01*
X130423643Y-85871902D01*
X130474716Y-85737452D01*
X130485555Y-85708920D01*
X130485556Y-85708918D01*
X130488055Y-85702338D01*
X130489903Y-85689187D01*
X130512748Y-85526639D01*
X130512748Y-85526636D01*
X130513299Y-85522717D01*
X130513492Y-85508864D01*
X130513561Y-85503962D01*
X130513561Y-85503957D01*
X130513616Y-85500000D01*
X130493397Y-85319745D01*
X130489882Y-85309651D01*
X130436064Y-85155106D01*
X130436062Y-85155103D01*
X130433745Y-85148448D01*
X130357631Y-85026639D01*
X130341359Y-85000598D01*
X130337626Y-84994624D01*
X130323941Y-84980843D01*
X130214778Y-84870915D01*
X130214774Y-84870912D01*
X130209815Y-84865918D01*
X130198697Y-84858862D01*
X130137058Y-84819745D01*
X130056666Y-84768727D01*
X130027463Y-84758328D01*
X129892425Y-84710243D01*
X129892420Y-84710242D01*
X129885790Y-84707881D01*
X129878802Y-84707048D01*
X129878799Y-84707047D01*
X129755698Y-84692368D01*
X129705680Y-84686404D01*
X129698677Y-84687140D01*
X129698676Y-84687140D01*
X129532288Y-84704628D01*
X129532286Y-84704629D01*
X129525288Y-84705364D01*
X129353579Y-84763818D01*
X129320418Y-84784219D01*
X129205095Y-84855166D01*
X129205092Y-84855168D01*
X129199088Y-84858862D01*
X129194053Y-84863793D01*
X129194050Y-84863795D01*
X129074525Y-84980843D01*
X129069493Y-84985771D01*
X128971235Y-85138238D01*
X128968826Y-85144858D01*
X128968824Y-85144861D01*
X128923079Y-85270545D01*
X128909197Y-85308685D01*
X128886463Y-85488640D01*
X128904163Y-85669160D01*
X128961418Y-85841273D01*
X128965065Y-85847295D01*
X128965066Y-85847297D01*
X129051730Y-85990398D01*
X129051733Y-85990401D01*
X129055380Y-85996424D01*
X129060275Y-86001492D01*
X129064571Y-86007071D01*
X129062243Y-86008864D01*
X129089071Y-86060115D01*
X129091500Y-86084734D01*
X129091500Y-90195761D01*
X129071498Y-90263882D01*
X129054595Y-90284856D01*
X128878416Y-90461035D01*
X128816104Y-90495061D01*
X128802495Y-90497249D01*
X128780802Y-90499529D01*
X128732296Y-90504627D01*
X128732292Y-90504628D01*
X128725288Y-90505364D01*
X128553579Y-90563818D01*
X128547575Y-90567512D01*
X128405095Y-90655166D01*
X128405092Y-90655168D01*
X128399088Y-90658862D01*
X128394053Y-90663793D01*
X128394050Y-90663795D01*
X128274525Y-90780843D01*
X128269493Y-90785771D01*
X128171235Y-90938238D01*
X128168826Y-90944858D01*
X128168824Y-90944861D01*
X128111606Y-91102066D01*
X128109197Y-91108685D01*
X128086463Y-91288640D01*
X127208500Y-91288640D01*
X127208500Y-79188640D01*
X129486463Y-79188640D01*
X129504163Y-79369160D01*
X129561418Y-79541273D01*
X129565065Y-79547295D01*
X129565066Y-79547297D01*
X129650316Y-79688062D01*
X129655380Y-79696424D01*
X129660269Y-79701487D01*
X129660270Y-79701488D01*
X129666444Y-79707881D01*
X129781382Y-79826902D01*
X129787278Y-79830760D01*
X129909508Y-79910745D01*
X129933159Y-79926222D01*
X129939763Y-79928678D01*
X129939765Y-79928679D01*
X130096558Y-79986990D01*
X130096560Y-79986990D01*
X130103168Y-79989448D01*
X130186732Y-80000598D01*
X130275980Y-80012507D01*
X130275984Y-80012507D01*
X130282961Y-80013438D01*
X130289972Y-80012800D01*
X130289976Y-80012800D01*
X130432459Y-79999832D01*
X130463600Y-79996998D01*
X130470302Y-79994820D01*
X130470304Y-79994820D01*
X130629409Y-79943124D01*
X130629412Y-79943123D01*
X130636108Y-79940947D01*
X130656688Y-79928679D01*
X130700983Y-79902274D01*
X130769738Y-79884574D01*
X130837147Y-79906856D01*
X130881809Y-79962045D01*
X130891500Y-80010503D01*
X130891500Y-81415164D01*
X130871498Y-81483285D01*
X130870188Y-81485090D01*
X130869493Y-81485771D01*
X130867894Y-81488253D01*
X130867892Y-81488255D01*
X130853115Y-81511185D01*
X130771235Y-81638238D01*
X130768826Y-81644858D01*
X130768824Y-81644861D01*
X130730084Y-81751299D01*
X130709197Y-81808685D01*
X130686463Y-81988640D01*
X130704163Y-82169160D01*
X130761418Y-82341273D01*
X130765065Y-82347295D01*
X130765066Y-82347297D01*
X130792409Y-82392445D01*
X130855380Y-82496424D01*
X130981382Y-82626902D01*
X131133159Y-82726222D01*
X131139763Y-82728678D01*
X131139765Y-82728679D01*
X131296558Y-82786990D01*
X131296560Y-82786990D01*
X131303168Y-82789448D01*
X131386995Y-82800633D01*
X131475980Y-82812507D01*
X131475984Y-82812507D01*
X131482961Y-82813438D01*
X131489972Y-82812800D01*
X131489976Y-82812800D01*
X131632459Y-82799832D01*
X131663600Y-82796998D01*
X131670302Y-82794820D01*
X131670304Y-82794820D01*
X131829409Y-82743124D01*
X131829412Y-82743123D01*
X131836108Y-82740947D01*
X131991912Y-82648069D01*
X132123266Y-82522982D01*
X132223643Y-82371902D01*
X132288055Y-82202338D01*
X132289035Y-82195366D01*
X132312748Y-82026639D01*
X132312748Y-82026636D01*
X132313299Y-82022717D01*
X132313616Y-82000000D01*
X132293397Y-81819745D01*
X132291080Y-81813091D01*
X132236064Y-81655106D01*
X132236062Y-81655103D01*
X132233745Y-81648448D01*
X132137626Y-81494624D01*
X132135215Y-81492196D01*
X132109117Y-81427716D01*
X132108500Y-81415263D01*
X132108500Y-76830132D01*
X132121983Y-76774400D01*
X132123643Y-76771902D01*
X132158413Y-76680372D01*
X132185555Y-76608920D01*
X132185556Y-76608918D01*
X132188055Y-76602338D01*
X132189035Y-76595366D01*
X132212748Y-76426639D01*
X132212748Y-76426636D01*
X132213299Y-76422717D01*
X132213616Y-76400000D01*
X132193397Y-76219745D01*
X132184226Y-76193410D01*
X132136064Y-76055106D01*
X132136062Y-76055103D01*
X132133745Y-76048448D01*
X132037626Y-75894624D01*
X132025626Y-75882540D01*
X131914778Y-75770915D01*
X131914774Y-75770912D01*
X131909815Y-75765918D01*
X131756666Y-75668727D01*
X131680274Y-75641525D01*
X131592425Y-75610243D01*
X131592420Y-75610242D01*
X131585790Y-75607881D01*
X131578802Y-75607048D01*
X131578799Y-75607047D01*
X131455698Y-75592368D01*
X131405680Y-75586404D01*
X131398677Y-75587140D01*
X131398676Y-75587140D01*
X131232288Y-75604628D01*
X131232286Y-75604629D01*
X131225288Y-75605364D01*
X131136232Y-75635681D01*
X131075105Y-75656490D01*
X131004173Y-75659508D01*
X130942869Y-75623698D01*
X130910657Y-75560429D01*
X130908500Y-75537212D01*
X130908500Y-72083248D01*
X130929552Y-72013521D01*
X131005307Y-71899500D01*
X131023643Y-71871902D01*
X131088055Y-71702338D01*
X131089980Y-71688640D01*
X131112748Y-71526639D01*
X131112748Y-71526636D01*
X131113299Y-71522717D01*
X131113495Y-71508685D01*
X131113561Y-71503962D01*
X131113561Y-71503957D01*
X131113616Y-71500000D01*
X131093397Y-71319745D01*
X131090029Y-71310072D01*
X131036064Y-71155106D01*
X131036062Y-71155103D01*
X131033745Y-71148448D01*
X131027365Y-71138238D01*
X130941359Y-71000598D01*
X130937626Y-70994624D01*
X130909561Y-70966362D01*
X130814778Y-70870915D01*
X130814774Y-70870912D01*
X130809815Y-70865918D01*
X130798697Y-70858862D01*
X130733128Y-70817251D01*
X130656666Y-70768727D01*
X130627463Y-70758328D01*
X130492425Y-70710243D01*
X130492420Y-70710242D01*
X130485790Y-70707881D01*
X130478802Y-70707048D01*
X130478799Y-70707047D01*
X130355698Y-70692368D01*
X130305680Y-70686404D01*
X130298677Y-70687140D01*
X130298676Y-70687140D01*
X130132288Y-70704628D01*
X130132286Y-70704629D01*
X130125288Y-70705364D01*
X129953579Y-70763818D01*
X129947575Y-70767512D01*
X129805095Y-70855166D01*
X129805092Y-70855168D01*
X129799088Y-70858862D01*
X129794053Y-70863793D01*
X129794050Y-70863795D01*
X129674525Y-70980843D01*
X129669493Y-70985771D01*
X129571235Y-71138238D01*
X129568826Y-71144858D01*
X129568824Y-71144861D01*
X129522541Y-71272022D01*
X129509197Y-71308685D01*
X129486463Y-71488640D01*
X129504163Y-71669160D01*
X129561418Y-71841273D01*
X129565065Y-71847295D01*
X129565066Y-71847297D01*
X129651730Y-71990398D01*
X129651733Y-71990401D01*
X129655380Y-71996424D01*
X129660275Y-72001492D01*
X129664571Y-72007071D01*
X129662243Y-72008864D01*
X129689071Y-72060115D01*
X129691500Y-72084734D01*
X129691500Y-78615164D01*
X129671498Y-78683285D01*
X129670188Y-78685090D01*
X129669493Y-78685771D01*
X129667894Y-78688253D01*
X129667892Y-78688255D01*
X129607706Y-78781646D01*
X129571235Y-78838238D01*
X129568826Y-78844858D01*
X129568824Y-78844861D01*
X129551300Y-78893009D01*
X129509197Y-79008685D01*
X129486463Y-79188640D01*
X127208500Y-79188640D01*
X127208500Y-75704239D01*
X127228502Y-75636118D01*
X127245405Y-75615144D01*
X127921282Y-74939267D01*
X127983594Y-74905241D01*
X127998955Y-74902881D01*
X128063600Y-74896998D01*
X128070302Y-74894820D01*
X128070304Y-74894820D01*
X128229409Y-74843124D01*
X128229412Y-74843123D01*
X128236108Y-74840947D01*
X128361970Y-74765918D01*
X128385860Y-74751677D01*
X128385862Y-74751676D01*
X128391912Y-74748069D01*
X128523266Y-74622982D01*
X128623643Y-74471902D01*
X128665423Y-74361917D01*
X128685555Y-74308920D01*
X128685556Y-74308918D01*
X128688055Y-74302338D01*
X128709089Y-74152675D01*
X128712748Y-74126639D01*
X128712748Y-74126636D01*
X128713299Y-74122717D01*
X128713616Y-74100000D01*
X128693397Y-73919745D01*
X128690612Y-73911748D01*
X128636064Y-73755106D01*
X128636062Y-73755103D01*
X128633745Y-73748448D01*
X128621581Y-73728982D01*
X128541359Y-73600598D01*
X128537626Y-73594624D01*
X128486571Y-73543211D01*
X128414778Y-73470915D01*
X128414774Y-73470912D01*
X128409815Y-73465918D01*
X128398697Y-73458862D01*
X128317137Y-73407103D01*
X128256666Y-73368727D01*
X128218582Y-73355166D01*
X128092425Y-73310243D01*
X128092420Y-73310242D01*
X128085790Y-73307881D01*
X128078802Y-73307048D01*
X128078799Y-73307047D01*
X127955698Y-73292368D01*
X127905680Y-73286404D01*
X127898677Y-73287140D01*
X127898676Y-73287140D01*
X127732288Y-73304628D01*
X127732286Y-73304629D01*
X127725288Y-73305364D01*
X127553579Y-73363818D01*
X127547575Y-73367512D01*
X127405095Y-73455166D01*
X127405092Y-73455168D01*
X127399088Y-73458862D01*
X127394053Y-73463793D01*
X127394050Y-73463795D01*
X127293953Y-73561818D01*
X127269493Y-73585771D01*
X127171235Y-73738238D01*
X127168826Y-73744858D01*
X127168824Y-73744861D01*
X127115452Y-73891500D01*
X127109197Y-73908685D01*
X127108314Y-73915675D01*
X127097025Y-74005034D01*
X127068643Y-74070111D01*
X127061114Y-74078337D01*
X126203766Y-74935685D01*
X126191375Y-74946552D01*
X126166013Y-74966013D01*
X126141526Y-74997925D01*
X126141523Y-74997928D01*
X126068476Y-75093124D01*
X126016028Y-75219745D01*
X126007162Y-75241150D01*
X125991500Y-75360115D01*
X125991500Y-75360120D01*
X125986250Y-75400000D01*
X125987328Y-75408188D01*
X125990422Y-75431690D01*
X125991500Y-75448136D01*
X125991500Y-75787316D01*
X125971498Y-75855437D01*
X125917842Y-75901930D01*
X125847568Y-75912034D01*
X125782988Y-75882540D01*
X125749091Y-75835535D01*
X125734683Y-75800751D01*
X125731524Y-75793124D01*
X125714483Y-75770915D01*
X125658483Y-75697936D01*
X125658477Y-75697928D01*
X125658474Y-75697925D01*
X125633987Y-75666013D01*
X125621577Y-75656490D01*
X125608621Y-75646548D01*
X125596230Y-75635681D01*
X125450463Y-75489914D01*
X125416437Y-75427602D01*
X125413708Y-75406974D01*
X125413561Y-75403964D01*
X125413616Y-75400000D01*
X125393397Y-75219745D01*
X125391080Y-75213091D01*
X125336064Y-75055106D01*
X125336062Y-75055103D01*
X125333745Y-75048448D01*
X125244260Y-74905241D01*
X125241359Y-74900598D01*
X125237626Y-74894624D01*
X125223941Y-74880843D01*
X125114778Y-74770915D01*
X125114774Y-74770912D01*
X125109815Y-74765918D01*
X125098697Y-74758862D01*
X125050538Y-74728300D01*
X124956666Y-74668727D01*
X124927463Y-74658328D01*
X124792425Y-74610243D01*
X124792420Y-74610242D01*
X124785790Y-74607881D01*
X124778802Y-74607048D01*
X124778799Y-74607047D01*
X124655698Y-74592368D01*
X124605680Y-74586404D01*
X124598677Y-74587140D01*
X124598676Y-74587140D01*
X124432288Y-74604628D01*
X124432286Y-74604629D01*
X124425288Y-74605364D01*
X124253579Y-74663818D01*
X124247575Y-74667512D01*
X124105095Y-74755166D01*
X124105092Y-74755168D01*
X124099088Y-74758862D01*
X124094053Y-74763793D01*
X124094050Y-74763795D01*
X123974525Y-74880843D01*
X123969493Y-74885771D01*
X123871235Y-75038238D01*
X123868826Y-75044858D01*
X123868824Y-75044861D01*
X123827033Y-75159680D01*
X123809197Y-75208685D01*
X123786463Y-75388640D01*
X123804163Y-75569160D01*
X123861418Y-75741273D01*
X123865065Y-75747295D01*
X123865066Y-75747297D01*
X123951264Y-75889627D01*
X123955380Y-75896424D01*
X123960269Y-75901487D01*
X123960270Y-75901488D01*
X123985861Y-75927988D01*
X124081382Y-76026902D01*
X124134640Y-76061753D01*
X124205602Y-76108189D01*
X124233159Y-76126222D01*
X124239763Y-76128678D01*
X124239765Y-76128679D01*
X124320097Y-76158554D01*
X124403168Y-76189448D01*
X124404527Y-76189629D01*
X124461076Y-76221625D01*
X124554595Y-76315144D01*
X124588621Y-76377456D01*
X124591500Y-76404239D01*
X124591500Y-94961494D01*
X124571498Y-95029615D01*
X124517842Y-95076108D01*
X124447568Y-95086212D01*
X124382988Y-95056718D01*
X124358646Y-95028264D01*
X124337626Y-94994624D01*
X124332664Y-94989627D01*
X124214778Y-94870915D01*
X124214774Y-94870912D01*
X124209815Y-94865918D01*
X124056666Y-94768727D01*
X124003111Y-94749657D01*
X123892425Y-94710243D01*
X123892420Y-94710242D01*
X123885790Y-94707881D01*
X123878802Y-94707048D01*
X123878799Y-94707047D01*
X123737841Y-94690239D01*
X123705680Y-94686404D01*
X123698677Y-94687140D01*
X123698675Y-94687140D01*
X123547670Y-94703011D01*
X123477832Y-94690239D01*
X123425985Y-94641737D01*
X123408500Y-94577701D01*
X123408500Y-81186276D01*
X123428502Y-81118155D01*
X123447608Y-81095030D01*
X123523266Y-81022982D01*
X123623643Y-80871902D01*
X123688055Y-80702338D01*
X123689035Y-80695366D01*
X123712748Y-80526639D01*
X123712748Y-80526636D01*
X123713299Y-80522717D01*
X123713616Y-80500000D01*
X123693397Y-80319745D01*
X123633745Y-80148448D01*
X123537626Y-79994624D01*
X123505274Y-79962045D01*
X123414778Y-79870915D01*
X123414774Y-79870912D01*
X123409815Y-79865918D01*
X123381690Y-79848069D01*
X123348335Y-79826902D01*
X123256666Y-79768727D01*
X123213151Y-79753232D01*
X123092425Y-79710243D01*
X123092420Y-79710242D01*
X123085790Y-79707881D01*
X123078804Y-79707048D01*
X123078800Y-79707047D01*
X122990678Y-79696539D01*
X122919580Y-79688061D01*
X122854308Y-79660135D01*
X122814495Y-79601352D01*
X122808500Y-79562948D01*
X122808500Y-73769371D01*
X122828502Y-73701250D01*
X122869982Y-73661142D01*
X122885866Y-73651673D01*
X122891912Y-73648069D01*
X122897006Y-73643218D01*
X122897010Y-73643215D01*
X122996922Y-73548069D01*
X123023266Y-73522982D01*
X123123643Y-73371902D01*
X123188055Y-73202338D01*
X123189035Y-73195366D01*
X123212748Y-73026639D01*
X123212748Y-73026636D01*
X123213299Y-73022717D01*
X123213616Y-73000000D01*
X123193397Y-72819745D01*
X123191080Y-72813091D01*
X123136064Y-72655106D01*
X123136062Y-72655103D01*
X123133745Y-72648448D01*
X123037626Y-72494624D01*
X123023941Y-72480843D01*
X122914778Y-72370915D01*
X122914774Y-72370912D01*
X122909815Y-72365918D01*
X122898697Y-72358862D01*
X122849008Y-72327329D01*
X122756666Y-72268727D01*
X122718582Y-72255166D01*
X122592425Y-72210243D01*
X122592420Y-72210242D01*
X122585790Y-72207881D01*
X122578802Y-72207048D01*
X122578799Y-72207047D01*
X122439174Y-72190398D01*
X122405680Y-72186404D01*
X122398677Y-72187140D01*
X122398676Y-72187140D01*
X122232288Y-72204628D01*
X122232286Y-72204629D01*
X122225288Y-72205364D01*
X122053579Y-72263818D01*
X122021996Y-72283248D01*
X121905095Y-72355166D01*
X121905092Y-72355168D01*
X121899088Y-72358862D01*
X121894053Y-72363793D01*
X121894050Y-72363795D01*
X121831013Y-72425526D01*
X121769493Y-72485771D01*
X121671235Y-72638238D01*
X121668826Y-72644858D01*
X121668824Y-72644861D01*
X121639021Y-72726744D01*
X121609197Y-72808685D01*
X121586463Y-72988640D01*
X121596838Y-73094453D01*
X121596361Y-73123189D01*
X121591500Y-73160115D01*
X121591500Y-73160120D01*
X121586250Y-73200000D01*
X121587599Y-73210243D01*
X121590422Y-73231690D01*
X121591500Y-73248136D01*
X121591500Y-85252026D01*
X121571498Y-85320147D01*
X121517842Y-85366640D01*
X121447568Y-85376744D01*
X121397986Y-85358411D01*
X121330644Y-85315675D01*
X121256666Y-85268727D01*
X121196666Y-85247362D01*
X121092425Y-85210243D01*
X121092420Y-85210242D01*
X121085790Y-85207881D01*
X121078802Y-85207048D01*
X121078799Y-85207047D01*
X120955698Y-85192368D01*
X120905680Y-85186404D01*
X120898677Y-85187140D01*
X120898676Y-85187140D01*
X120732288Y-85204628D01*
X120732286Y-85204629D01*
X120725288Y-85205364D01*
X120553579Y-85263818D01*
X120508077Y-85291811D01*
X120405095Y-85355166D01*
X120405092Y-85355168D01*
X120399088Y-85358862D01*
X120394053Y-85363793D01*
X120394050Y-85363795D01*
X120280976Y-85474526D01*
X120269493Y-85485771D01*
X120171235Y-85638238D01*
X120168826Y-85644858D01*
X120168824Y-85644861D01*
X120121790Y-85774087D01*
X120109197Y-85808685D01*
X120086463Y-85988640D01*
X120104163Y-86169160D01*
X120161418Y-86341273D01*
X120165065Y-86347296D01*
X120165066Y-86347297D01*
X120173276Y-86360853D01*
X120191500Y-86426124D01*
X120191500Y-96115164D01*
X120171498Y-96183285D01*
X120170188Y-96185090D01*
X120169493Y-96185771D01*
X120167894Y-96188253D01*
X120167892Y-96188255D01*
X120126231Y-96252900D01*
X120071235Y-96338238D01*
X120068826Y-96344858D01*
X120068824Y-96344861D01*
X120012044Y-96500863D01*
X120009197Y-96508685D01*
X119986463Y-96688640D01*
X111404034Y-96688640D01*
X111412748Y-96626639D01*
X111412748Y-96626636D01*
X111413299Y-96622717D01*
X111413616Y-96600000D01*
X111393397Y-96419745D01*
X111391080Y-96413091D01*
X111336064Y-96255106D01*
X111336062Y-96255103D01*
X111333745Y-96248448D01*
X111328278Y-96239698D01*
X111241362Y-96100603D01*
X111237626Y-96094624D01*
X111235215Y-96092196D01*
X111209117Y-96027716D01*
X111208500Y-96015263D01*
X111208500Y-95388640D01*
X116786463Y-95388640D01*
X116804163Y-95569160D01*
X116861418Y-95741273D01*
X116865065Y-95747295D01*
X116865066Y-95747297D01*
X116949214Y-95886242D01*
X116955380Y-95896424D01*
X117081382Y-96026902D01*
X117113729Y-96048069D01*
X117224073Y-96120276D01*
X117233159Y-96126222D01*
X117239763Y-96128678D01*
X117239765Y-96128679D01*
X117396558Y-96186990D01*
X117396560Y-96186990D01*
X117403168Y-96189448D01*
X117486995Y-96200633D01*
X117575980Y-96212507D01*
X117575984Y-96212507D01*
X117582961Y-96213438D01*
X117589972Y-96212800D01*
X117589976Y-96212800D01*
X117732459Y-96199832D01*
X117763600Y-96196998D01*
X117770302Y-96194820D01*
X117770304Y-96194820D01*
X117929409Y-96143124D01*
X117929412Y-96143123D01*
X117936108Y-96140947D01*
X118048230Y-96074109D01*
X118085860Y-96051677D01*
X118085862Y-96051676D01*
X118091912Y-96048069D01*
X118223266Y-95922982D01*
X118323643Y-95771902D01*
X118388055Y-95602338D01*
X118389214Y-95594094D01*
X118412748Y-95426639D01*
X118412748Y-95426636D01*
X118413299Y-95422717D01*
X118413616Y-95400000D01*
X118393397Y-95219745D01*
X118391080Y-95213091D01*
X118336064Y-95055106D01*
X118336062Y-95055103D01*
X118333745Y-95048448D01*
X118237626Y-94894624D01*
X118235215Y-94892196D01*
X118209117Y-94827716D01*
X118208500Y-94815263D01*
X118208500Y-93383248D01*
X118229552Y-93313521D01*
X118279314Y-93238622D01*
X118323643Y-93171902D01*
X118374798Y-93037237D01*
X118385555Y-93008920D01*
X118385556Y-93008918D01*
X118388055Y-93002338D01*
X118391372Y-92978734D01*
X118412748Y-92826639D01*
X118412748Y-92826636D01*
X118413299Y-92822717D01*
X118413616Y-92800000D01*
X118393397Y-92619745D01*
X118391080Y-92613091D01*
X118336064Y-92455106D01*
X118336062Y-92455103D01*
X118333745Y-92448448D01*
X118285116Y-92370625D01*
X118241359Y-92300598D01*
X118237626Y-92294624D01*
X118181099Y-92237701D01*
X118114778Y-92170915D01*
X118114774Y-92170912D01*
X118109815Y-92165918D01*
X118098697Y-92158862D01*
X118001214Y-92096998D01*
X117956666Y-92068727D01*
X117915942Y-92054226D01*
X117792425Y-92010243D01*
X117792420Y-92010242D01*
X117785790Y-92007881D01*
X117778802Y-92007048D01*
X117778799Y-92007047D01*
X117655698Y-91992368D01*
X117605680Y-91986404D01*
X117598677Y-91987140D01*
X117598676Y-91987140D01*
X117432288Y-92004628D01*
X117432286Y-92004629D01*
X117425288Y-92005364D01*
X117253579Y-92063818D01*
X117221744Y-92083403D01*
X117105095Y-92155166D01*
X117105092Y-92155168D01*
X117099088Y-92158862D01*
X117094053Y-92163793D01*
X117094050Y-92163795D01*
X117018287Y-92237988D01*
X116969493Y-92285771D01*
X116871235Y-92438238D01*
X116868826Y-92444858D01*
X116868824Y-92444861D01*
X116811606Y-92602066D01*
X116809197Y-92608685D01*
X116786463Y-92788640D01*
X116804163Y-92969160D01*
X116861418Y-93141273D01*
X116865065Y-93147295D01*
X116865066Y-93147297D01*
X116951730Y-93290398D01*
X116951733Y-93290401D01*
X116955380Y-93296424D01*
X116960275Y-93301492D01*
X116964571Y-93307071D01*
X116962243Y-93308864D01*
X116989071Y-93360115D01*
X116991500Y-93384734D01*
X116991500Y-94815164D01*
X116971498Y-94883285D01*
X116970188Y-94885090D01*
X116969493Y-94885771D01*
X116967894Y-94888253D01*
X116967892Y-94888255D01*
X116902144Y-94990276D01*
X116871235Y-95038238D01*
X116868826Y-95044858D01*
X116868824Y-95044861D01*
X116819588Y-95180135D01*
X116809197Y-95208685D01*
X116786463Y-95388640D01*
X111208500Y-95388640D01*
X111208500Y-73728982D01*
X111228502Y-73660861D01*
X111269982Y-73620754D01*
X111363958Y-73564733D01*
X111385860Y-73551677D01*
X111385862Y-73551676D01*
X111391912Y-73548069D01*
X111523266Y-73422982D01*
X111623643Y-73271902D01*
X111688055Y-73102338D01*
X111695504Y-73049338D01*
X111712748Y-72926639D01*
X111712748Y-72926636D01*
X111713299Y-72922717D01*
X111713616Y-72900000D01*
X111693397Y-72719745D01*
X111691080Y-72713091D01*
X111636064Y-72555106D01*
X111636062Y-72555103D01*
X111633745Y-72548448D01*
X111556936Y-72425526D01*
X111541359Y-72400598D01*
X111537626Y-72394624D01*
X111509120Y-72365918D01*
X111414778Y-72270915D01*
X111414774Y-72270912D01*
X111409815Y-72265918D01*
X111402928Y-72261547D01*
X111322085Y-72210243D01*
X111256666Y-72168727D01*
X111176890Y-72140320D01*
X111092425Y-72110243D01*
X111092420Y-72110242D01*
X111085790Y-72107881D01*
X111078802Y-72107048D01*
X111078799Y-72107047D01*
X110955698Y-72092368D01*
X110905680Y-72086404D01*
X110898677Y-72087140D01*
X110898676Y-72087140D01*
X110732288Y-72104628D01*
X110732286Y-72104629D01*
X110725288Y-72105364D01*
X110553579Y-72163818D01*
X110547575Y-72167512D01*
X110405095Y-72255166D01*
X110405092Y-72255168D01*
X110399088Y-72258862D01*
X110394053Y-72263793D01*
X110394050Y-72263795D01*
X110293621Y-72362143D01*
X110269493Y-72385771D01*
X110171235Y-72538238D01*
X110168826Y-72544858D01*
X110168824Y-72544861D01*
X110111606Y-72702066D01*
X110109197Y-72708685D01*
X110108314Y-72715675D01*
X110093606Y-72832099D01*
X110074812Y-72877790D01*
X110077633Y-72879419D01*
X110073501Y-72886575D01*
X110068476Y-72893124D01*
X110065317Y-72900750D01*
X110065316Y-72900752D01*
X110031809Y-72981646D01*
X110015728Y-73020470D01*
X110007162Y-73041150D01*
X109991500Y-73160115D01*
X109991500Y-73160120D01*
X109986250Y-73200000D01*
X109987599Y-73210243D01*
X109990422Y-73231690D01*
X109991500Y-73248136D01*
X109991500Y-96015164D01*
X109971498Y-96083285D01*
X109970188Y-96085091D01*
X109969493Y-96085771D01*
X109940409Y-96130901D01*
X109886697Y-96177323D01*
X109816411Y-96187338D01*
X109751867Y-96157763D01*
X109713559Y-96097989D01*
X109708500Y-96062643D01*
X109708500Y-85848136D01*
X109709578Y-85831690D01*
X109712672Y-85808188D01*
X109713750Y-85800000D01*
X109708500Y-85760122D01*
X109708500Y-85760115D01*
X109692838Y-85641150D01*
X109631524Y-85493125D01*
X109577179Y-85422301D01*
X109558477Y-85397928D01*
X109558474Y-85397925D01*
X109533987Y-85366013D01*
X109524080Y-85358411D01*
X109508621Y-85346548D01*
X109496230Y-85335681D01*
X108438888Y-84278339D01*
X108404862Y-84216027D01*
X108402768Y-84203289D01*
X108394182Y-84126744D01*
X108393397Y-84119745D01*
X108391080Y-84113091D01*
X108336064Y-83955106D01*
X108336062Y-83955103D01*
X108333745Y-83948448D01*
X108310136Y-83910666D01*
X108241359Y-83800598D01*
X108237626Y-83794624D01*
X108222494Y-83779386D01*
X108114778Y-83670915D01*
X108114774Y-83670912D01*
X108109815Y-83665918D01*
X108098697Y-83658862D01*
X108050433Y-83628233D01*
X107956666Y-83568727D01*
X107922550Y-83556579D01*
X107792425Y-83510243D01*
X107792420Y-83510242D01*
X107785790Y-83507881D01*
X107778802Y-83507048D01*
X107778799Y-83507047D01*
X107635996Y-83490019D01*
X107605680Y-83486404D01*
X107598677Y-83487140D01*
X107598676Y-83487140D01*
X107432288Y-83504628D01*
X107432286Y-83504629D01*
X107425288Y-83505364D01*
X107253579Y-83563818D01*
X107209153Y-83591149D01*
X107105095Y-83655166D01*
X107105092Y-83655168D01*
X107099088Y-83658862D01*
X107094053Y-83663793D01*
X107094050Y-83663795D01*
X106979744Y-83775732D01*
X106969493Y-83785771D01*
X106871235Y-83938238D01*
X106868826Y-83944858D01*
X106868824Y-83944861D01*
X106822672Y-84071663D01*
X106809197Y-84108685D01*
X106786463Y-84288640D01*
X106804163Y-84469160D01*
X106861418Y-84641273D01*
X106865065Y-84647295D01*
X106865066Y-84647297D01*
X106902995Y-84709925D01*
X106955380Y-84796424D01*
X106960269Y-84801487D01*
X106960270Y-84801488D01*
X107019719Y-84863049D01*
X107081382Y-84926902D01*
X107153157Y-84973870D01*
X107223376Y-85019820D01*
X107233159Y-85026222D01*
X107239763Y-85028678D01*
X107239765Y-85028679D01*
X107396558Y-85086990D01*
X107396560Y-85086990D01*
X107403168Y-85089448D01*
X107410153Y-85090380D01*
X107410157Y-85090381D01*
X107468669Y-85098188D01*
X107505986Y-85103167D01*
X107570862Y-85132003D01*
X107578416Y-85138965D01*
X108454595Y-86015144D01*
X108488621Y-86077456D01*
X108491500Y-86104239D01*
X108491500Y-101312177D01*
X108471413Y-101380429D01*
X108434480Y-101437738D01*
X108432071Y-101444358D01*
X108432069Y-101444361D01*
X108401685Y-101527841D01*
X108372442Y-101608185D01*
X108349708Y-101788140D01*
X108367408Y-101968660D01*
X108424663Y-102140773D01*
X108460672Y-102200231D01*
X108478850Y-102268858D01*
X108457040Y-102336421D01*
X108402164Y-102381468D01*
X108352895Y-102391500D01*
X107884500Y-102391500D01*
X107816379Y-102371498D01*
X107769886Y-102317842D01*
X107758500Y-102265500D01*
X107758500Y-102101866D01*
X107751745Y-102039684D01*
X107700615Y-101903295D01*
X107613261Y-101786739D01*
X107496705Y-101699385D01*
X107360316Y-101648255D01*
X107298134Y-101641500D01*
X105501866Y-101641500D01*
X105439684Y-101648255D01*
X105303295Y-101699385D01*
X105186739Y-101786739D01*
X105099385Y-101903295D01*
X105048255Y-102039684D01*
X105041500Y-102101866D01*
X105041500Y-103898134D01*
X105048255Y-103960316D01*
X105099385Y-104096705D01*
X105186739Y-104213261D01*
X105303295Y-104300615D01*
X105311704Y-104303767D01*
X105311705Y-104303768D01*
X105420451Y-104344535D01*
X105477216Y-104387176D01*
X105501916Y-104453738D01*
X105486709Y-104523087D01*
X105467316Y-104549568D01*
X105364520Y-104657138D01*
X105340629Y-104682138D01*
X105337715Y-104686410D01*
X105337714Y-104686411D01*
X105252556Y-104811249D01*
X105214743Y-104866680D01*
X105199003Y-104900590D01*
X105132293Y-105044305D01*
X105120688Y-105069305D01*
X105060989Y-105284570D01*
X105037251Y-105506695D01*
X102138500Y-105506695D01*
X102138500Y-104053248D01*
X102159552Y-103983521D01*
X102221420Y-103890401D01*
X102253643Y-103841902D01*
X102318055Y-103672338D01*
X102319035Y-103665366D01*
X102342748Y-103496639D01*
X102342748Y-103496636D01*
X102343299Y-103492717D01*
X102343616Y-103470000D01*
X102323397Y-103289745D01*
X102321080Y-103283091D01*
X102266064Y-103125106D01*
X102266062Y-103125103D01*
X102263745Y-103118448D01*
X102167626Y-102964624D01*
X102165215Y-102962196D01*
X102139117Y-102897716D01*
X102138500Y-102885263D01*
X102138500Y-98513248D01*
X102159552Y-98443521D01*
X102210819Y-98366358D01*
X102253643Y-98301902D01*
X102318055Y-98132338D01*
X102319035Y-98125366D01*
X102342748Y-97956639D01*
X102342748Y-97956636D01*
X102343299Y-97952717D01*
X102343616Y-97930000D01*
X102323397Y-97749745D01*
X102321080Y-97743091D01*
X102266064Y-97585106D01*
X102266062Y-97585103D01*
X102263745Y-97578448D01*
X102167626Y-97424624D01*
X102165215Y-97422196D01*
X102139117Y-97357716D01*
X102138500Y-97345263D01*
X102138500Y-96693647D01*
X102158502Y-96625526D01*
X102212158Y-96579033D01*
X102282432Y-96568929D01*
X102324429Y-96582812D01*
X102392139Y-96619423D01*
X102392146Y-96619426D01*
X102397565Y-96622356D01*
X102472596Y-96645582D01*
X102585293Y-96680468D01*
X102585296Y-96680469D01*
X102591180Y-96682290D01*
X102597305Y-96682934D01*
X102597306Y-96682934D01*
X102786622Y-96702832D01*
X102786623Y-96702832D01*
X102792750Y-96703476D01*
X102884531Y-96695123D01*
X102988457Y-96685665D01*
X102988460Y-96685664D01*
X102994596Y-96685106D01*
X103000502Y-96683368D01*
X103000506Y-96683367D01*
X103136558Y-96643324D01*
X103189029Y-96627881D01*
X103189229Y-96628559D01*
X103255273Y-96622044D01*
X103292323Y-96635320D01*
X103306937Y-96643321D01*
X103427394Y-96688478D01*
X103442649Y-96692105D01*
X103493514Y-96697631D01*
X103500328Y-96698000D01*
X103797885Y-96698000D01*
X103813124Y-96693525D01*
X103814329Y-96692135D01*
X103816000Y-96684452D01*
X103816000Y-96679884D01*
X104324000Y-96679884D01*
X104328475Y-96695123D01*
X104329865Y-96696328D01*
X104337548Y-96697999D01*
X104639669Y-96697999D01*
X104646490Y-96697629D01*
X104697352Y-96692105D01*
X104712604Y-96688479D01*
X104833054Y-96643324D01*
X104848649Y-96634786D01*
X104950724Y-96558285D01*
X104963285Y-96545724D01*
X105039786Y-96443649D01*
X105048324Y-96428054D01*
X105093478Y-96307606D01*
X105097105Y-96292351D01*
X105102631Y-96241486D01*
X105103000Y-96234672D01*
X105103000Y-95712115D01*
X105098525Y-95696876D01*
X105097135Y-95695671D01*
X105089452Y-95694000D01*
X104342115Y-95694000D01*
X104326876Y-95698475D01*
X104325671Y-95699865D01*
X104324000Y-95707548D01*
X104324000Y-96679884D01*
X103816000Y-96679884D01*
X103816000Y-95886242D01*
X103816785Y-95872197D01*
X103823494Y-95812386D01*
X103833500Y-95723183D01*
X103833500Y-95167885D01*
X104324000Y-95167885D01*
X104328475Y-95183124D01*
X104329865Y-95184329D01*
X104337548Y-95186000D01*
X105084884Y-95186000D01*
X105100123Y-95181525D01*
X105101328Y-95180135D01*
X105102999Y-95172452D01*
X105102999Y-94645331D01*
X105102629Y-94638510D01*
X105097105Y-94587648D01*
X105093479Y-94572396D01*
X105048324Y-94451946D01*
X105039786Y-94436351D01*
X104963285Y-94334276D01*
X104950724Y-94321715D01*
X104848649Y-94245214D01*
X104833054Y-94236676D01*
X104712606Y-94191522D01*
X104697351Y-94187895D01*
X104646486Y-94182369D01*
X104639672Y-94182000D01*
X104342115Y-94182000D01*
X104326876Y-94186475D01*
X104325671Y-94187865D01*
X104324000Y-94195548D01*
X104324000Y-95167885D01*
X103833500Y-95167885D01*
X103833500Y-95163996D01*
X103818723Y-95013287D01*
X103818032Y-95010998D01*
X103816000Y-94990276D01*
X103816000Y-94200116D01*
X103811525Y-94184877D01*
X103810135Y-94183672D01*
X103802452Y-94182001D01*
X103500331Y-94182001D01*
X103493510Y-94182371D01*
X103442648Y-94187895D01*
X103427396Y-94191521D01*
X103306944Y-94236677D01*
X103291534Y-94245114D01*
X103222177Y-94260284D01*
X103193764Y-94254960D01*
X103184587Y-94252119D01*
X103008820Y-94197710D01*
X103002695Y-94197066D01*
X103002694Y-94197066D01*
X102813378Y-94177168D01*
X102813377Y-94177168D01*
X102807250Y-94176524D01*
X102728709Y-94183672D01*
X102611543Y-94194335D01*
X102611540Y-94194336D01*
X102605404Y-94194894D01*
X102599498Y-94196632D01*
X102599494Y-94196633D01*
X102463442Y-94236676D01*
X102410971Y-94252119D01*
X102405514Y-94254972D01*
X102405511Y-94254973D01*
X102321163Y-94299069D01*
X102231540Y-94345923D01*
X102231538Y-94345923D01*
X102231355Y-94346019D01*
X102231337Y-94345984D01*
X102165559Y-94365889D01*
X102104591Y-94350729D01*
X102095815Y-94345984D01*
X101932435Y-94257644D01*
X101835627Y-94227677D01*
X101744707Y-94199532D01*
X101744704Y-94199531D01*
X101738820Y-94197710D01*
X101732695Y-94197066D01*
X101732694Y-94197066D01*
X101543378Y-94177168D01*
X101543377Y-94177168D01*
X101537250Y-94176524D01*
X101458709Y-94183672D01*
X101341543Y-94194335D01*
X101341540Y-94194336D01*
X101335404Y-94194894D01*
X101329498Y-94196632D01*
X101329494Y-94196633D01*
X101193442Y-94236676D01*
X101140971Y-94252119D01*
X101135514Y-94254972D01*
X101135511Y-94254973D01*
X101051163Y-94299069D01*
X100961355Y-94346019D01*
X100803399Y-94473019D01*
X100673119Y-94628281D01*
X100670155Y-94633673D01*
X100670152Y-94633677D01*
X100578444Y-94800494D01*
X100575477Y-94805891D01*
X100514193Y-94999084D01*
X100513507Y-95005201D01*
X100513506Y-95005205D01*
X100511912Y-95019418D01*
X100496500Y-95156817D01*
X100496500Y-95716004D01*
X90756767Y-95716004D01*
X91069825Y-95402946D01*
X91207977Y-95244020D01*
X91360964Y-95008441D01*
X91479676Y-94753862D01*
X91486691Y-94730919D01*
X91559462Y-94492890D01*
X91561801Y-94485240D01*
X91605744Y-94207803D01*
X91605889Y-94199532D01*
X91609221Y-94008566D01*
X91610646Y-93926949D01*
X91610111Y-93922590D01*
X91576949Y-93652511D01*
X91576948Y-93652507D01*
X91576413Y-93648148D01*
X91525256Y-93457225D01*
X91504848Y-93381062D01*
X91504847Y-93381060D01*
X91503712Y-93376823D01*
X91393957Y-93118256D01*
X91391694Y-93114489D01*
X91391690Y-93114482D01*
X91271000Y-92913621D01*
X91249285Y-92877481D01*
X91183644Y-92796421D01*
X91075283Y-92662608D01*
X91075282Y-92662607D01*
X91072511Y-92659185D01*
X91069292Y-92656183D01*
X91069288Y-92656179D01*
X90887855Y-92486990D01*
X90867077Y-92467614D01*
X90636980Y-92306498D01*
X90501959Y-92237701D01*
X90390622Y-92180971D01*
X90390618Y-92180969D01*
X90386700Y-92178973D01*
X90293475Y-92146873D01*
X90235581Y-92105786D01*
X90209090Y-92039917D01*
X90208500Y-92027740D01*
X90208500Y-85583248D01*
X90229552Y-85513521D01*
X90270108Y-85452479D01*
X90323643Y-85371902D01*
X90388055Y-85202338D01*
X90390191Y-85187140D01*
X90412748Y-85026639D01*
X90412748Y-85026636D01*
X90413299Y-85022717D01*
X90413616Y-85000000D01*
X90393397Y-84819745D01*
X90385276Y-84796424D01*
X90336064Y-84655106D01*
X90336062Y-84655103D01*
X90333745Y-84648448D01*
X90329262Y-84641273D01*
X90241359Y-84500598D01*
X90237626Y-84494624D01*
X90210415Y-84467222D01*
X90114778Y-84370915D01*
X90114774Y-84370912D01*
X90109815Y-84365918D01*
X90085653Y-84350584D01*
X90050538Y-84328300D01*
X89956666Y-84268727D01*
X89892563Y-84245901D01*
X89878182Y-84240780D01*
X89820718Y-84199086D01*
X89795234Y-84136123D01*
X89794182Y-84126745D01*
X89794182Y-84126744D01*
X89793397Y-84119745D01*
X89791080Y-84113091D01*
X89736064Y-83955106D01*
X89736062Y-83955103D01*
X89733745Y-83948448D01*
X89710136Y-83910666D01*
X89641359Y-83800598D01*
X89637626Y-83794624D01*
X89622494Y-83779386D01*
X89514778Y-83670915D01*
X89514774Y-83670912D01*
X89509815Y-83665918D01*
X89498697Y-83658862D01*
X89450433Y-83628233D01*
X89356666Y-83568727D01*
X89322550Y-83556579D01*
X89192425Y-83510243D01*
X89192420Y-83510242D01*
X89185790Y-83507881D01*
X89178802Y-83507048D01*
X89178799Y-83507047D01*
X89035996Y-83490019D01*
X89005680Y-83486404D01*
X88998677Y-83487140D01*
X88998676Y-83487140D01*
X88832288Y-83504628D01*
X88832286Y-83504629D01*
X88825288Y-83505364D01*
X88653579Y-83563818D01*
X88609153Y-83591149D01*
X88505095Y-83655166D01*
X88505092Y-83655168D01*
X88499088Y-83658862D01*
X88494053Y-83663793D01*
X88494050Y-83663795D01*
X88379744Y-83775732D01*
X88369493Y-83785771D01*
X88271235Y-83938238D01*
X88268826Y-83944858D01*
X88268824Y-83944861D01*
X88222672Y-84071663D01*
X88209197Y-84108685D01*
X88208314Y-84115675D01*
X88197025Y-84205034D01*
X88168643Y-84270111D01*
X88161114Y-84278337D01*
X87603766Y-84835685D01*
X87591375Y-84846552D01*
X87566013Y-84866013D01*
X87541526Y-84897925D01*
X87541523Y-84897928D01*
X87541517Y-84897936D01*
X87477900Y-84980843D01*
X87468476Y-84993124D01*
X87408368Y-85138238D01*
X87407162Y-85141150D01*
X87391500Y-85260115D01*
X87391500Y-85260120D01*
X87386250Y-85300000D01*
X87387668Y-85310767D01*
X87390422Y-85331690D01*
X87391500Y-85348136D01*
X87391500Y-88615164D01*
X87371498Y-88683285D01*
X87370188Y-88685090D01*
X87369493Y-88685771D01*
X87367894Y-88688253D01*
X87367892Y-88688255D01*
X87359934Y-88700603D01*
X87271235Y-88838238D01*
X87268826Y-88844858D01*
X87268824Y-88844861D01*
X87254178Y-88885101D01*
X87209197Y-89008685D01*
X87186463Y-89188640D01*
X87204163Y-89369160D01*
X87261418Y-89541273D01*
X87265065Y-89547295D01*
X87265066Y-89547297D01*
X87275978Y-89565314D01*
X87355380Y-89696424D01*
X87481382Y-89826902D01*
X87633159Y-89926222D01*
X87639763Y-89928678D01*
X87639765Y-89928679D01*
X87796558Y-89986990D01*
X87796560Y-89986990D01*
X87803168Y-89989448D01*
X87886995Y-90000633D01*
X87975980Y-90012507D01*
X87975984Y-90012507D01*
X87982961Y-90013438D01*
X87989972Y-90012800D01*
X87989976Y-90012800D01*
X88132459Y-89999832D01*
X88163600Y-89996998D01*
X88170302Y-89994820D01*
X88170304Y-89994820D01*
X88329409Y-89943124D01*
X88329412Y-89943123D01*
X88336108Y-89940947D01*
X88491912Y-89848069D01*
X88623266Y-89722982D01*
X88723643Y-89571902D01*
X88747712Y-89508541D01*
X88790601Y-89451963D01*
X88857270Y-89427554D01*
X88926552Y-89443064D01*
X88976450Y-89493568D01*
X88991500Y-89553285D01*
X88991500Y-92027912D01*
X88971498Y-92096033D01*
X88917842Y-92142526D01*
X88910654Y-92145543D01*
X88766495Y-92200880D01*
X88749098Y-92207558D01*
X88607999Y-92285771D01*
X88551461Y-92317111D01*
X88503421Y-92343740D01*
X88499914Y-92346383D01*
X88499912Y-92346384D01*
X88299193Y-92497637D01*
X88279088Y-92512787D01*
X87912280Y-92879595D01*
X87849968Y-92913621D01*
X87823185Y-92916500D01*
X77484500Y-92916500D01*
X77416379Y-92896498D01*
X77369886Y-92842842D01*
X77358500Y-92790500D01*
X77358500Y-86591383D01*
X77358562Y-86587425D01*
X77362095Y-86475009D01*
X77362095Y-86475003D01*
X77362219Y-86471051D01*
X77351263Y-86355141D01*
X77350953Y-86351196D01*
X77343890Y-86238943D01*
X77343641Y-86234980D01*
X77337347Y-86201984D01*
X77335675Y-86190239D01*
X77334908Y-86182119D01*
X77332515Y-86156808D01*
X77307106Y-86043136D01*
X77306315Y-86039312D01*
X77300165Y-86007071D01*
X77284495Y-85924928D01*
X77281258Y-85914966D01*
X77274119Y-85892993D01*
X77270986Y-85881543D01*
X77268831Y-85871902D01*
X77263660Y-85848767D01*
X77224197Y-85739155D01*
X77222944Y-85735493D01*
X77186956Y-85624734D01*
X77185274Y-85621159D01*
X77185271Y-85621152D01*
X77172656Y-85594343D01*
X77168115Y-85583379D01*
X77158080Y-85555507D01*
X77158076Y-85555499D01*
X77156739Y-85551784D01*
X77154950Y-85548273D01*
X77154947Y-85548266D01*
X77103879Y-85448041D01*
X77102138Y-85444486D01*
X77054251Y-85342720D01*
X77054250Y-85342718D01*
X77052562Y-85339131D01*
X77034561Y-85310764D01*
X77028689Y-85300472D01*
X77013440Y-85270545D01*
X76948000Y-85174252D01*
X76945832Y-85170952D01*
X76935776Y-85155106D01*
X76883432Y-85072625D01*
X76880901Y-85069565D01*
X76862020Y-85046741D01*
X76854893Y-85037249D01*
X76849069Y-85028679D01*
X76836023Y-85009482D01*
X76759014Y-84922133D01*
X76756479Y-84919166D01*
X76682233Y-84829418D01*
X76597337Y-84749696D01*
X76594496Y-84746942D01*
X76546437Y-84698883D01*
X76512411Y-84636571D01*
X76517476Y-84565756D01*
X76560023Y-84508920D01*
X76602283Y-84489126D01*
X76602816Y-84489068D01*
X76739205Y-84437938D01*
X76855761Y-84350584D01*
X76943115Y-84234028D01*
X76994245Y-84097639D01*
X77001000Y-84035457D01*
X77001000Y-81939189D01*
X76994245Y-81877007D01*
X76943115Y-81740618D01*
X76855761Y-81624062D01*
X76739205Y-81536708D01*
X76602816Y-81485578D01*
X76540634Y-81478823D01*
X74539366Y-81478823D01*
X74477184Y-81485578D01*
X74340795Y-81536708D01*
X74224239Y-81624062D01*
X74136885Y-81740618D01*
X74133734Y-81749023D01*
X74133733Y-81749025D01*
X74133272Y-81750256D01*
X74132488Y-81751299D01*
X74129423Y-81756898D01*
X74128615Y-81756456D01*
X74090632Y-81807021D01*
X74024071Y-81831723D01*
X73954722Y-81816517D01*
X73935313Y-81803394D01*
X73867628Y-81747797D01*
X73867625Y-81747795D01*
X73863722Y-81744589D01*
X73758822Y-81683535D01*
X73658290Y-81625024D01*
X73658288Y-81625023D01*
X73653922Y-81622482D01*
X73644020Y-81618681D01*
X73432028Y-81537305D01*
X73432021Y-81537303D01*
X73427298Y-81535490D01*
X73396582Y-81529073D01*
X73380292Y-81524510D01*
X73374485Y-81522453D01*
X73311220Y-81511183D01*
X73307568Y-81510477D01*
X73229207Y-81494107D01*
X73166617Y-81460598D01*
X73132079Y-81398569D01*
X73136559Y-81327714D01*
X73165879Y-81281675D01*
X75658914Y-78788640D01*
X84486463Y-78788640D01*
X84504163Y-78969160D01*
X84561418Y-79141273D01*
X84565065Y-79147295D01*
X84565066Y-79147297D01*
X84585869Y-79181646D01*
X84655380Y-79296424D01*
X84781382Y-79426902D01*
X84933159Y-79526222D01*
X84939763Y-79528678D01*
X84939765Y-79528679D01*
X85096558Y-79586990D01*
X85096560Y-79586990D01*
X85103168Y-79589448D01*
X85186995Y-79600633D01*
X85275980Y-79612507D01*
X85275984Y-79612507D01*
X85282961Y-79613438D01*
X85289972Y-79612800D01*
X85289976Y-79612800D01*
X85432459Y-79599832D01*
X85463600Y-79596998D01*
X85470302Y-79594820D01*
X85470304Y-79594820D01*
X85629409Y-79543124D01*
X85629412Y-79543123D01*
X85636108Y-79540947D01*
X85791912Y-79448069D01*
X85923266Y-79322982D01*
X86023643Y-79171902D01*
X86065423Y-79061917D01*
X86085555Y-79008920D01*
X86085556Y-79008918D01*
X86088055Y-79002338D01*
X86091779Y-78975844D01*
X86103420Y-78893009D01*
X86132708Y-78828335D01*
X86139099Y-78821450D01*
X86396234Y-78564315D01*
X86408625Y-78553448D01*
X86427437Y-78539013D01*
X86433987Y-78533987D01*
X86458474Y-78502075D01*
X86458477Y-78502072D01*
X86531523Y-78406876D01*
X86531524Y-78406875D01*
X86592838Y-78258850D01*
X86608500Y-78139885D01*
X86608500Y-78139878D01*
X86613750Y-78100000D01*
X86609578Y-78068307D01*
X86608500Y-78051864D01*
X86608500Y-74583248D01*
X86629552Y-74513521D01*
X86719742Y-74377773D01*
X86723643Y-74371902D01*
X86788055Y-74202338D01*
X86789035Y-74195366D01*
X86812748Y-74026639D01*
X86812748Y-74026636D01*
X86813299Y-74022717D01*
X86813616Y-74000000D01*
X86793397Y-73819745D01*
X86791080Y-73813091D01*
X86736064Y-73655106D01*
X86736062Y-73655103D01*
X86733745Y-73648448D01*
X86699260Y-73593260D01*
X86641359Y-73500598D01*
X86637626Y-73494624D01*
X86632664Y-73489627D01*
X86514778Y-73370915D01*
X86514774Y-73370912D01*
X86509815Y-73365918D01*
X86502928Y-73361547D01*
X86413237Y-73304628D01*
X86356666Y-73268727D01*
X86298840Y-73248136D01*
X86192425Y-73210243D01*
X86192420Y-73210242D01*
X86185790Y-73207881D01*
X86178802Y-73207048D01*
X86178799Y-73207047D01*
X86051024Y-73191811D01*
X86005680Y-73186404D01*
X85998677Y-73187140D01*
X85998676Y-73187140D01*
X85832288Y-73204628D01*
X85832286Y-73204629D01*
X85825288Y-73205364D01*
X85653579Y-73263818D01*
X85647575Y-73267512D01*
X85505095Y-73355166D01*
X85505092Y-73355168D01*
X85499088Y-73358862D01*
X85494053Y-73363793D01*
X85494050Y-73363795D01*
X85390188Y-73465505D01*
X85369493Y-73485771D01*
X85271235Y-73638238D01*
X85268826Y-73644858D01*
X85268824Y-73644861D01*
X85228698Y-73755106D01*
X85209197Y-73808685D01*
X85186463Y-73988640D01*
X85204163Y-74169160D01*
X85261418Y-74341273D01*
X85265065Y-74347295D01*
X85265066Y-74347297D01*
X85351730Y-74490398D01*
X85351733Y-74490401D01*
X85355380Y-74496424D01*
X85360275Y-74501492D01*
X85364571Y-74507071D01*
X85362243Y-74508864D01*
X85389071Y-74560115D01*
X85391500Y-74584734D01*
X85391500Y-77795761D01*
X85371498Y-77863882D01*
X85354595Y-77884856D01*
X85278416Y-77961035D01*
X85216104Y-77995061D01*
X85202495Y-77997249D01*
X85180802Y-77999529D01*
X85132296Y-78004627D01*
X85132292Y-78004628D01*
X85125288Y-78005364D01*
X84953579Y-78063818D01*
X84908076Y-78091812D01*
X84805095Y-78155166D01*
X84805092Y-78155168D01*
X84799088Y-78158862D01*
X84794053Y-78163793D01*
X84794050Y-78163795D01*
X84689193Y-78266479D01*
X84669493Y-78285771D01*
X84571235Y-78438238D01*
X84568826Y-78444858D01*
X84568824Y-78444861D01*
X84518380Y-78583454D01*
X84509197Y-78608685D01*
X84486463Y-78788640D01*
X75658914Y-78788640D01*
X76002149Y-78445405D01*
X76064461Y-78411379D01*
X76091244Y-78408500D01*
X79978838Y-78408500D01*
X80215020Y-78393641D01*
X80525072Y-78334495D01*
X80825266Y-78236956D01*
X80828852Y-78235269D01*
X80828856Y-78235267D01*
X81107283Y-78104250D01*
X81107290Y-78104246D01*
X81110869Y-78102562D01*
X81377375Y-77933432D01*
X81620582Y-77732233D01*
X81836654Y-77502140D01*
X82022184Y-77246779D01*
X82040514Y-77213438D01*
X82172340Y-76973648D01*
X82172341Y-76973647D01*
X82174247Y-76970179D01*
X82205834Y-76890401D01*
X82288990Y-76680372D01*
X82288990Y-76680371D01*
X82290443Y-76676702D01*
X82368940Y-76370975D01*
X82408500Y-76057821D01*
X82408500Y-75742179D01*
X82368940Y-75429025D01*
X82290443Y-75123298D01*
X82259388Y-75044861D01*
X82175702Y-74833495D01*
X82175700Y-74833490D01*
X82174247Y-74829821D01*
X82137949Y-74763795D01*
X82024093Y-74556693D01*
X82024091Y-74556690D01*
X82022184Y-74553221D01*
X81844690Y-74308920D01*
X81838982Y-74301064D01*
X81838981Y-74301062D01*
X81836654Y-74297860D01*
X81620582Y-74067767D01*
X81550219Y-74009557D01*
X81441655Y-73919745D01*
X81377375Y-73866568D01*
X81110869Y-73697438D01*
X81107290Y-73695754D01*
X81107283Y-73695750D01*
X80828856Y-73564733D01*
X80828852Y-73564731D01*
X80825266Y-73563044D01*
X80525072Y-73465505D01*
X80215020Y-73406359D01*
X79978838Y-73391500D01*
X75041403Y-73391500D01*
X75037445Y-73391438D01*
X74925009Y-73387904D01*
X74925003Y-73387904D01*
X74921051Y-73387780D01*
X74851394Y-73394364D01*
X74805110Y-73398739D01*
X74801165Y-73399049D01*
X74758885Y-73401709D01*
X74684980Y-73406359D01*
X74651998Y-73412651D01*
X74640252Y-73414323D01*
X74633644Y-73414947D01*
X74610750Y-73417111D01*
X74610743Y-73417112D01*
X74606809Y-73417484D01*
X74602940Y-73418349D01*
X74602939Y-73418349D01*
X74493167Y-73442886D01*
X74489291Y-73443689D01*
X74388850Y-73462849D01*
X74374928Y-73465505D01*
X74371161Y-73466729D01*
X74371153Y-73466731D01*
X74342984Y-73475883D01*
X74331539Y-73479014D01*
X74298767Y-73486340D01*
X74295040Y-73487682D01*
X74295029Y-73487685D01*
X74189207Y-73525783D01*
X74185464Y-73527065D01*
X74078491Y-73561823D01*
X74078487Y-73561824D01*
X74074734Y-73563044D01*
X74071145Y-73564733D01*
X74044351Y-73577341D01*
X74033387Y-73581883D01*
X74001785Y-73593260D01*
X73897997Y-73646142D01*
X73894495Y-73647857D01*
X73854856Y-73666510D01*
X73792713Y-73695752D01*
X73792708Y-73695755D01*
X73789131Y-73697438D01*
X73785792Y-73699557D01*
X73760773Y-73715435D01*
X73750469Y-73721313D01*
X73720545Y-73736559D01*
X73717266Y-73738788D01*
X73717260Y-73738791D01*
X73624237Y-73802009D01*
X73620929Y-73804182D01*
X73557805Y-73844242D01*
X73522625Y-73866568D01*
X73496747Y-73887976D01*
X73487256Y-73895102D01*
X73459483Y-73913977D01*
X73372134Y-73990986D01*
X73369172Y-73993516D01*
X73279418Y-74067767D01*
X73276707Y-74070654D01*
X73199684Y-74152675D01*
X73196929Y-74155517D01*
X68770476Y-78581970D01*
X68613977Y-78759482D01*
X68525268Y-78890013D01*
X68439869Y-79015675D01*
X68436559Y-79020545D01*
X68293261Y-79301784D01*
X68291920Y-79305508D01*
X68291919Y-79305511D01*
X68242344Y-79443211D01*
X68186340Y-79598767D01*
X68185478Y-79602624D01*
X68127469Y-79862143D01*
X68117485Y-79906808D01*
X68087780Y-80221051D01*
X68087904Y-80225002D01*
X68087904Y-80225008D01*
X68090882Y-80319745D01*
X68097695Y-80536537D01*
X68098314Y-80540444D01*
X68098314Y-80540446D01*
X68123956Y-80702338D01*
X68147073Y-80848294D01*
X68148177Y-80852094D01*
X68218756Y-81095030D01*
X68235134Y-81151405D01*
X68236703Y-81155031D01*
X68236706Y-81155039D01*
X68311429Y-81327714D01*
X68360490Y-81441087D01*
X68401946Y-81511185D01*
X68487061Y-81655106D01*
X68521166Y-81712775D01*
X68523594Y-81715905D01*
X68523600Y-81715914D01*
X68581307Y-81790308D01*
X68606137Y-81849094D01*
X68606189Y-81849838D01*
X68607102Y-81854134D01*
X68607103Y-81854140D01*
X68634206Y-81981646D01*
X68664591Y-82124596D01*
X68666094Y-82128725D01*
X68666095Y-82128729D01*
X68756740Y-82377773D01*
X68760663Y-82388552D01*
X68892536Y-82636568D01*
X68895121Y-82640126D01*
X68895126Y-82640134D01*
X68937671Y-82698693D01*
X68961530Y-82765560D01*
X68961486Y-82780665D01*
X68949543Y-82970489D01*
X68946822Y-83013736D01*
X68970511Y-83255325D01*
X69032519Y-83490019D01*
X69131254Y-83711779D01*
X69264174Y-83914901D01*
X69427858Y-84094159D01*
X69473601Y-84130414D01*
X69614129Y-84241796D01*
X69614135Y-84241800D01*
X69618098Y-84244941D01*
X69732902Y-84309103D01*
X69816752Y-84355965D01*
X69829998Y-84363368D01*
X70058105Y-84446393D01*
X70063065Y-84447339D01*
X70063075Y-84447342D01*
X70079381Y-84450452D01*
X70082776Y-84451223D01*
X70085515Y-84452193D01*
X70090595Y-84453098D01*
X70090599Y-84453099D01*
X70130013Y-84460120D01*
X70131523Y-84460399D01*
X70291586Y-84490932D01*
X70291592Y-84490933D01*
X70296553Y-84491879D01*
X70301602Y-84492020D01*
X70306644Y-84492568D01*
X70306644Y-84492572D01*
X70311788Y-84493099D01*
X70311804Y-84492931D01*
X70316943Y-84493417D01*
X70322037Y-84494324D01*
X70431360Y-84495659D01*
X70433313Y-84495699D01*
X70468763Y-84496689D01*
X70534151Y-84498516D01*
X70534153Y-84498516D01*
X70539205Y-84498657D01*
X70544216Y-84497988D01*
X70549276Y-84497723D01*
X70549284Y-84497869D01*
X70551940Y-84497708D01*
X70551929Y-84497557D01*
X70557092Y-84497196D01*
X70562263Y-84497259D01*
X70646753Y-84484331D01*
X70649101Y-84483994D01*
X70779820Y-84466552D01*
X70797018Y-84461360D01*
X70797220Y-84461305D01*
X70799744Y-84460919D01*
X70813760Y-84456338D01*
X70816445Y-84455495D01*
X71007357Y-84397855D01*
X71007361Y-84397853D01*
X71012208Y-84396390D01*
X71230388Y-84289977D01*
X71292869Y-84245901D01*
X71360063Y-84222978D01*
X71428984Y-84240022D01*
X71477748Y-84291622D01*
X71491500Y-84348861D01*
X71491500Y-84675984D01*
X71491451Y-84679502D01*
X71488959Y-84768727D01*
X71488666Y-84779205D01*
X71498802Y-84855166D01*
X71499058Y-84857086D01*
X71499758Y-84863639D01*
X71500271Y-84870013D01*
X71504465Y-84922136D01*
X71506060Y-84941965D01*
X71508805Y-84953139D01*
X71513897Y-84973870D01*
X71516426Y-84987258D01*
X71520771Y-85019820D01*
X71522232Y-85024661D01*
X71522233Y-85024663D01*
X71543478Y-85095029D01*
X71545219Y-85101390D01*
X71563963Y-85177706D01*
X71565941Y-85182366D01*
X71576801Y-85207951D01*
X71581438Y-85220761D01*
X71590933Y-85252208D01*
X71593151Y-85256756D01*
X71593154Y-85256763D01*
X71625371Y-85322818D01*
X71628107Y-85328820D01*
X71647075Y-85373504D01*
X71658812Y-85401156D01*
X71672128Y-85422301D01*
X71676319Y-85428956D01*
X71682945Y-85440860D01*
X71697346Y-85470388D01*
X71700265Y-85474525D01*
X71700265Y-85474526D01*
X71742641Y-85534597D01*
X71746301Y-85540086D01*
X71780469Y-85594343D01*
X71788167Y-85606567D01*
X71791508Y-85610356D01*
X71791512Y-85610362D01*
X71809898Y-85631217D01*
X71818344Y-85641912D01*
X71837274Y-85668747D01*
X71856909Y-85690250D01*
X71862632Y-85695973D01*
X71896658Y-85758285D01*
X71899058Y-85774085D01*
X71911383Y-85914966D01*
X71912371Y-85919245D01*
X71912372Y-85919252D01*
X71973061Y-86182119D01*
X71976228Y-86214420D01*
X71975919Y-86224268D01*
X71974614Y-86265783D01*
X72004319Y-86580026D01*
X72005180Y-86583878D01*
X72005181Y-86583884D01*
X72052076Y-86793679D01*
X72073174Y-86888067D01*
X72074514Y-86891789D01*
X72152483Y-87108354D01*
X72180095Y-87185050D01*
X72323393Y-87466289D01*
X72324120Y-87467358D01*
X72341500Y-87530888D01*
X72341500Y-93389104D01*
X72321498Y-93457225D01*
X72264732Y-93505088D01*
X72152576Y-93552695D01*
X72073707Y-93602362D01*
X71946678Y-93682356D01*
X71946675Y-93682358D01*
X71942399Y-93685051D01*
X71938605Y-93688396D01*
X71889182Y-93731968D01*
X71824856Y-93762013D01*
X71754499Y-93752512D01*
X71700447Y-93706480D01*
X71685235Y-93673872D01*
X71670914Y-93626436D01*
X71667218Y-93614194D01*
X71666862Y-93612994D01*
X71640909Y-93523663D01*
X71638455Y-93518929D01*
X71636916Y-93513831D01*
X71634021Y-93508386D01*
X71593316Y-93431831D01*
X71592702Y-93430663D01*
X71552726Y-93353541D01*
X71552725Y-93353540D01*
X71549892Y-93348074D01*
X71546569Y-93343911D01*
X71544066Y-93339204D01*
X71485245Y-93267082D01*
X71484554Y-93266226D01*
X71453262Y-93227027D01*
X71450758Y-93224523D01*
X71450116Y-93223805D01*
X71446415Y-93219472D01*
X71419065Y-93185938D01*
X71402099Y-93171902D01*
X71383738Y-93156713D01*
X71374958Y-93148723D01*
X69921888Y-91695653D01*
X68465116Y-90238882D01*
X68431090Y-90176570D01*
X68430762Y-90124559D01*
X68456831Y-89996998D01*
X68461992Y-89971742D01*
X68487734Y-89655253D01*
X68488313Y-89600000D01*
X68484370Y-89534590D01*
X68469433Y-89286816D01*
X68469432Y-89286809D01*
X68469205Y-89283041D01*
X68419098Y-89008685D01*
X68412837Y-88974401D01*
X68412836Y-88974396D01*
X68412156Y-88970674D01*
X68402287Y-88938888D01*
X68368542Y-88830213D01*
X68317994Y-88667423D01*
X68188082Y-88377680D01*
X68146625Y-88308819D01*
X68026252Y-88108880D01*
X68026251Y-88108878D01*
X68024303Y-88105643D01*
X67885143Y-87927205D01*
X67859023Y-87861187D01*
X67858500Y-87849718D01*
X67858500Y-87305895D01*
X67858673Y-87299301D01*
X67862868Y-87219259D01*
X67862868Y-87219253D01*
X67863098Y-87214862D01*
X67861385Y-87195276D01*
X67852479Y-87093486D01*
X67852307Y-87091293D01*
X67844118Y-86974173D01*
X67844117Y-86974167D01*
X67843811Y-86969788D01*
X67841753Y-86960107D01*
X67839481Y-86944900D01*
X67839002Y-86939425D01*
X67839000Y-86939412D01*
X67838617Y-86935034D01*
X67837628Y-86930748D01*
X67811207Y-86816305D01*
X67810732Y-86814160D01*
X67786325Y-86699337D01*
X67786323Y-86699330D01*
X67785409Y-86695030D01*
X67782020Y-86685719D01*
X67777655Y-86670981D01*
X67775428Y-86661337D01*
X67763755Y-86630926D01*
X67731780Y-86547629D01*
X67731010Y-86545569D01*
X67690846Y-86435218D01*
X67690842Y-86435209D01*
X67689337Y-86431074D01*
X67684691Y-86422336D01*
X67678317Y-86408348D01*
X67676346Y-86403214D01*
X67676341Y-86403202D01*
X67674765Y-86399098D01*
X67615664Y-86292479D01*
X67614652Y-86290612D01*
X67559530Y-86186942D01*
X67559524Y-86186933D01*
X67557464Y-86183058D01*
X67554879Y-86179501D01*
X67554876Y-86179495D01*
X67551645Y-86175047D01*
X67543379Y-86162073D01*
X67542648Y-86160754D01*
X67538583Y-86153421D01*
X67465289Y-86056156D01*
X67463991Y-86054402D01*
X67462282Y-86052049D01*
X67392358Y-85955808D01*
X67385475Y-85948680D01*
X67375490Y-85936988D01*
X67372188Y-85932607D01*
X67372187Y-85932606D01*
X67369536Y-85929088D01*
X67283460Y-85843012D01*
X67281918Y-85841444D01*
X67203386Y-85760122D01*
X67197231Y-85753748D01*
X67189422Y-85747647D01*
X67177900Y-85737452D01*
X65445405Y-84004957D01*
X65411379Y-83942645D01*
X65408500Y-83915862D01*
X65408500Y-76321162D01*
X65393641Y-76084980D01*
X65334495Y-75774928D01*
X65267637Y-75569160D01*
X65238182Y-75478507D01*
X65238182Y-75478506D01*
X65236956Y-75474734D01*
X65220555Y-75439880D01*
X65104250Y-75192717D01*
X65104246Y-75192710D01*
X65102562Y-75189131D01*
X65094652Y-75176666D01*
X65017507Y-75055106D01*
X64933432Y-74922625D01*
X64732233Y-74679418D01*
X64724873Y-74672506D01*
X64655166Y-74607047D01*
X64502140Y-74463346D01*
X64246779Y-74277816D01*
X64121459Y-74208920D01*
X63973648Y-74127660D01*
X63973647Y-74127659D01*
X63970179Y-74125753D01*
X63966510Y-74124300D01*
X63966505Y-74124298D01*
X63680372Y-74011010D01*
X63680371Y-74011010D01*
X63676702Y-74009557D01*
X63370975Y-73931060D01*
X63057821Y-73891500D01*
X62742179Y-73891500D01*
X62429025Y-73931060D01*
X62123298Y-74009557D01*
X62119629Y-74011010D01*
X62119628Y-74011010D01*
X61833495Y-74124298D01*
X61833490Y-74124300D01*
X61829821Y-74125753D01*
X61826353Y-74127659D01*
X61826352Y-74127660D01*
X61678542Y-74208920D01*
X61553221Y-74277816D01*
X61297860Y-74463346D01*
X61144834Y-74607047D01*
X61075128Y-74672506D01*
X61067767Y-74679418D01*
X60866568Y-74922625D01*
X60782493Y-75055106D01*
X60705349Y-75176666D01*
X60697438Y-75189131D01*
X60695754Y-75192710D01*
X60695750Y-75192717D01*
X60579445Y-75439880D01*
X60563044Y-75474734D01*
X60561818Y-75478506D01*
X60561818Y-75478507D01*
X60532363Y-75569160D01*
X60465505Y-75774928D01*
X60406359Y-76084980D01*
X60391500Y-76321162D01*
X60391500Y-86608597D01*
X60391438Y-86612555D01*
X60388711Y-86699337D01*
X60387780Y-86728949D01*
X60398743Y-86844915D01*
X60399045Y-86848759D01*
X60400389Y-86870114D01*
X60384701Y-86939353D01*
X60334069Y-86989122D01*
X60264568Y-87003616D01*
X60246293Y-87000790D01*
X60104113Y-86967965D01*
X60104110Y-86967965D01*
X60098914Y-86966765D01*
X60094318Y-86966500D01*
X56205682Y-86966500D01*
X56201086Y-86966765D01*
X56195890Y-86967965D01*
X56195887Y-86967965D01*
X56041467Y-87003616D01*
X56031864Y-87005833D01*
X55875502Y-87081421D01*
X55739773Y-87189773D01*
X55631421Y-87325502D01*
X55555833Y-87481864D01*
X55554249Y-87488725D01*
X55553278Y-87492933D01*
X55516765Y-87651086D01*
X55516500Y-87655682D01*
X55516500Y-91544318D01*
X55516765Y-91548914D01*
X55517965Y-91554110D01*
X55517965Y-91554113D01*
X55538271Y-91642067D01*
X55541500Y-91670411D01*
X55541500Y-93262503D01*
X55521498Y-93330624D01*
X55467842Y-93377117D01*
X55425605Y-93388097D01*
X55408772Y-93389451D01*
X55327462Y-93395993D01*
X55327457Y-93395994D01*
X55322421Y-93396399D01*
X55317513Y-93397604D01*
X55317510Y-93397605D01*
X55178168Y-93431831D01*
X55081211Y-93455646D01*
X55076559Y-93457621D01*
X55076555Y-93457622D01*
X54935394Y-93517541D01*
X54852576Y-93552695D01*
X54773707Y-93602362D01*
X54646678Y-93682356D01*
X54646675Y-93682358D01*
X54642399Y-93685051D01*
X54456087Y-93849307D01*
X54298433Y-94041238D01*
X54243933Y-94134878D01*
X54184685Y-94236677D01*
X54173493Y-94255906D01*
X54171680Y-94260629D01*
X54087128Y-94480896D01*
X54084482Y-94487788D01*
X54033690Y-94730919D01*
X54033461Y-94735969D01*
X54033460Y-94735974D01*
X54029864Y-94815164D01*
X54022422Y-94979043D01*
X49396000Y-94979043D01*
X49396000Y-94652885D01*
X49904000Y-94652885D01*
X49908475Y-94668124D01*
X49909865Y-94669329D01*
X49917548Y-94671000D01*
X53135824Y-94671000D01*
X53149910Y-94666864D01*
X53151959Y-94653886D01*
X53149120Y-94629354D01*
X53147158Y-94619443D01*
X53082309Y-94390272D01*
X53078795Y-94380821D01*
X52978133Y-94164950D01*
X52973154Y-94156186D01*
X52839277Y-93959192D01*
X52832953Y-93951328D01*
X52669308Y-93778277D01*
X52661801Y-93771518D01*
X52472595Y-93626859D01*
X52464116Y-93621395D01*
X52254209Y-93508844D01*
X52244963Y-93504805D01*
X52019766Y-93427263D01*
X52009985Y-93424752D01*
X51774211Y-93384026D01*
X51766339Y-93383171D01*
X51741969Y-93382064D01*
X51739136Y-93382000D01*
X49922115Y-93382000D01*
X49906876Y-93386475D01*
X49905671Y-93387865D01*
X49904000Y-93395548D01*
X49904000Y-94652885D01*
X49396000Y-94652885D01*
X49396000Y-93400115D01*
X49391525Y-93384876D01*
X49390135Y-93383671D01*
X49382452Y-93382000D01*
X47610125Y-93382000D01*
X47605093Y-93382202D01*
X47427542Y-93396487D01*
X47417590Y-93398099D01*
X47186283Y-93454914D01*
X47176713Y-93458097D01*
X46957466Y-93551162D01*
X46948524Y-93555837D01*
X46746978Y-93682757D01*
X46738905Y-93688797D01*
X46560241Y-93846311D01*
X46553238Y-93853563D01*
X46531864Y-93879584D01*
X46473170Y-93919527D01*
X46402198Y-93921397D01*
X46341482Y-93884600D01*
X46310298Y-93820818D01*
X46308500Y-93799608D01*
X46308500Y-85132703D01*
X47290743Y-85132703D01*
X47291302Y-85136947D01*
X47291302Y-85136951D01*
X47300777Y-85208920D01*
X47328268Y-85417734D01*
X47329401Y-85421874D01*
X47329401Y-85421876D01*
X47342672Y-85470388D01*
X47404129Y-85695036D01*
X47405813Y-85698984D01*
X47514011Y-85952648D01*
X47516923Y-85959476D01*
X47539036Y-85996424D01*
X47662067Y-86201993D01*
X47664561Y-86206161D01*
X47844313Y-86430528D01*
X47941739Y-86522982D01*
X48036130Y-86612555D01*
X48052851Y-86628423D01*
X48286317Y-86796186D01*
X48290112Y-86798195D01*
X48290113Y-86798196D01*
X48311869Y-86809715D01*
X48540392Y-86930712D01*
X48642191Y-86967965D01*
X48740246Y-87003848D01*
X48810373Y-87029511D01*
X49091264Y-87090755D01*
X49112471Y-87092424D01*
X49314282Y-87108307D01*
X49314291Y-87108307D01*
X49316739Y-87108500D01*
X49472271Y-87108500D01*
X49474407Y-87108354D01*
X49474418Y-87108354D01*
X49682548Y-87094165D01*
X49682554Y-87094164D01*
X49686825Y-87093873D01*
X49691020Y-87093004D01*
X49691022Y-87093004D01*
X49827583Y-87064724D01*
X49968342Y-87035574D01*
X50239343Y-86939607D01*
X50346673Y-86884210D01*
X50491005Y-86809715D01*
X50491006Y-86809715D01*
X50494812Y-86807750D01*
X50498313Y-86805289D01*
X50498317Y-86805287D01*
X50655196Y-86695030D01*
X50730023Y-86642441D01*
X50832053Y-86547629D01*
X50937479Y-86449661D01*
X50937481Y-86449658D01*
X50940622Y-86446740D01*
X51122713Y-86224268D01*
X51272927Y-85979142D01*
X51293355Y-85932607D01*
X51386757Y-85719830D01*
X51388483Y-85715898D01*
X51402837Y-85665510D01*
X51453808Y-85486574D01*
X51467244Y-85439406D01*
X51507751Y-85154784D01*
X51507785Y-85148448D01*
X51509235Y-84871583D01*
X51509235Y-84871576D01*
X51509257Y-84867297D01*
X51508579Y-84862143D01*
X51492190Y-84737660D01*
X51471732Y-84582266D01*
X51395871Y-84304964D01*
X51314030Y-84113091D01*
X51284763Y-84044476D01*
X51284761Y-84044472D01*
X51283077Y-84040524D01*
X51185562Y-83877589D01*
X51137643Y-83797521D01*
X51137640Y-83797517D01*
X51135439Y-83793839D01*
X50955687Y-83569472D01*
X50747149Y-83371577D01*
X50513683Y-83203814D01*
X50491843Y-83192250D01*
X50463341Y-83177159D01*
X50259608Y-83069288D01*
X49989627Y-82970489D01*
X49708736Y-82909245D01*
X49677685Y-82906801D01*
X49485718Y-82891693D01*
X49485709Y-82891693D01*
X49483261Y-82891500D01*
X49327729Y-82891500D01*
X49325593Y-82891646D01*
X49325582Y-82891646D01*
X49117452Y-82905835D01*
X49117446Y-82905836D01*
X49113175Y-82906127D01*
X49108980Y-82906996D01*
X49108978Y-82906996D01*
X48972416Y-82935277D01*
X48831658Y-82964426D01*
X48560657Y-83060393D01*
X48305188Y-83192250D01*
X48301687Y-83194711D01*
X48301683Y-83194713D01*
X48291594Y-83201804D01*
X48069977Y-83357559D01*
X48054892Y-83371577D01*
X47905670Y-83510243D01*
X47859378Y-83553260D01*
X47677287Y-83775732D01*
X47527073Y-84020858D01*
X47525347Y-84024791D01*
X47525346Y-84024792D01*
X47430088Y-84241796D01*
X47411517Y-84284102D01*
X47410342Y-84288229D01*
X47410341Y-84288230D01*
X47379531Y-84396390D01*
X47332756Y-84560594D01*
X47292249Y-84845216D01*
X47292227Y-84849505D01*
X47292226Y-84849512D01*
X47290868Y-85108808D01*
X47290743Y-85132703D01*
X46308500Y-85132703D01*
X46308500Y-77632670D01*
X57032160Y-77632670D01*
X57037887Y-77640320D01*
X57209042Y-77745205D01*
X57217837Y-77749687D01*
X57427988Y-77836734D01*
X57437373Y-77839783D01*
X57658554Y-77892885D01*
X57668301Y-77894428D01*
X57895070Y-77912275D01*
X57904930Y-77912275D01*
X58131699Y-77894428D01*
X58141446Y-77892885D01*
X58362627Y-77839783D01*
X58372012Y-77836734D01*
X58582163Y-77749687D01*
X58590958Y-77745205D01*
X58758445Y-77642568D01*
X58767907Y-77632110D01*
X58764124Y-77623334D01*
X57912812Y-76772022D01*
X57898868Y-76764408D01*
X57897035Y-76764539D01*
X57890420Y-76768790D01*
X57038920Y-77620290D01*
X57032160Y-77632670D01*
X46308500Y-77632670D01*
X46308500Y-76404930D01*
X56387725Y-76404930D01*
X56405572Y-76631699D01*
X56407115Y-76641446D01*
X56460217Y-76862627D01*
X56463266Y-76872012D01*
X56550313Y-77082163D01*
X56554795Y-77090958D01*
X56657432Y-77258445D01*
X56667890Y-77267907D01*
X56676666Y-77264124D01*
X57527978Y-76412812D01*
X57534356Y-76401132D01*
X58264408Y-76401132D01*
X58264539Y-76402965D01*
X58268790Y-76409580D01*
X59120290Y-77261080D01*
X59132670Y-77267840D01*
X59140320Y-77262113D01*
X59245205Y-77090958D01*
X59249687Y-77082163D01*
X59336734Y-76872012D01*
X59339783Y-76862627D01*
X59392885Y-76641446D01*
X59394428Y-76631699D01*
X59412275Y-76404930D01*
X59412275Y-76395070D01*
X59394428Y-76168301D01*
X59392885Y-76158554D01*
X59339783Y-75937373D01*
X59336734Y-75927988D01*
X59249687Y-75717837D01*
X59245205Y-75709042D01*
X59142568Y-75541555D01*
X59132110Y-75532093D01*
X59123334Y-75535876D01*
X58272022Y-76387188D01*
X58264408Y-76401132D01*
X57534356Y-76401132D01*
X57535592Y-76398868D01*
X57535461Y-76397035D01*
X57531210Y-76390420D01*
X56679710Y-75538920D01*
X56667330Y-75532160D01*
X56659680Y-75537887D01*
X56554795Y-75709042D01*
X56550313Y-75717837D01*
X56463266Y-75927988D01*
X56460217Y-75937373D01*
X56407115Y-76158554D01*
X56405572Y-76168301D01*
X56387725Y-76395070D01*
X56387725Y-76404930D01*
X46308500Y-76404930D01*
X46308500Y-75167890D01*
X57032093Y-75167890D01*
X57035876Y-75176666D01*
X57887188Y-76027978D01*
X57901132Y-76035592D01*
X57902965Y-76035461D01*
X57909580Y-76031210D01*
X58761080Y-75179710D01*
X58767840Y-75167330D01*
X58762113Y-75159680D01*
X58590958Y-75054795D01*
X58582163Y-75050313D01*
X58372012Y-74963266D01*
X58362627Y-74960217D01*
X58141446Y-74907115D01*
X58131699Y-74905572D01*
X57904930Y-74887725D01*
X57895070Y-74887725D01*
X57668301Y-74905572D01*
X57658554Y-74907115D01*
X57437373Y-74960217D01*
X57427988Y-74963266D01*
X57217837Y-75050313D01*
X57209042Y-75054795D01*
X57041555Y-75157432D01*
X57032093Y-75167890D01*
X46308500Y-75167890D01*
X46308500Y-72132670D01*
X79032160Y-72132670D01*
X79037887Y-72140320D01*
X79209042Y-72245205D01*
X79217837Y-72249687D01*
X79427988Y-72336734D01*
X79437373Y-72339783D01*
X79658554Y-72392885D01*
X79668301Y-72394428D01*
X79895070Y-72412275D01*
X79904930Y-72412275D01*
X80131699Y-72394428D01*
X80141446Y-72392885D01*
X80362627Y-72339783D01*
X80372012Y-72336734D01*
X80582163Y-72249687D01*
X80590958Y-72245205D01*
X80758445Y-72142568D01*
X80767907Y-72132110D01*
X80764124Y-72123334D01*
X79912812Y-71272022D01*
X79898868Y-71264408D01*
X79897035Y-71264539D01*
X79890420Y-71268790D01*
X79038920Y-72120290D01*
X79032160Y-72132670D01*
X46308500Y-72132670D01*
X46308500Y-70904930D01*
X78387725Y-70904930D01*
X78405572Y-71131699D01*
X78407115Y-71141446D01*
X78460217Y-71362627D01*
X78463266Y-71372012D01*
X78550313Y-71582163D01*
X78554795Y-71590958D01*
X78657432Y-71758445D01*
X78667890Y-71767907D01*
X78676666Y-71764124D01*
X79527978Y-70912812D01*
X79534356Y-70901132D01*
X80264408Y-70901132D01*
X80264539Y-70902965D01*
X80268790Y-70909580D01*
X81120290Y-71761080D01*
X81132670Y-71767840D01*
X81140320Y-71762113D01*
X81245205Y-71590958D01*
X81249687Y-71582163D01*
X81336734Y-71372012D01*
X81339783Y-71362627D01*
X81392885Y-71141446D01*
X81394428Y-71131699D01*
X81412275Y-70904930D01*
X81412275Y-70895070D01*
X81394428Y-70668301D01*
X81392885Y-70658554D01*
X81339783Y-70437373D01*
X81336734Y-70427988D01*
X81249687Y-70217837D01*
X81245205Y-70209042D01*
X81142568Y-70041555D01*
X81132110Y-70032093D01*
X81123334Y-70035876D01*
X80272022Y-70887188D01*
X80264408Y-70901132D01*
X79534356Y-70901132D01*
X79535592Y-70898868D01*
X79535461Y-70897035D01*
X79531210Y-70890420D01*
X78679710Y-70038920D01*
X78667330Y-70032160D01*
X78659680Y-70037887D01*
X78554795Y-70209042D01*
X78550313Y-70217837D01*
X78463266Y-70427988D01*
X78460217Y-70437373D01*
X78407115Y-70658554D01*
X78405572Y-70668301D01*
X78387725Y-70895070D01*
X78387725Y-70904930D01*
X46308500Y-70904930D01*
X46308500Y-67294669D01*
X52439501Y-67294669D01*
X52439871Y-67301490D01*
X52445395Y-67352352D01*
X52449021Y-67367604D01*
X52494176Y-67488054D01*
X52502714Y-67503649D01*
X52579215Y-67605724D01*
X52591776Y-67618285D01*
X52693851Y-67694786D01*
X52709446Y-67703324D01*
X52829894Y-67748478D01*
X52845149Y-67752105D01*
X52896014Y-67757631D01*
X52902828Y-67758000D01*
X53627885Y-67758000D01*
X53643124Y-67753525D01*
X53644329Y-67752135D01*
X53646000Y-67744452D01*
X53646000Y-67739884D01*
X54154000Y-67739884D01*
X54158475Y-67755123D01*
X54159865Y-67756328D01*
X54167548Y-67757999D01*
X54897169Y-67757999D01*
X54903990Y-67757629D01*
X54954852Y-67752105D01*
X54970104Y-67748479D01*
X55090554Y-67703324D01*
X55106149Y-67694786D01*
X55208224Y-67618285D01*
X55220785Y-67605724D01*
X55297286Y-67503649D01*
X55305824Y-67488055D01*
X55310160Y-67476487D01*
X55352801Y-67419721D01*
X55419362Y-67395020D01*
X55488711Y-67410226D01*
X55506235Y-67421832D01*
X55624670Y-67515367D01*
X55624675Y-67515370D01*
X55628724Y-67518568D01*
X55633240Y-67521061D01*
X55633243Y-67521063D01*
X55834526Y-67632177D01*
X55834530Y-67632179D01*
X55839050Y-67634674D01*
X55843919Y-67636398D01*
X55843923Y-67636400D01*
X56060640Y-67713144D01*
X56060644Y-67713145D01*
X56065515Y-67714870D01*
X56070608Y-67715777D01*
X56070611Y-67715778D01*
X56296948Y-67756095D01*
X56296954Y-67756096D01*
X56302037Y-67757001D01*
X56383804Y-67758000D01*
X56537093Y-67759873D01*
X56537095Y-67759873D01*
X56542263Y-67759936D01*
X56779744Y-67723596D01*
X56924466Y-67676294D01*
X57003183Y-67650566D01*
X57003189Y-67650563D01*
X57008101Y-67648958D01*
X57012687Y-67646571D01*
X57012691Y-67646569D01*
X57216607Y-67540416D01*
X57221200Y-67538025D01*
X57287755Y-67488054D01*
X57409185Y-67396882D01*
X57409188Y-67396880D01*
X57413320Y-67393777D01*
X57483409Y-67320433D01*
X57575730Y-67223825D01*
X57575731Y-67223824D01*
X57579301Y-67220088D01*
X57604535Y-67183097D01*
X57659444Y-67138096D01*
X57729968Y-67129925D01*
X57793716Y-67161179D01*
X57814411Y-67185660D01*
X57818498Y-67191977D01*
X57980186Y-67369670D01*
X58031539Y-67410226D01*
X58164670Y-67515367D01*
X58164675Y-67515370D01*
X58168724Y-67518568D01*
X58173240Y-67521061D01*
X58173243Y-67521063D01*
X58374526Y-67632177D01*
X58374530Y-67632179D01*
X58379050Y-67634674D01*
X58383919Y-67636398D01*
X58383923Y-67636400D01*
X58600640Y-67713144D01*
X58600644Y-67713145D01*
X58605515Y-67714870D01*
X58610608Y-67715777D01*
X58610611Y-67715778D01*
X58836948Y-67756095D01*
X58836954Y-67756096D01*
X58842037Y-67757001D01*
X58923804Y-67758000D01*
X59077093Y-67759873D01*
X59077095Y-67759873D01*
X59082263Y-67759936D01*
X59319744Y-67723596D01*
X59464466Y-67676294D01*
X59543183Y-67650566D01*
X59543189Y-67650563D01*
X59548101Y-67648958D01*
X59552687Y-67646571D01*
X59552691Y-67646569D01*
X59756607Y-67540416D01*
X59761200Y-67538025D01*
X59827755Y-67488054D01*
X59949185Y-67396882D01*
X59949188Y-67396880D01*
X59953320Y-67393777D01*
X60119301Y-67220088D01*
X60196891Y-67106345D01*
X60251774Y-67025891D01*
X60251775Y-67025890D01*
X60254686Y-67021622D01*
X60269243Y-66990263D01*
X60353658Y-66808405D01*
X60353659Y-66808401D01*
X60355837Y-66803710D01*
X60366574Y-66764993D01*
X66932160Y-66764993D01*
X66937887Y-66772643D01*
X67109042Y-66877528D01*
X67117837Y-66882010D01*
X67327988Y-66969057D01*
X67337373Y-66972106D01*
X67558554Y-67025208D01*
X67568301Y-67026751D01*
X67795070Y-67044598D01*
X67804930Y-67044598D01*
X68031699Y-67026751D01*
X68041446Y-67025208D01*
X68262627Y-66972106D01*
X68272012Y-66969057D01*
X68482163Y-66882010D01*
X68490958Y-66877528D01*
X68658445Y-66774891D01*
X68667907Y-66764433D01*
X68664124Y-66755657D01*
X67812812Y-65904345D01*
X67798868Y-65896731D01*
X67797035Y-65896862D01*
X67790420Y-65901113D01*
X66938920Y-66752613D01*
X66932160Y-66764993D01*
X60366574Y-66764993D01*
X60420040Y-66572202D01*
X60426702Y-66509865D01*
X60440644Y-66379407D01*
X60440644Y-66379399D01*
X60441000Y-66376072D01*
X60441000Y-66141598D01*
X60440723Y-66138222D01*
X60429030Y-65996000D01*
X60426322Y-65963063D01*
X60367794Y-65730056D01*
X60311779Y-65601229D01*
X60283962Y-65537253D01*
X66287725Y-65537253D01*
X66305572Y-65764022D01*
X66307115Y-65773769D01*
X66360217Y-65994950D01*
X66363266Y-66004335D01*
X66450313Y-66214486D01*
X66454795Y-66223281D01*
X66557432Y-66390768D01*
X66567890Y-66400230D01*
X66576666Y-66396447D01*
X67427978Y-65545135D01*
X67434356Y-65533455D01*
X68164408Y-65533455D01*
X68164539Y-65535288D01*
X68168790Y-65541903D01*
X69020290Y-66393403D01*
X69032670Y-66400163D01*
X69040320Y-66394436D01*
X69145205Y-66223281D01*
X69151937Y-66210070D01*
X69153264Y-66210746D01*
X69193635Y-66160646D01*
X69260998Y-66138222D01*
X69329790Y-66155778D01*
X69378170Y-66207738D01*
X69391500Y-66264142D01*
X69391500Y-68515164D01*
X69371498Y-68583285D01*
X69370188Y-68585090D01*
X69369493Y-68585771D01*
X69367894Y-68588253D01*
X69367892Y-68588255D01*
X69275054Y-68732312D01*
X69271235Y-68738238D01*
X69268826Y-68744858D01*
X69268824Y-68744861D01*
X69217398Y-68886154D01*
X69209197Y-68908685D01*
X69186463Y-69088640D01*
X69204163Y-69269160D01*
X69261418Y-69441273D01*
X69265065Y-69447295D01*
X69265066Y-69447297D01*
X69330169Y-69554795D01*
X69355380Y-69596424D01*
X69481382Y-69726902D01*
X69633159Y-69826222D01*
X69639763Y-69828678D01*
X69639765Y-69828679D01*
X69796558Y-69886990D01*
X69796560Y-69886990D01*
X69803168Y-69889448D01*
X69886995Y-69900633D01*
X69975980Y-69912507D01*
X69975984Y-69912507D01*
X69982961Y-69913438D01*
X69989972Y-69912800D01*
X69989976Y-69912800D01*
X70132459Y-69899832D01*
X70163600Y-69896998D01*
X70170302Y-69894820D01*
X70170304Y-69894820D01*
X70329409Y-69843124D01*
X70329412Y-69843123D01*
X70336108Y-69840947D01*
X70491912Y-69748069D01*
X70576108Y-69667890D01*
X79032093Y-69667890D01*
X79035876Y-69676666D01*
X79887188Y-70527978D01*
X79901132Y-70535592D01*
X79902965Y-70535461D01*
X79909580Y-70531210D01*
X80761080Y-69679710D01*
X80767840Y-69667330D01*
X80762113Y-69659680D01*
X80590958Y-69554795D01*
X80582163Y-69550313D01*
X80372012Y-69463266D01*
X80362627Y-69460217D01*
X80141446Y-69407115D01*
X80131699Y-69405572D01*
X79904930Y-69387725D01*
X79895070Y-69387725D01*
X79668301Y-69405572D01*
X79658554Y-69407115D01*
X79437373Y-69460217D01*
X79427988Y-69463266D01*
X79217837Y-69550313D01*
X79209042Y-69554795D01*
X79041555Y-69657432D01*
X79032093Y-69667890D01*
X70576108Y-69667890D01*
X70623266Y-69622982D01*
X70723643Y-69471902D01*
X70783728Y-69313729D01*
X70785555Y-69308920D01*
X70785556Y-69308918D01*
X70788055Y-69302338D01*
X70789035Y-69295366D01*
X70812748Y-69126639D01*
X70812748Y-69126636D01*
X70813299Y-69122717D01*
X70813616Y-69100000D01*
X70793397Y-68919745D01*
X70791080Y-68913091D01*
X70736064Y-68755106D01*
X70736062Y-68755103D01*
X70733745Y-68748448D01*
X70637626Y-68594624D01*
X70635215Y-68592196D01*
X70609117Y-68527716D01*
X70608500Y-68515263D01*
X70608500Y-68042925D01*
X87486645Y-68042925D01*
X87504570Y-68239888D01*
X87560410Y-68429619D01*
X87563263Y-68435077D01*
X87563265Y-68435081D01*
X87605132Y-68515164D01*
X87652040Y-68604890D01*
X87775968Y-68759025D01*
X87780692Y-68762989D01*
X87787933Y-68769065D01*
X87927474Y-68886154D01*
X87932872Y-68889121D01*
X87932877Y-68889125D01*
X88001307Y-68926744D01*
X88100787Y-68981433D01*
X88106654Y-68983294D01*
X88106656Y-68983295D01*
X88159317Y-69000000D01*
X88289306Y-69041235D01*
X88443227Y-69058500D01*
X88549769Y-69058500D01*
X88552825Y-69058200D01*
X88552832Y-69058200D01*
X88611340Y-69052463D01*
X88696833Y-69044080D01*
X88702734Y-69042298D01*
X88702736Y-69042298D01*
X88776583Y-69020002D01*
X88886169Y-68986916D01*
X89060796Y-68894066D01*
X89147062Y-68823709D01*
X89209287Y-68772960D01*
X89209290Y-68772957D01*
X89214062Y-68769065D01*
X89231118Y-68748448D01*
X89336201Y-68621425D01*
X89336203Y-68621421D01*
X89340130Y-68616675D01*
X89434198Y-68442701D01*
X89492682Y-68253768D01*
X89513355Y-68057075D01*
X89495430Y-67860112D01*
X89439590Y-67670381D01*
X89429919Y-67651881D01*
X89389280Y-67574147D01*
X89347960Y-67495110D01*
X89224032Y-67340975D01*
X89217727Y-67335684D01*
X89168847Y-67294669D01*
X89072526Y-67213846D01*
X89067128Y-67210879D01*
X89067123Y-67210875D01*
X88904608Y-67121533D01*
X88904609Y-67121533D01*
X88899213Y-67118567D01*
X88893346Y-67116706D01*
X88893344Y-67116705D01*
X88716564Y-67060627D01*
X88716563Y-67060627D01*
X88710694Y-67058765D01*
X88556773Y-67041500D01*
X88450231Y-67041500D01*
X88447175Y-67041800D01*
X88447168Y-67041800D01*
X88388660Y-67047537D01*
X88303167Y-67055920D01*
X88297266Y-67057702D01*
X88297264Y-67057702D01*
X88223947Y-67079838D01*
X88113831Y-67113084D01*
X87939204Y-67205934D01*
X87852938Y-67276291D01*
X87790713Y-67327040D01*
X87790710Y-67327043D01*
X87785938Y-67330935D01*
X87782011Y-67335682D01*
X87782009Y-67335684D01*
X87663799Y-67478575D01*
X87663797Y-67478579D01*
X87659870Y-67483325D01*
X87565802Y-67657299D01*
X87507318Y-67846232D01*
X87486645Y-68042925D01*
X70608500Y-68042925D01*
X70608500Y-66033424D01*
X84632032Y-66033424D01*
X84638489Y-66042783D01*
X84649871Y-66052765D01*
X84656399Y-66057774D01*
X84890198Y-66213993D01*
X84897335Y-66218114D01*
X85149527Y-66342481D01*
X85157122Y-66345627D01*
X85423391Y-66436014D01*
X85431351Y-66438147D01*
X85707137Y-66493004D01*
X85715295Y-66494078D01*
X85995881Y-66512468D01*
X86004119Y-66512468D01*
X86284705Y-66494078D01*
X86292863Y-66493004D01*
X86568649Y-66438147D01*
X86576609Y-66436014D01*
X86842878Y-66345627D01*
X86850473Y-66342481D01*
X87102665Y-66218114D01*
X87109802Y-66213993D01*
X87343601Y-66057774D01*
X87350129Y-66052765D01*
X87359646Y-66044419D01*
X87368041Y-66031183D01*
X87362206Y-66021416D01*
X86012812Y-64672022D01*
X85998868Y-64664408D01*
X85997035Y-64664539D01*
X85990420Y-64668790D01*
X84639547Y-66019663D01*
X84632032Y-66033424D01*
X70608500Y-66033424D01*
X70608500Y-65730290D01*
X70628502Y-65662169D01*
X70640864Y-65645980D01*
X70734621Y-65541852D01*
X70734622Y-65541851D01*
X70739040Y-65536944D01*
X70834527Y-65371556D01*
X70893542Y-65189928D01*
X70895870Y-65167784D01*
X70912814Y-65006565D01*
X70913504Y-65000000D01*
X70899612Y-64867823D01*
X70894232Y-64816635D01*
X70894232Y-64816633D01*
X70893542Y-64810072D01*
X70834527Y-64628444D01*
X70739040Y-64463056D01*
X70611253Y-64321134D01*
X70587834Y-64304119D01*
X83787532Y-64304119D01*
X83805922Y-64584705D01*
X83806996Y-64592863D01*
X83861853Y-64868649D01*
X83863986Y-64876609D01*
X83954373Y-65142878D01*
X83957519Y-65150473D01*
X84081886Y-65402665D01*
X84086007Y-65409802D01*
X84242226Y-65643601D01*
X84247235Y-65650129D01*
X84255581Y-65659646D01*
X84268817Y-65668041D01*
X84278584Y-65662206D01*
X85627978Y-64312812D01*
X85634356Y-64301132D01*
X86364408Y-64301132D01*
X86364539Y-64302965D01*
X86368790Y-64309580D01*
X87719663Y-65660453D01*
X87733424Y-65667968D01*
X87742783Y-65661511D01*
X87752765Y-65650129D01*
X87757774Y-65643601D01*
X87913993Y-65409802D01*
X87918114Y-65402665D01*
X88042481Y-65150473D01*
X88045627Y-65142878D01*
X88136014Y-64876609D01*
X88138147Y-64868649D01*
X88193004Y-64592863D01*
X88194078Y-64584705D01*
X88212468Y-64304119D01*
X88212468Y-64300000D01*
X88786761Y-64300000D01*
X88805696Y-64588886D01*
X88806500Y-64592926D01*
X88806500Y-64592929D01*
X88861344Y-64868649D01*
X88862175Y-64872828D01*
X88863501Y-64876734D01*
X88863502Y-64876738D01*
X88949585Y-65130330D01*
X88955234Y-65146970D01*
X88957055Y-65150663D01*
X88957056Y-65150665D01*
X88980653Y-65198514D01*
X89083279Y-65406619D01*
X89244119Y-65647335D01*
X89246831Y-65650427D01*
X89246836Y-65650434D01*
X89354999Y-65773769D01*
X89435004Y-65864996D01*
X89438093Y-65867705D01*
X89649565Y-66053163D01*
X89649571Y-66053168D01*
X89652665Y-66055881D01*
X89893380Y-66216721D01*
X89897079Y-66218545D01*
X89897084Y-66218548D01*
X89906682Y-66223281D01*
X90153030Y-66344766D01*
X90156924Y-66346088D01*
X90156934Y-66346092D01*
X90306001Y-66396693D01*
X90364078Y-66437530D01*
X90390856Y-66503283D01*
X90391500Y-66516006D01*
X90391500Y-71055712D01*
X90371498Y-71123833D01*
X90339561Y-71157648D01*
X90252869Y-71220634D01*
X90248448Y-71225544D01*
X90248447Y-71225545D01*
X90141015Y-71344861D01*
X90125082Y-71362556D01*
X90121781Y-71368274D01*
X90036679Y-71515675D01*
X90029595Y-71527944D01*
X89970580Y-71709572D01*
X89969890Y-71716133D01*
X89969890Y-71716135D01*
X89969198Y-71722717D01*
X89950618Y-71899500D01*
X89951308Y-71906065D01*
X89968804Y-72072526D01*
X89970580Y-72089428D01*
X90029595Y-72271056D01*
X90125082Y-72436444D01*
X90129500Y-72441351D01*
X90129501Y-72441352D01*
X90248447Y-72573455D01*
X90252869Y-72578366D01*
X90407370Y-72690618D01*
X90413398Y-72693302D01*
X90413400Y-72693303D01*
X90575803Y-72765609D01*
X90581834Y-72768294D01*
X90675234Y-72788147D01*
X90762178Y-72806628D01*
X90762183Y-72806628D01*
X90768635Y-72808000D01*
X90959609Y-72808000D01*
X90966061Y-72806628D01*
X90966066Y-72806628D01*
X91053010Y-72788147D01*
X91146410Y-72768294D01*
X91152441Y-72765609D01*
X91314844Y-72693303D01*
X91314846Y-72693302D01*
X91320874Y-72690618D01*
X91475375Y-72578366D01*
X91479797Y-72573455D01*
X91598743Y-72441352D01*
X91598744Y-72441351D01*
X91603162Y-72436444D01*
X91698649Y-72271056D01*
X91757664Y-72089428D01*
X91759441Y-72072526D01*
X91776936Y-71906065D01*
X91777626Y-71899500D01*
X91759046Y-71722717D01*
X91758354Y-71716135D01*
X91758354Y-71716133D01*
X91757664Y-71709572D01*
X91750863Y-71688640D01*
X92186463Y-71688640D01*
X92204163Y-71869160D01*
X92261418Y-72041273D01*
X92265065Y-72047295D01*
X92265066Y-72047297D01*
X92351730Y-72190398D01*
X92351733Y-72190401D01*
X92355380Y-72196424D01*
X92360275Y-72201492D01*
X92364571Y-72207071D01*
X92362243Y-72208864D01*
X92389071Y-72260115D01*
X92391500Y-72284734D01*
X92391500Y-76051864D01*
X92390422Y-76068307D01*
X92386250Y-76100000D01*
X92391500Y-76139880D01*
X92391500Y-76139885D01*
X92402014Y-76219745D01*
X92407162Y-76258851D01*
X92468476Y-76406876D01*
X92473506Y-76413431D01*
X92477632Y-76420578D01*
X92474874Y-76422170D01*
X92494662Y-76472261D01*
X92504163Y-76569160D01*
X92561418Y-76741273D01*
X92565065Y-76747295D01*
X92565066Y-76747297D01*
X92640596Y-76872012D01*
X92655380Y-76896424D01*
X92781382Y-77026902D01*
X92933159Y-77126222D01*
X92939763Y-77128678D01*
X92939765Y-77128679D01*
X93096558Y-77186990D01*
X93096560Y-77186990D01*
X93103168Y-77189448D01*
X93186995Y-77200633D01*
X93275980Y-77212507D01*
X93275984Y-77212507D01*
X93282961Y-77213438D01*
X93289972Y-77212800D01*
X93289976Y-77212800D01*
X93432459Y-77199832D01*
X93463600Y-77196998D01*
X93470302Y-77194820D01*
X93470304Y-77194820D01*
X93629409Y-77143124D01*
X93629412Y-77143123D01*
X93636108Y-77140947D01*
X93791912Y-77048069D01*
X93923266Y-76922982D01*
X94023643Y-76771902D01*
X94088055Y-76602338D01*
X94089035Y-76595366D01*
X94112748Y-76426639D01*
X94112748Y-76426636D01*
X94113299Y-76422717D01*
X94113616Y-76400000D01*
X94093397Y-76219745D01*
X94084226Y-76193410D01*
X94036064Y-76055106D01*
X94036062Y-76055103D01*
X94033745Y-76048448D01*
X93937626Y-75894624D01*
X93925626Y-75882540D01*
X93814778Y-75770915D01*
X93814774Y-75770912D01*
X93809815Y-75765918D01*
X93772409Y-75742179D01*
X93666986Y-75675276D01*
X93620187Y-75621887D01*
X93608500Y-75568891D01*
X93608500Y-72283248D01*
X93629552Y-72213521D01*
X93698169Y-72110243D01*
X93723643Y-72071902D01*
X93788055Y-71902338D01*
X93789377Y-71892935D01*
X93812748Y-71726639D01*
X93812748Y-71726636D01*
X93813299Y-71722717D01*
X93813467Y-71710694D01*
X93813561Y-71703962D01*
X93813561Y-71703957D01*
X93813616Y-71700000D01*
X93793397Y-71519745D01*
X93791080Y-71513091D01*
X93736064Y-71355106D01*
X93736062Y-71355103D01*
X93733745Y-71348448D01*
X93681313Y-71264539D01*
X93641359Y-71200598D01*
X93637626Y-71194624D01*
X93623941Y-71180843D01*
X93514778Y-71070915D01*
X93514774Y-71070912D01*
X93509815Y-71065918D01*
X93498697Y-71058862D01*
X93450538Y-71028300D01*
X93356666Y-70968727D01*
X93326957Y-70958148D01*
X93192425Y-70910243D01*
X93192420Y-70910242D01*
X93185790Y-70907881D01*
X93178802Y-70907048D01*
X93178799Y-70907047D01*
X93055698Y-70892368D01*
X93005680Y-70886404D01*
X92998677Y-70887140D01*
X92998676Y-70887140D01*
X92832288Y-70904628D01*
X92832286Y-70904629D01*
X92825288Y-70905364D01*
X92653579Y-70963818D01*
X92617895Y-70985771D01*
X92505095Y-71055166D01*
X92505092Y-71055168D01*
X92499088Y-71058862D01*
X92494053Y-71063793D01*
X92494050Y-71063795D01*
X92407606Y-71148448D01*
X92369493Y-71185771D01*
X92271235Y-71338238D01*
X92268826Y-71344858D01*
X92268824Y-71344861D01*
X92213940Y-71495653D01*
X92209197Y-71508685D01*
X92186463Y-71688640D01*
X91750863Y-71688640D01*
X91698649Y-71527944D01*
X91691566Y-71515675D01*
X91625381Y-71401041D01*
X91608500Y-71338041D01*
X91608500Y-66516006D01*
X91628502Y-66447885D01*
X91682158Y-66401392D01*
X91693999Y-66396693D01*
X91843066Y-66346092D01*
X91843076Y-66346088D01*
X91846970Y-66344766D01*
X92093318Y-66223281D01*
X92102916Y-66218548D01*
X92102921Y-66218545D01*
X92106620Y-66216721D01*
X92347335Y-66055881D01*
X92350429Y-66053168D01*
X92350435Y-66053163D01*
X92561907Y-65867705D01*
X92564996Y-65864996D01*
X92645001Y-65773769D01*
X92753164Y-65650434D01*
X92753169Y-65650427D01*
X92755881Y-65647335D01*
X92916721Y-65406619D01*
X93019347Y-65198514D01*
X93042944Y-65150665D01*
X93042945Y-65150663D01*
X93044766Y-65146970D01*
X93050415Y-65130330D01*
X93136498Y-64876738D01*
X93136499Y-64876734D01*
X93137825Y-64872828D01*
X93138657Y-64868649D01*
X93193500Y-64592929D01*
X93193500Y-64592926D01*
X93194304Y-64588886D01*
X93213239Y-64300000D01*
X93205546Y-64182636D01*
X93194574Y-64015229D01*
X93194573Y-64015225D01*
X93194304Y-64011114D01*
X93179256Y-63935461D01*
X93138631Y-63731222D01*
X93138629Y-63731216D01*
X93137825Y-63727172D01*
X93044766Y-63453030D01*
X93038147Y-63439607D01*
X92918550Y-63197090D01*
X92916721Y-63193381D01*
X92755881Y-62952665D01*
X92753169Y-62949573D01*
X92753164Y-62949566D01*
X92567705Y-62738093D01*
X92564996Y-62735004D01*
X92552754Y-62724268D01*
X92350435Y-62546837D01*
X92350429Y-62546832D01*
X92347335Y-62544119D01*
X92106620Y-62383279D01*
X92102921Y-62381455D01*
X92102916Y-62381452D01*
X91850665Y-62257056D01*
X91850663Y-62257055D01*
X91846970Y-62255234D01*
X91742674Y-62219830D01*
X91576738Y-62163502D01*
X91576734Y-62163501D01*
X91572828Y-62162175D01*
X91568784Y-62161371D01*
X91568778Y-62161369D01*
X91292929Y-62106500D01*
X91292926Y-62106500D01*
X91288886Y-62105696D01*
X91284775Y-62105427D01*
X91284771Y-62105426D01*
X91004119Y-62087031D01*
X91000000Y-62086761D01*
X90995881Y-62087031D01*
X90715229Y-62105426D01*
X90715225Y-62105427D01*
X90711114Y-62105696D01*
X90707074Y-62106500D01*
X90707071Y-62106500D01*
X90431222Y-62161369D01*
X90431216Y-62161371D01*
X90427172Y-62162175D01*
X90423266Y-62163501D01*
X90423262Y-62163502D01*
X90257326Y-62219830D01*
X90153030Y-62255234D01*
X89893381Y-62383279D01*
X89652665Y-62544119D01*
X89649573Y-62546831D01*
X89649566Y-62546836D01*
X89447246Y-62724268D01*
X89435004Y-62735004D01*
X89432295Y-62738093D01*
X89246836Y-62949566D01*
X89246831Y-62949573D01*
X89244119Y-62952665D01*
X89083279Y-63193381D01*
X89081450Y-63197090D01*
X88961854Y-63439607D01*
X88955234Y-63453030D01*
X88862175Y-63727172D01*
X88861371Y-63731216D01*
X88861369Y-63731222D01*
X88820744Y-63935461D01*
X88805696Y-64011114D01*
X88805427Y-64015225D01*
X88805426Y-64015229D01*
X88794454Y-64182636D01*
X88786761Y-64300000D01*
X88212468Y-64300000D01*
X88212468Y-64295881D01*
X88194078Y-64015295D01*
X88193004Y-64007137D01*
X88138147Y-63731351D01*
X88136014Y-63723391D01*
X88045627Y-63457122D01*
X88042481Y-63449527D01*
X87918114Y-63197335D01*
X87913993Y-63190198D01*
X87757774Y-62956399D01*
X87752765Y-62949871D01*
X87744419Y-62940354D01*
X87731183Y-62931959D01*
X87721416Y-62937794D01*
X86372022Y-64287188D01*
X86364408Y-64301132D01*
X85634356Y-64301132D01*
X85635592Y-64298868D01*
X85635461Y-64297035D01*
X85631210Y-64290420D01*
X84280337Y-62939547D01*
X84266576Y-62932032D01*
X84257217Y-62938489D01*
X84247235Y-62949871D01*
X84242226Y-62956399D01*
X84086007Y-63190198D01*
X84081886Y-63197335D01*
X83957519Y-63449527D01*
X83954373Y-63457122D01*
X83863986Y-63723391D01*
X83861853Y-63731351D01*
X83806996Y-64007137D01*
X83805922Y-64015295D01*
X83787532Y-64295881D01*
X83787532Y-64304119D01*
X70587834Y-64304119D01*
X70456752Y-64208882D01*
X70450724Y-64206198D01*
X70450722Y-64206197D01*
X70288319Y-64133891D01*
X70288318Y-64133891D01*
X70282288Y-64131206D01*
X70188888Y-64111353D01*
X70101944Y-64092872D01*
X70101939Y-64092872D01*
X70095487Y-64091500D01*
X69904513Y-64091500D01*
X69898061Y-64092872D01*
X69898056Y-64092872D01*
X69811112Y-64111353D01*
X69717712Y-64131206D01*
X69711682Y-64133891D01*
X69711681Y-64133891D01*
X69549278Y-64206197D01*
X69549276Y-64206198D01*
X69543248Y-64208882D01*
X69388747Y-64321134D01*
X69260960Y-64463056D01*
X69257659Y-64468774D01*
X69179018Y-64604984D01*
X69127636Y-64653977D01*
X69057922Y-64667413D01*
X69049300Y-64666289D01*
X69033745Y-64663711D01*
X69023334Y-64668199D01*
X68172022Y-65519511D01*
X68164408Y-65533455D01*
X67434356Y-65533455D01*
X67435592Y-65531191D01*
X67435461Y-65529358D01*
X67431210Y-65522743D01*
X66579710Y-64671243D01*
X66567330Y-64664483D01*
X66559680Y-64670210D01*
X66454795Y-64841365D01*
X66450313Y-64850160D01*
X66363266Y-65060311D01*
X66360217Y-65069696D01*
X66307115Y-65290877D01*
X66305572Y-65300624D01*
X66287725Y-65527393D01*
X66287725Y-65537253D01*
X60283962Y-65537253D01*
X60274057Y-65514474D01*
X60274055Y-65514471D01*
X60271997Y-65509737D01*
X60181645Y-65370075D01*
X60144310Y-65312363D01*
X60144308Y-65312360D01*
X60141502Y-65308023D01*
X59979814Y-65130330D01*
X59829914Y-65011946D01*
X59795330Y-64984633D01*
X59795325Y-64984630D01*
X59791276Y-64981432D01*
X59786760Y-64978939D01*
X59786757Y-64978937D01*
X59585474Y-64867823D01*
X59585470Y-64867821D01*
X59580950Y-64865326D01*
X59576081Y-64863602D01*
X59576077Y-64863600D01*
X59359360Y-64786856D01*
X59359356Y-64786855D01*
X59354485Y-64785130D01*
X59349392Y-64784223D01*
X59349389Y-64784222D01*
X59123052Y-64743905D01*
X59123046Y-64743904D01*
X59117963Y-64742999D01*
X59030600Y-64741932D01*
X58882907Y-64740127D01*
X58882905Y-64740127D01*
X58877737Y-64740064D01*
X58640256Y-64776404D01*
X58556456Y-64803794D01*
X58416817Y-64849434D01*
X58416811Y-64849437D01*
X58411899Y-64851042D01*
X58407313Y-64853429D01*
X58407309Y-64853431D01*
X58203393Y-64959584D01*
X58198800Y-64961975D01*
X58006680Y-65106223D01*
X57840699Y-65279912D01*
X57815465Y-65316903D01*
X57760556Y-65361904D01*
X57690032Y-65370075D01*
X57626284Y-65338821D01*
X57605589Y-65314340D01*
X57604311Y-65312365D01*
X57601502Y-65308023D01*
X57439814Y-65130330D01*
X57289914Y-65011946D01*
X57255330Y-64984633D01*
X57255325Y-64984630D01*
X57251276Y-64981432D01*
X57246760Y-64978939D01*
X57246757Y-64978937D01*
X57045474Y-64867823D01*
X57045470Y-64867821D01*
X57040950Y-64865326D01*
X57036081Y-64863602D01*
X57036077Y-64863600D01*
X56819360Y-64786856D01*
X56819356Y-64786855D01*
X56814485Y-64785130D01*
X56809392Y-64784223D01*
X56809389Y-64784222D01*
X56583052Y-64743905D01*
X56583046Y-64743904D01*
X56577963Y-64742999D01*
X56490600Y-64741932D01*
X56342907Y-64740127D01*
X56342905Y-64740127D01*
X56337737Y-64740064D01*
X56100256Y-64776404D01*
X56016456Y-64803794D01*
X55876817Y-64849434D01*
X55876811Y-64849437D01*
X55871899Y-64851042D01*
X55867313Y-64853429D01*
X55867309Y-64853431D01*
X55663393Y-64959584D01*
X55658800Y-64961975D01*
X55503300Y-65078728D01*
X55436818Y-65103633D01*
X55367422Y-65088641D01*
X55317148Y-65038511D01*
X55309667Y-65022197D01*
X55305824Y-65011946D01*
X55297286Y-64996351D01*
X55220785Y-64894276D01*
X55208224Y-64881715D01*
X55106149Y-64805214D01*
X55090554Y-64796676D01*
X54970106Y-64751522D01*
X54954851Y-64747895D01*
X54903986Y-64742369D01*
X54897172Y-64742000D01*
X54172115Y-64742000D01*
X54156876Y-64746475D01*
X54155671Y-64747865D01*
X54154000Y-64755548D01*
X54154000Y-67739884D01*
X53646000Y-67739884D01*
X53646000Y-66522115D01*
X53641525Y-66506876D01*
X53640135Y-66505671D01*
X53632452Y-66504000D01*
X52457616Y-66504000D01*
X52442377Y-66508475D01*
X52441172Y-66509865D01*
X52439501Y-66517548D01*
X52439501Y-67294669D01*
X46308500Y-67294669D01*
X46308500Y-65977885D01*
X52439500Y-65977885D01*
X52443975Y-65993124D01*
X52445365Y-65994329D01*
X52453048Y-65996000D01*
X53627885Y-65996000D01*
X53643124Y-65991525D01*
X53644329Y-65990135D01*
X53646000Y-65982452D01*
X53646000Y-64760116D01*
X53641525Y-64744877D01*
X53640135Y-64743672D01*
X53632452Y-64742001D01*
X52902831Y-64742001D01*
X52896010Y-64742371D01*
X52845148Y-64747895D01*
X52829896Y-64751521D01*
X52709446Y-64796676D01*
X52693851Y-64805214D01*
X52591776Y-64881715D01*
X52579215Y-64894276D01*
X52502714Y-64996351D01*
X52494176Y-65011946D01*
X52449022Y-65132394D01*
X52445395Y-65147649D01*
X52439869Y-65198514D01*
X52439500Y-65205328D01*
X52439500Y-65977885D01*
X46308500Y-65977885D01*
X46308500Y-64300213D01*
X66932093Y-64300213D01*
X66935876Y-64308989D01*
X67787188Y-65160301D01*
X67801132Y-65167915D01*
X67802965Y-65167784D01*
X67809580Y-65163533D01*
X68661080Y-64312033D01*
X68667840Y-64299653D01*
X68662113Y-64292003D01*
X68490958Y-64187118D01*
X68482163Y-64182636D01*
X68272012Y-64095589D01*
X68262627Y-64092540D01*
X68041446Y-64039438D01*
X68031699Y-64037895D01*
X67804930Y-64020048D01*
X67795070Y-64020048D01*
X67568301Y-64037895D01*
X67558554Y-64039438D01*
X67337373Y-64092540D01*
X67327988Y-64095589D01*
X67117837Y-64182636D01*
X67109042Y-64187118D01*
X66941555Y-64289755D01*
X66932093Y-64300213D01*
X46308500Y-64300213D01*
X46308500Y-61580457D01*
X66291500Y-61580457D01*
X66298255Y-61642639D01*
X66349385Y-61779028D01*
X66436739Y-61895584D01*
X66553295Y-61982938D01*
X66689684Y-62034068D01*
X66751866Y-62040823D01*
X68848134Y-62040823D01*
X68910316Y-62034068D01*
X69046705Y-61982938D01*
X69163261Y-61895584D01*
X69250615Y-61779028D01*
X69301745Y-61642639D01*
X69302824Y-61632703D01*
X75590743Y-61632703D01*
X75628268Y-61917734D01*
X75704129Y-62195036D01*
X75705813Y-62198984D01*
X75785586Y-62386007D01*
X75816923Y-62459476D01*
X75964561Y-62706161D01*
X76144313Y-62930528D01*
X76352851Y-63128423D01*
X76586317Y-63296186D01*
X76590112Y-63298195D01*
X76590113Y-63298196D01*
X76611869Y-63309715D01*
X76840392Y-63430712D01*
X77110373Y-63529511D01*
X77391264Y-63590755D01*
X77419841Y-63593004D01*
X77614282Y-63608307D01*
X77614291Y-63608307D01*
X77616739Y-63608500D01*
X77772271Y-63608500D01*
X77774407Y-63608354D01*
X77774418Y-63608354D01*
X77982548Y-63594165D01*
X77982554Y-63594164D01*
X77986825Y-63593873D01*
X77991020Y-63593004D01*
X77991022Y-63593004D01*
X78127583Y-63564724D01*
X78268342Y-63535574D01*
X78539343Y-63439607D01*
X78794812Y-63307750D01*
X78798313Y-63305289D01*
X78798317Y-63305287D01*
X78952265Y-63197090D01*
X79030023Y-63142441D01*
X79240622Y-62946740D01*
X79422713Y-62724268D01*
X79517974Y-62568817D01*
X84631959Y-62568817D01*
X84637794Y-62578584D01*
X85987188Y-63927978D01*
X86001132Y-63935592D01*
X86002965Y-63935461D01*
X86009580Y-63931210D01*
X87360453Y-62580337D01*
X87367968Y-62566576D01*
X87361511Y-62557217D01*
X87350129Y-62547235D01*
X87343601Y-62542226D01*
X87109802Y-62386007D01*
X87102665Y-62381886D01*
X86850473Y-62257519D01*
X86842878Y-62254373D01*
X86576609Y-62163986D01*
X86568649Y-62161853D01*
X86292863Y-62106996D01*
X86284705Y-62105922D01*
X86004119Y-62087532D01*
X85995881Y-62087532D01*
X85715295Y-62105922D01*
X85707137Y-62106996D01*
X85431351Y-62161853D01*
X85423391Y-62163986D01*
X85157122Y-62254373D01*
X85149527Y-62257519D01*
X84897335Y-62381886D01*
X84890198Y-62386007D01*
X84656399Y-62542226D01*
X84649871Y-62547235D01*
X84640354Y-62555581D01*
X84631959Y-62568817D01*
X79517974Y-62568817D01*
X79572927Y-62479142D01*
X79688483Y-62215898D01*
X79703787Y-62162175D01*
X79753946Y-61986090D01*
X79767244Y-61939406D01*
X79807751Y-61654784D01*
X79807845Y-61636951D01*
X79809235Y-61371583D01*
X79809235Y-61371576D01*
X79809257Y-61367297D01*
X79771732Y-61082266D01*
X79695871Y-60804964D01*
X79654951Y-60709030D01*
X79584763Y-60544476D01*
X79584761Y-60544472D01*
X79584101Y-60542925D01*
X87486645Y-60542925D01*
X87487204Y-60549065D01*
X87503977Y-60733368D01*
X87504570Y-60739888D01*
X87506308Y-60745794D01*
X87506309Y-60745798D01*
X87524941Y-60809103D01*
X87560410Y-60929619D01*
X87563263Y-60935077D01*
X87563265Y-60935081D01*
X87610720Y-61025853D01*
X87652040Y-61104890D01*
X87775968Y-61259025D01*
X87780692Y-61262989D01*
X87787933Y-61269065D01*
X87927474Y-61386154D01*
X87932872Y-61389121D01*
X87932877Y-61389125D01*
X88076180Y-61467905D01*
X88100787Y-61481433D01*
X88106654Y-61483294D01*
X88106656Y-61483295D01*
X88283436Y-61539373D01*
X88289306Y-61541235D01*
X88443227Y-61558500D01*
X88549769Y-61558500D01*
X88552825Y-61558200D01*
X88552832Y-61558200D01*
X88611340Y-61552463D01*
X88696833Y-61544080D01*
X88702734Y-61542298D01*
X88702736Y-61542298D01*
X88776053Y-61520162D01*
X88886169Y-61486916D01*
X89060796Y-61394066D01*
X89147062Y-61323709D01*
X89209287Y-61272960D01*
X89209290Y-61272957D01*
X89214062Y-61269065D01*
X89226344Y-61254219D01*
X89336201Y-61121425D01*
X89336203Y-61121421D01*
X89340130Y-61116675D01*
X89434198Y-60942701D01*
X89492682Y-60753768D01*
X89511663Y-60573173D01*
X89512711Y-60563204D01*
X89512711Y-60563202D01*
X89513355Y-60557075D01*
X89502807Y-60441173D01*
X89495989Y-60366251D01*
X89495988Y-60366248D01*
X89495430Y-60360112D01*
X89471672Y-60279386D01*
X89441330Y-60176294D01*
X89439590Y-60170381D01*
X89429919Y-60151881D01*
X89360460Y-60019020D01*
X89347960Y-59995110D01*
X89224032Y-59840975D01*
X89217727Y-59835684D01*
X89201334Y-59821929D01*
X89072526Y-59713846D01*
X89067128Y-59710879D01*
X89067123Y-59710875D01*
X88904608Y-59621533D01*
X88904609Y-59621533D01*
X88899213Y-59618567D01*
X88893346Y-59616706D01*
X88893344Y-59616705D01*
X88716564Y-59560627D01*
X88716563Y-59560627D01*
X88710694Y-59558765D01*
X88556773Y-59541500D01*
X88450231Y-59541500D01*
X88447175Y-59541800D01*
X88447168Y-59541800D01*
X88388660Y-59547537D01*
X88303167Y-59555920D01*
X88297266Y-59557702D01*
X88297264Y-59557702D01*
X88258890Y-59569288D01*
X88113831Y-59613084D01*
X87939204Y-59705934D01*
X87852938Y-59776291D01*
X87790713Y-59827040D01*
X87790710Y-59827043D01*
X87785938Y-59830935D01*
X87782011Y-59835682D01*
X87782009Y-59835684D01*
X87663799Y-59978575D01*
X87663797Y-59978579D01*
X87659870Y-59983325D01*
X87565802Y-60157299D01*
X87507318Y-60346232D01*
X87506675Y-60352351D01*
X87506674Y-60352358D01*
X87489349Y-60517201D01*
X87486645Y-60542925D01*
X79584101Y-60542925D01*
X79583077Y-60540524D01*
X79485781Y-60377954D01*
X79437643Y-60297521D01*
X79437640Y-60297517D01*
X79435439Y-60293839D01*
X79255687Y-60069472D01*
X79047149Y-59871577D01*
X78827644Y-59713846D01*
X78817172Y-59706321D01*
X78817171Y-59706320D01*
X78813683Y-59703814D01*
X78791843Y-59692250D01*
X78753814Y-59672115D01*
X78559608Y-59569288D01*
X78424617Y-59519888D01*
X78293658Y-59471964D01*
X78293656Y-59471963D01*
X78289627Y-59470489D01*
X78008736Y-59409245D01*
X77977685Y-59406801D01*
X77785718Y-59391693D01*
X77785709Y-59391693D01*
X77783261Y-59391500D01*
X77627729Y-59391500D01*
X77625593Y-59391646D01*
X77625582Y-59391646D01*
X77417452Y-59405835D01*
X77417446Y-59405836D01*
X77413175Y-59406127D01*
X77408980Y-59406996D01*
X77408978Y-59406996D01*
X77336493Y-59422007D01*
X77131658Y-59464426D01*
X76860657Y-59560393D01*
X76856848Y-59562359D01*
X76613289Y-59688069D01*
X76605188Y-59692250D01*
X76601687Y-59694711D01*
X76601683Y-59694713D01*
X76487582Y-59774905D01*
X76369977Y-59857559D01*
X76354892Y-59871577D01*
X76196225Y-60019020D01*
X76159378Y-60053260D01*
X75977287Y-60275732D01*
X75827073Y-60520858D01*
X75825347Y-60524791D01*
X75825346Y-60524792D01*
X75713243Y-60780170D01*
X75711517Y-60784102D01*
X75632756Y-61060594D01*
X75592249Y-61345216D01*
X75592227Y-61349505D01*
X75592226Y-61349512D01*
X75590765Y-61628417D01*
X75590743Y-61632703D01*
X69302824Y-61632703D01*
X69308500Y-61580457D01*
X69308500Y-59484189D01*
X69301745Y-59422007D01*
X69250615Y-59285618D01*
X69163261Y-59169062D01*
X69046705Y-59081708D01*
X68910316Y-59030578D01*
X68848134Y-59023823D01*
X66751866Y-59023823D01*
X66689684Y-59030578D01*
X66553295Y-59081708D01*
X66436739Y-59169062D01*
X66349385Y-59285618D01*
X66298255Y-59422007D01*
X66291500Y-59484189D01*
X66291500Y-61580457D01*
X46308500Y-61580457D01*
X46308500Y-58653250D01*
X46310246Y-58632345D01*
X46312770Y-58617344D01*
X46312770Y-58617341D01*
X46313576Y-58612552D01*
X46313729Y-58600000D01*
X46313040Y-58595188D01*
X46312723Y-58590327D01*
X46313008Y-58590308D01*
X46312607Y-58563549D01*
X46319234Y-58504736D01*
X46325513Y-58477229D01*
X46352485Y-58400147D01*
X46364727Y-58374726D01*
X46408178Y-58305574D01*
X46425770Y-58283515D01*
X46483515Y-58225770D01*
X46505574Y-58208178D01*
X46574726Y-58164727D01*
X46600147Y-58152485D01*
X46677228Y-58125513D01*
X46704736Y-58119234D01*
X46760226Y-58112982D01*
X46775868Y-58113077D01*
X46775879Y-58112200D01*
X46784851Y-58112310D01*
X46793724Y-58113691D01*
X46802626Y-58112527D01*
X46802628Y-58112527D01*
X46817677Y-58110559D01*
X46825286Y-58109564D01*
X46841621Y-58108500D01*
X58314746Y-58108500D01*
X58382867Y-58128502D01*
G37*
%TD.AperFunction*%
%TD*%
M02*
