%TF.GenerationSoftware,KiCad,Pcbnew,6.0.5-a6ca702e91~116~ubuntu20.04.1*%
%TF.CreationDate,2022-06-30T20:33:51-06:00*%
%TF.ProjectId,trailer-power-controller,74726169-6c65-4722-9d70-6f7765722d63,rev?*%
%TF.SameCoordinates,Original*%
%TF.FileFunction,Soldermask,Bot*%
%TF.FilePolarity,Negative*%
%FSLAX46Y46*%
G04 Gerber Fmt 4.6, Leading zero omitted, Abs format (unit mm)*
G04 Created by KiCad (PCBNEW 6.0.5-a6ca702e91~116~ubuntu20.04.1) date 2022-06-30 20:33:51*
%MOMM*%
%LPD*%
G01*
G04 APERTURE LIST*
G04 Aperture macros list*
%AMRoundRect*
0 Rectangle with rounded corners*
0 $1 Rounding radius*
0 $2 $3 $4 $5 $6 $7 $8 $9 X,Y pos of 4 corners*
0 Add a 4 corners polygon primitive as box body*
4,1,4,$2,$3,$4,$5,$6,$7,$8,$9,$2,$3,0*
0 Add four circle primitives for the rounded corners*
1,1,$1+$1,$2,$3*
1,1,$1+$1,$4,$5*
1,1,$1+$1,$6,$7*
1,1,$1+$1,$8,$9*
0 Add four rect primitives between the rounded corners*
20,1,$1+$1,$2,$3,$4,$5,0*
20,1,$1+$1,$4,$5,$6,$7,0*
20,1,$1+$1,$6,$7,$8,$9,0*
20,1,$1+$1,$8,$9,$2,$3,0*%
G04 Aperture macros list end*
%ADD10R,1.050000X1.500000*%
%ADD11O,1.050000X1.500000*%
%ADD12R,1.905000X2.000000*%
%ADD13O,1.905000X2.000000*%
%ADD14R,2.000000X2.000000*%
%ADD15C,2.000000*%
%ADD16R,1.700000X1.700000*%
%ADD17O,1.700000X1.700000*%
%ADD18C,1.000000*%
%ADD19C,3.400000*%
%ADD20O,6.030000X2.070000*%
%ADD21RoundRect,0.265625X-1.859375X-1.859375X1.859375X-1.859375X1.859375X1.859375X-1.859375X1.859375X0*%
%ADD22C,4.250000*%
%ADD23C,3.200000*%
%ADD24C,1.408000*%
%ADD25C,1.800000*%
G04 APERTURE END LIST*
D10*
%TO.C,U4*%
X104070000Y-95440000D03*
D11*
X102800000Y-95440000D03*
X101530000Y-95440000D03*
%TD*%
D12*
%TO.C,U3*%
X53900000Y-66250000D03*
D13*
X56440000Y-66250000D03*
X58980000Y-66250000D03*
%TD*%
D14*
%TO.C,C18*%
X79900000Y-75900000D03*
D15*
X79900000Y-70900000D03*
%TD*%
D16*
%TO.C,J9*%
X61775000Y-59400000D03*
D17*
X59235000Y-59400000D03*
%TD*%
D18*
%TO.C,BZ1*%
X88500000Y-68050000D03*
X88500000Y-60550000D03*
D19*
X91000000Y-64300000D03*
X86000000Y-64300000D03*
%TD*%
D20*
%TO.C,J1*%
X57550000Y-94925000D03*
X49650000Y-94925000D03*
%TD*%
%TO.C,J7*%
X74850000Y-94925000D03*
X66950000Y-94925000D03*
%TD*%
D16*
%TO.C,J5*%
X98590000Y-102975000D03*
D17*
X98590000Y-105515000D03*
X98590000Y-108055000D03*
%TD*%
D14*
%TO.C,C10*%
X67800000Y-60532323D03*
D15*
X67800000Y-65532323D03*
%TD*%
D16*
%TO.C,J6*%
X88870000Y-107500000D03*
D17*
X86330000Y-107500000D03*
%TD*%
D16*
%TO.C,J4*%
X106400000Y-103000000D03*
D17*
X106400000Y-105540000D03*
X106400000Y-108080000D03*
%TD*%
D21*
%TO.C,J3*%
X58150000Y-89600000D03*
D22*
X65850000Y-89600000D03*
%TD*%
D23*
%TO.C,H3*%
X136500000Y-61300000D03*
%TD*%
D14*
%TO.C,C21*%
X89600000Y-94032323D03*
D15*
X89600000Y-99032323D03*
%TD*%
D12*
%TO.C,Q5*%
X75540000Y-82987323D03*
D13*
X73000000Y-82987323D03*
X70460000Y-82987323D03*
%TD*%
D24*
%TO.C,J2*%
X135900000Y-98400000D03*
X135900000Y-93400000D03*
D25*
X138600000Y-99400000D03*
X138600000Y-92400000D03*
%TD*%
D23*
%TO.C,H4*%
X77700000Y-61500000D03*
%TD*%
D14*
%TO.C,C4*%
X62900000Y-76400000D03*
D15*
X57900000Y-76400000D03*
%TD*%
D23*
%TO.C,H1*%
X49400000Y-85000000D03*
%TD*%
%TO.C,H2*%
X136500000Y-106800000D03*
%TD*%
M02*
